<svg xmlns="http://www.w3.org/2000/svg" viewBox="0 0 667.16 347.56"><defs><style>.cls-1{fill:none;stroke:#000;stroke-linecap:round;stroke-linejoin:round;stroke-width:6px;}</style></defs><g id="Layer_2" data-name="Layer 2"><g id="Layer_5" data-name="Layer 5"><path class="cls-1" d="M3,238.48A1369.68,1369.68,0,0,0,44.6,11L59,137.79c2.13,18.82,4.33,37.88,11.12,55.57"/><path class="cls-1" d="M83.45,169.85c-.55-16.14-4.46-32.33-6.34-50.34l7.08,55.6.65-17.19c.43-11.28.93-22.88,5.5-33.2s14.25-19.2,25.53-19.38"/><path class="cls-1" d="M130.29,21.29q7.88,68.16,12.55,136.65"/><path class="cls-1" d="M123.84,120.09a104.87,104.87,0,0,0,27-18.59"/><path class="cls-1" d="M168.05,129.34a86,86,0,0,0-1.3-23.42"/><path class="cls-1" d="M164.15,88.8h1.3"/><path class="cls-1" d="M209.64,89c-1.9-3.65-6.93-4.69-10.82-3.34a23.45,23.45,0,0,0-9.71,6.82,14.31,14.31,0,0,0-3.23,6c-1.25,5.92,6.12,9.91,12.16,10.31s13.08-.23,17.06,4.32c2.74,3.12,3,7.72,2.33,11.83-1,6.21-3.57,12.05-6.5,17.61-3.69,7-8.12,13.86-14.56,18.45s-15.25,6.52-22.39,3.11-11.18-13-7.11-19.82"/><path class="cls-1" d="M232.14,3l13,152.89"/><path class="cls-1" d="M222.5,92.44a185.55,185.55,0,0,1,42.17-25"/><path class="cls-1" d="M352.41,63.47c-1.75-10.86-6.58-23.42-12.53-20.5-3.62,1.31-4.22,6.1-4.19,10a838,838,0,0,0,5.4,87.88"/><path class="cls-1" d="M327.85,108.9a124.79,124.79,0,0,0,28.22-8.1"/><path class="cls-1" d="M380.31,109.07a17,17,0,0,0-3.07-8.78c-1.89-2.45-5.91-3.51-8.09-1.32a7.46,7.46,0,0,0-1.67,3.36,44.82,44.82,0,0,0-.7,21.77c.75,3.46,2.86,7.53,6.4,7.34,3-.16,4.79-3.3,5.7-6.12,2.76-8.56,2-16.82-1.64-25"/><path class="cls-1" d="M390.06,92.56a152.72,152.72,0,0,1,4.85,32.93l3.78-22.15c1-6,2.15-12.26,5.91-17s11-7.36,16.09-4"/><path class="cls-1" d="M418.35,94.14c-2.48,13.56-1.31,39.23,3.07,40.79,3.67-.22,5.56-4.42,6.53-8a191.86,191.86,0,0,0,5.86-31.82,189.47,189.47,0,0,0,2.9,37.25c.58,3.33,2.51,7.55,5.82,6.9A121.67,121.67,0,0,0,448,89.87"/><path class="cls-1" d="M535.9,45.53a257,257,0,0,1,5.2,76.24c-.21,2.6-1.49,6.06-4.06,5.6-7.68-1.28-21.68-22.58-14-31.45,3.52-4.07,14.05-4.24,17.88-.63"/><path class="cls-1" d="M296.81,281.41s-1.31-.69-1.51-.73L283.16,160.44c-.32-4.52,5-5.89,7.75-6.11a124.75,124.75,0,0,1,64.56,12.24c8.37,4.1,16.63,9.51,21,17.73,3.91,7.34,4.26,16.07,3.48,24.36A100.61,100.61,0,0,1,361.35,258c-5.68,7.82-12.67,14.94-21.34,19.2S305.62,285.39,296.81,281.41Z"/><path class="cls-1" d="M382.71,248.54c10.29,6.6,25.85-7.28,18.5-13.79-5.47.46-10.2,4.4-12.9,9.19s-3.7,10.33-4.33,15.79c-.54,4.58-.39,10.15,3.52,12.58,2.91,1.81,6.87,1,9.59-1.1s4.51-5.13,6.21-8.1"/><path class="cls-1" d="M434.42,224.33c-2.58-1-5.27-2-8-1.78s-5.58,2.1-5.94,4.84a7.4,7.4,0,0,0,1.68,5.08c3.29,4.58,8.52,7.27,13.08,10.58s8.86,8.09,8.68,13.73c-.19,6-5.68,10.78-11.54,12s-11.92-.51-17.46-2.76"/><path class="cls-1" d="M456.77,257.93a48.72,48.72,0,0,0-5-29.93"/><path class="cls-1" d="M444,210.67c4.69,0,12.21,3.57,14.23,7.6"/><path class="cls-1" d="M496.15,229.27c1.36-8-10.35-12.31-17.82-9s-10.27,13.39-7.13,20.92c1.45,3.48,4.23,6.7,7.93,7.37,4.83.88,9.35-2.8,12-6.9,5.22-8,6.3-17.88,6.73-27.39,16.3,36.24,24,78.79,9,115.6-1.78,4.37-4,8.79-7.79,11.6-5.56,4.12-13.45,3.83-19.77,1s-11.4-7.77-16.24-12.71c-3.84-3.91-7.72-8-9.61-13.18s-1.27-11.6,2.89-15.15"/><path class="cls-1" d="M527.45,244.92a234,234,0,0,0-3.87-48.42l4.3,46A99.64,99.64,0,0,1,541.23,200c2.08-3.54,4.48-7.06,8-9.25s8.28-2.72,11.6-.3c2.44,1.78,3.66,4.76,4.65,7.61a124.42,124.42,0,0,1,6.87,36.49"/><path class="cls-1" d="M21.75,123q22.17-13.59,45-26.11"/><path class="cls-1" d="M616.81,257.09c-10.18-8.21-13.22-24-6.83-35.42,4.2-7.49,11.53-12.58,18.15-18S641.24,191.5,642.55,183c15.94,8.46,24.3,28.34,20.83,46s-17.65,32.45-34.71,38.35c-.57.19-1.33.33-1.67-.17s.82-1.05.76-.45"/><path class="cls-1" d="M642,184.63a173.41,173.41,0,0,1-43.93,106.28"/><path class="cls-1" d="M478.34,85.94l-1.86-1.76c-4.6.47-7.41,3.64-9.18,6.58a40.9,40.9,0,0,0-6,18.33,6.35,6.35,0,0,0,.56,3.68,4.94,4.94,0,0,0,3.93,2.3c8.46-9.84,13.27-21.12,13.86-32.52a102.59,102.59,0,0,0,.21,27.62c.44,3.07,1.07,6.23,3.39,8.87"/><path class="cls-1" d="M496.88,83.35a160.48,160.48,0,0,1-.89,32.57c.6-7.47,1.22-15,3.83-22.06a26.29,26.29,0,0,1,5.7-9.46,15.47,15.47,0,0,1,9.79-4.75c1.57-.1,5.27.42,5.5,2"/></g></g></svg>