<svg xmlns="http://www.w3.org/2000/svg" viewBox="0 0 1024.24 70.72"><g data-name="Layer 2"><path style="fill:#d3efe9" d="m0 32.4 12.11 10.56 5.26 2.29 3.12 4.36 4.34 1.16H46.52l9.32-1.41L63 50.77l9.76-1.41 6.07 2.49 9.11-1.95 8.46 1.95 11.06-3.9 5.85 1.95 13.45-1.95h9.11l7.81-2.17 9.75 1.73 3.04-1.73 3.47-3.69 5.21-4.12 10.4-1.08 5.86-1.52 21.69 6.5 8.89.22 6.72-.22 8.03-2.6 16.69-.65 9.11 3.25 11.71-1.95 12.36-.87 8.68 2.39 12.58 4.77 6.07-1.08 12.58-4.77 10.19.65 6.07-1.96 14.32-2.16 8.02-2.82 15.4 1.52 10.84 5.63 13.01 1.74 6.73 6.29 6.72 4.77 8.02 9.54 6.29-.87 8.24-3.9 8.03-2.39 8.24-4.98 6.5 2.6 8.9 2.38h5.85l5.21-1.3 8.24 2.39 7.8-1.09h11.51L512 61.61l14.66-4.34 14.75 3.04 13.23-3.91 8.02 2.39 10.63.65 12.58.65 13.23 2.17 7.8-2.39 8.03.87 5.64-1.52 7.37 6.51 8.89.87 5.86 2.38h16.91l4.99-1.51 7.37 1.51 7.38-1.51 6.94 1.51 8.46-3.9h7.8l12.58-1.95 11.71.86 13.01-2.16 17.79 3.9 15.61 4.99 8.89-3.91 8.68.87L801 62.26l4.77-1.3 8.46 1.08 7.81-1.3 10.19.22 18.22-3.69 6.94 1.95 12.14-1.73 10.84 4.55 9.33-5.64 9.76 1.52 5.85 1.3 8.9-1.3 7.58 2.39 6.73-2.82 11.93.87 14.53-4.99 11.71 1.73 7.8-1.51 5.86 1.08 4.99-2.28 10.84 4.01h6.07l7.81-4.01 13.94-.47-3.85-6.7-.44-6.07 4.29-6.75V1.43L11.88 7.51 0 32.4z"/><path d="m1024.24 26.56-25.93 8.16-6.07-3.9-17.35 8.24L936.72 33l-15.61 6.07h-29.5l-20 8.68-19.95-6.08-40.72 11.27h-11.28L794 54.68h-9.1l-14.3 1.73-6.94-4.55-8.66-1.52-1.09-2.82-10.62 5.42-16.29.65-4.55-3.69-13.65 3.26-8-3-7.16-.22-2.81-3.25-3.91 2.17-4.12-2.39-10.44 2.13-10 .22-3.26 2.39-9.1-3.69-2.16-2.17-6.29 3-8.46-6.73-4.56 1.09-4.12-3-5 1.95-3.69-1.3-5.42 2.82-3.91-1.52-6.29 2.39-6.94-2.39h-7.59l-5-3-2.82 1.73-2.17-2.17-4.77 1.52-2-1.3v-5.67l-2 .65-3 3.69-2.82-2-3.25.87-1.74-1.09-4-6.24-4.77 4.56-3.69-1.52-1.73.65L539 30l-7.38 1.95-4.77-3-2.85 2.52-1.51.22-6.87-3.26v2.39l-4.41 2.82h-4.77l1.73-4.34-4.12-5.64-3.24-.86 1.94 3.47-.22 3.9-3.25-3-9.76.65-2.6-.21v-3.3l-5.62 1.09-.87 1.73-3.9-3v-2.85h-2.39l-3.25 1.3v-2.82l-2.17-.87v-3l-6.72-2.2 3.47 3-3.47 2.64-24.94 1.3-9.76 3.68-7.16-3.68-4.77 1.3v-1.3l-8.67 3.47-3.9 2.38v-3.25h-8.9l-5.42-1.73-5.2.86-2.39 1.09-4.55-1.52-8.89-2.17-8.9 1.74-1.3-3.91-6.72 3.69-6.94 3.25-.87 1.95-4.12-2.17-5.42 1.31-26-2.82-40.77 7.8-5-2.82-5.86.44-13.88-1.3-26.24 1.51-5.85-1.95-14.1 5.86-9.33-2-6.28 1.73-3.26-1.73-10.41 2.82-1.95-2-8.67 5.64v-3.38l-13.68 1.63-4.33-3.15s-6.08 4.13-6.94 4.34-8.24 1.95-8.24 1.95v-5.63L115 35.05l-4.12-3.8-6.72 3.8-6.94-1.63-5 1.63-4.12-1.41-4.34 2.6-6.5-1.19v-4.88l-2.82-.43-4.12 3.9-4.56-.22-1.5 2.58-5.85 2-7.81 2.15-2.6 2.6-.87 2.38L43 43.62l-5.42 2-5.58.6-3 .65-6.73-.44L.12 32.41 0 0h1024.22z" style="fill:#aec4c0"/></g></svg>