<svg xmlns="http://www.w3.org/2000/svg" viewBox="0 0 1024.24 70.72"><defs><style>.cls-1{fill:#d3efe9;}.cls-2{fill:#aec4c0;}</style></defs><g id="Layer_2" data-name="Layer 2"><g id="Layer_2-2" data-name="Layer 2"><polygon class="cls-1" points="0 32.4 12.11 42.96 17.37 45.25 20.49 49.61 24.83 50.77 30.9 50.77 46.52 50.77 55.84 49.36 63 50.77 72.76 49.36 78.83 51.85 87.94 49.9 96.4 51.85 107.46 47.95 113.31 49.9 126.76 47.95 135.87 47.95 143.68 45.78 153.43 47.51 156.47 45.78 159.94 42.09 165.15 37.97 175.55 36.89 181.41 35.37 203.1 41.87 211.99 42.09 218.71 41.87 226.74 39.27 243.43 38.62 252.54 41.87 264.25 39.92 276.61 39.05 285.29 41.44 297.87 46.21 303.94 45.13 316.52 40.36 326.71 41.01 332.78 39.05 347.1 36.89 355.12 34.07 370.52 35.59 381.36 41.22 394.37 42.96 401.1 49.25 407.82 54.02 415.84 63.56 422.13 62.69 430.37 58.79 438.4 56.4 446.64 51.42 453.14 54.02 462.04 56.4 467.89 56.4 473.1 55.1 481.34 57.49 489.14 56.4 500.65 56.4 512 61.61 526.66 57.27 541.41 60.31 554.64 56.4 562.66 58.79 573.29 59.44 585.87 60.09 599.1 62.26 606.9 59.87 614.93 60.74 620.57 59.22 627.94 65.73 636.83 66.6 642.69 68.98 659.6 68.98 664.59 67.47 671.96 68.98 679.34 67.47 686.28 68.98 694.74 65.08 702.54 65.08 715.12 63.13 726.83 63.99 739.84 61.83 757.63 65.73 773.24 70.72 782.13 66.81 790.81 67.68 801 62.26 805.77 60.96 814.23 62.04 822.04 60.74 832.23 60.96 850.45 57.27 857.39 59.22 869.53 57.49 880.37 62.04 889.7 56.4 899.46 57.92 905.31 59.22 914.21 57.92 921.79 60.31 928.52 57.49 940.45 58.36 954.98 53.37 966.69 55.1 974.49 53.59 980.35 54.67 985.34 52.39 996.18 56.4 1002.25 56.4 1010.06 52.39 1024 51.92 1020.15 45.22 1019.71 39.15 1024 32.4 1024 1.43 11.88 7.51 0 32.4"/><path class="cls-2" d="M1024.24,26.56l-25.93,8.16-6.07-3.9-17.35,8.24L936.72,33l-15.61,6.07h-29.5l-20,8.68-19.95-6.08L810.94,52.94H799.66L794,54.68h-9.1L770.6,56.41l-6.94-4.55L755,50.34l-1.09-2.82-10.62,5.42L727,53.59l-4.55-3.69L708.8,53.16l-8-3-7.16-.22-2.81-3.25-3.91,2.17-4.12-2.39L672.36,48.6l-10,.22-3.26,2.39L650,47.52l-2.16-2.17-6.29,3-8.46-6.73-4.56,1.09-4.12-3-5,1.95-3.69-1.3-5.42,2.82-3.91-1.52-6.29,2.39-6.94-2.39h-7.59l-5-3-2.82,1.73-2.17-2.17-4.77,1.52-2-1.3V32.77l-2,.65-3,3.69-2.82-2-3.25.87-1.74-1.09L552,28.65l-4.77,4.56-3.69-1.52-1.73.65L539,30l-7.38,1.95-4.77-3L524,31.47l-1.51.22-6.87-3.26v2.39l-4.41,2.82h-4.77l1.73-4.34-4.12-5.64-3.24-.86,1.94,3.47-.22,3.9-3.25-3-9.76.65-2.6-.21V24.31L481.3,25.4l-.87,1.73-3.9-3V21.28h-2.39l-3.25,1.3V19.76l-2.17-.87v-3L462,13.69l3.47,3L462,19.33l-24.94,1.3-9.76,3.68-7.16-3.68-4.77,1.3v-1.3L406.7,24.1l-3.9,2.38V23.23h-8.9l-5.42-1.73-5.2.86-2.39,1.09-4.55-1.52-8.89-2.17-8.9,1.74-1.3-3.91-6.72,3.69-6.94,3.25-.87,1.95-4.12-2.17-5.42,1.31-26-2.82-40.77,7.8-5-2.82-5.86.44-13.88-1.3-26.24,1.51-5.85-1.95-14.1,5.86-9.33-2-6.28,1.73-3.26-1.73-10.41,2.82-1.95-2-8.67,5.64V33.42L141.9,35.05l-4.33-3.15s-6.08,4.13-6.94,4.34-8.24,1.95-8.24,1.95V32.56L115,35.05l-4.12-3.8-6.72,3.8-6.94-1.63-5,1.63-4.12-1.41-4.34,2.6-6.5-1.19V30.17l-2.82-.43-4.12,3.9-4.56-.22L64.26,36,58.41,38,50.6,40.15,48,42.75l-.87,2.38L43,43.62l-5.42,2L32,46.22l-3,.65-6.73-.44L.12,32.41,0,0,1024.22,0Z"/></g></g></svg>