<svg width="164" height="387" viewBox="0 0 164 387" fill="none" xmlns="http://www.w3.org/2000/svg">
<ellipse cx="82" cy="193.5" rx="82" ry="193.5" fill="#E9E9E9"/>
<path d="M71.0291 195H69.2677C69.1636 194.493 68.9813 194.048 68.7209 193.665C68.4652 193.281 68.1527 192.959 67.7834 192.699C67.4188 192.434 67.0139 192.235 66.5689 192.102C66.1238 191.97 65.6598 191.903 65.1768 191.903C64.2961 191.903 63.4983 192.126 62.7834 192.571C62.0731 193.016 61.5073 193.672 61.0859 194.538C60.6693 195.405 60.4609 196.468 60.4609 197.727C60.4609 198.987 60.6693 200.05 61.0859 200.916C61.5073 201.783 62.0731 202.438 62.7834 202.884C63.4983 203.329 64.2961 203.551 65.1768 203.551C65.6598 203.551 66.1238 203.485 66.5689 203.352C67.0139 203.22 67.4188 203.023 67.7834 202.763C68.1527 202.498 68.4652 202.173 68.7209 201.79C68.9813 201.402 69.1636 200.956 69.2677 200.455H71.0291C70.8965 201.198 70.655 201.863 70.3047 202.45C69.9543 203.037 69.5187 203.537 68.9979 203.949C68.477 204.356 67.8923 204.666 67.2436 204.879C66.5996 205.092 65.9107 205.199 65.1768 205.199C63.9363 205.199 62.8331 204.896 61.8672 204.29C60.9013 203.684 60.1413 202.822 59.5873 201.705C59.0334 200.587 58.7564 199.261 58.7564 197.727C58.7564 196.193 59.0334 194.867 59.5873 193.75C60.1413 192.633 60.9013 191.771 61.8672 191.165C62.8331 190.559 63.9363 190.256 65.1768 190.256C65.9107 190.256 66.5996 190.362 67.2436 190.575C67.8923 190.788 68.477 191.101 68.9979 191.513C69.5187 191.92 69.9543 192.417 70.3047 193.004C70.655 193.587 70.8965 194.252 71.0291 195ZM76.8583 205.256C76.167 205.256 75.5396 205.125 74.9762 204.865C74.4127 204.6 73.9653 204.219 73.6339 203.722C73.3024 203.22 73.1367 202.614 73.1367 201.903C73.1367 201.278 73.2598 200.772 73.506 200.384C73.7522 199.991 74.0813 199.683 74.4932 199.46C74.9052 199.238 75.3597 199.072 75.8569 198.963C76.3588 198.849 76.863 198.759 77.3697 198.693C78.0325 198.608 78.5699 198.544 78.9819 198.501C79.3985 198.454 79.7016 198.376 79.891 198.267C80.0851 198.158 80.1822 197.969 80.1822 197.699V197.642C80.1822 196.941 79.9904 196.397 79.6069 196.009C79.2281 195.62 78.6528 195.426 77.881 195.426C77.0808 195.426 76.4535 195.601 75.9989 195.952C75.5444 196.302 75.2248 196.676 75.0401 197.074L73.4492 196.506C73.7333 195.843 74.1121 195.327 74.5856 194.957C75.0638 194.583 75.5846 194.323 76.1481 194.176C76.7162 194.025 77.275 193.949 77.8242 193.949C78.1746 193.949 78.577 193.991 79.0316 194.077C79.4909 194.157 79.9336 194.325 80.3597 194.581C80.7906 194.837 81.1481 195.223 81.4322 195.739C81.7162 196.255 81.8583 196.946 81.8583 197.812V205H80.1822V203.523H80.0969C79.9833 203.759 79.7939 204.013 79.5287 204.283C79.2636 204.553 78.9108 204.782 78.4705 204.972C78.0302 205.161 77.4928 205.256 76.8583 205.256ZM77.114 203.75C77.7769 203.75 78.3356 203.62 78.7901 203.359C79.2494 203.099 79.595 202.763 79.827 202.351C80.0638 201.939 80.1822 201.506 80.1822 201.051V199.517C80.1111 199.602 79.9549 199.68 79.7134 199.751C79.4767 199.818 79.202 199.877 78.8895 199.929C78.5818 199.976 78.2811 200.019 77.9876 200.057C77.6987 200.09 77.4644 200.118 77.2844 200.142C76.8488 200.199 76.4416 200.291 76.0628 200.419C75.6888 200.542 75.3858 200.729 75.1537 200.98C74.9265 201.226 74.8128 201.562 74.8128 201.989C74.8128 202.571 75.0283 203.011 75.4591 203.31C75.8947 203.603 76.4464 203.75 77.114 203.75ZM92.6449 196.534L91.1392 196.96C91.0445 196.709 90.9048 196.465 90.7202 196.229C90.5402 195.987 90.294 195.788 89.9815 195.632C89.669 195.476 89.2689 195.398 88.7812 195.398C88.1136 195.398 87.5573 195.552 87.1122 195.859C86.6719 196.162 86.4517 196.548 86.4517 197.017C86.4517 197.434 86.6032 197.763 86.9062 198.004C87.2093 198.246 87.6827 198.447 88.3267 198.608L89.946 199.006C90.9214 199.242 91.6482 199.605 92.1264 200.092C92.6046 200.575 92.8437 201.198 92.8437 201.96C92.8437 202.585 92.6638 203.144 92.304 203.636C91.9488 204.129 91.4517 204.517 90.8125 204.801C90.1733 205.085 89.4299 205.227 88.5824 205.227C87.4697 205.227 86.5487 204.986 85.8196 204.503C85.0904 204.02 84.6288 203.314 84.4346 202.386L86.0255 201.989C86.1771 202.576 86.4635 203.016 86.8849 203.31C87.3111 203.603 87.8674 203.75 88.554 203.75C89.3352 203.75 89.9555 203.584 90.4148 203.253C90.8788 202.917 91.1108 202.514 91.1108 202.045C91.1108 201.667 90.9782 201.349 90.713 201.094C90.4479 200.833 90.0407 200.639 89.4915 200.511L87.6733 200.085C86.6742 199.848 85.9403 199.482 85.4716 198.984C85.0076 198.482 84.7755 197.855 84.7755 197.102C84.7755 196.487 84.9484 195.942 85.294 195.469C85.6444 194.995 86.1202 194.624 86.7216 194.354C87.3276 194.084 88.0142 193.949 88.7812 193.949C89.8608 193.949 90.7083 194.186 91.3238 194.659C91.9441 195.133 92.3845 195.758 92.6449 196.534ZM99.9407 205.227C98.8895 205.227 97.9828 204.995 97.2205 204.531C96.4629 204.062 95.8782 203.409 95.4662 202.571C95.059 201.728 94.8554 200.748 94.8554 199.631C94.8554 198.513 95.059 197.528 95.4662 196.676C95.8782 195.819 96.4511 195.152 97.185 194.673C97.9236 194.19 98.7854 193.949 99.7702 193.949C100.338 193.949 100.899 194.044 101.453 194.233C102.007 194.422 102.512 194.73 102.966 195.156C103.421 195.578 103.783 196.136 104.053 196.832C104.323 197.528 104.458 198.385 104.458 199.403V200.114H96.0486V198.665H102.753C102.753 198.049 102.63 197.5 102.384 197.017C102.142 196.534 101.797 196.153 101.347 195.874C100.902 195.594 100.376 195.455 99.7702 195.455C99.1026 195.455 98.525 195.62 98.0373 195.952C97.5543 196.278 97.1826 196.705 96.9222 197.23C96.6618 197.756 96.5316 198.319 96.5316 198.92V199.886C96.5316 200.71 96.6736 201.409 96.9577 201.982C97.2465 202.55 97.6466 202.983 98.158 203.281C98.6694 203.575 99.2636 203.722 99.9407 203.722C100.381 203.722 100.779 203.66 101.134 203.537C101.494 203.409 101.804 203.22 102.064 202.969C102.325 202.713 102.526 202.396 102.668 202.017L104.287 202.472C104.117 203.021 103.83 203.504 103.428 203.92C103.025 204.332 102.528 204.654 101.936 204.886C101.345 205.114 100.679 205.227 99.9407 205.227ZM63.6365 218.091C63.5513 217.371 63.2057 216.812 62.5996 216.415C61.9935 216.017 61.2502 215.818 60.3695 215.818C59.7255 215.818 59.1621 215.922 58.6791 216.131C58.2009 216.339 57.8269 216.625 57.557 216.99C57.2918 217.355 57.1592 217.769 57.1592 218.233C57.1592 218.621 57.2516 218.955 57.4362 219.234C57.6256 219.509 57.8671 219.739 58.1607 219.923C58.4542 220.103 58.762 220.252 59.084 220.371C59.4059 220.484 59.7019 220.577 59.9717 220.648L61.449 221.045C61.8278 221.145 62.2492 221.282 62.7132 221.457C63.182 221.633 63.6294 221.872 64.0556 222.175C64.4864 222.473 64.8415 222.857 65.1209 223.325C65.4003 223.794 65.5399 224.369 65.5399 225.051C65.5399 225.837 65.334 226.547 64.922 227.182C64.5148 227.816 63.9182 228.321 63.1323 228.695C62.351 229.069 61.4017 229.256 60.2842 229.256C59.2426 229.256 58.3406 229.088 57.5783 228.751C56.8207 228.415 56.2241 227.946 55.7885 227.345C55.3576 226.744 55.1138 226.045 55.057 225.25H56.8752C56.9225 225.799 57.1072 226.254 57.4291 226.614C57.7558 226.969 58.1678 227.234 58.6649 227.409C59.1668 227.58 59.7066 227.665 60.2842 227.665C60.9566 227.665 61.5603 227.556 62.0953 227.338C62.6304 227.116 63.0541 226.808 63.3666 226.415C63.6791 226.017 63.8354 225.553 63.8354 225.023C63.8354 224.54 63.7004 224.147 63.4306 223.844C63.1607 223.541 62.8056 223.295 62.3652 223.105C61.9249 222.916 61.449 222.75 60.9377 222.608L59.1479 222.097C58.0115 221.77 57.1119 221.304 56.449 220.697C55.7861 220.091 55.4547 219.298 55.4547 218.318C55.4547 217.504 55.6749 216.794 56.1152 216.188C56.5603 215.577 57.1569 215.103 57.905 214.767C58.6578 214.426 59.4983 214.256 60.4263 214.256C61.3638 214.256 62.1971 214.424 62.9263 214.76C63.6555 215.091 64.2331 215.546 64.6592 216.124C65.0901 216.701 65.3174 217.357 65.3411 218.091H63.6365ZM72.9529 218.091V219.511H67.2995V218.091H72.9529ZM68.9472 215.477H70.6234V225.875C70.6234 226.348 70.692 226.704 70.8293 226.94C70.9714 227.172 71.1513 227.329 71.3691 227.409C71.5917 227.485 71.826 227.523 72.0722 227.523C72.2569 227.523 72.4084 227.513 72.5268 227.494C72.6452 227.471 72.7399 227.452 72.8109 227.438L73.1518 228.943C73.0382 228.986 72.8795 229.028 72.6759 229.071C72.4723 229.118 72.2143 229.142 71.9018 229.142C71.4283 229.142 70.9643 229.04 70.5097 228.837C70.0599 228.633 69.6859 228.323 69.3876 227.906C69.094 227.49 68.9472 226.964 68.9472 226.33V215.477ZM82.3492 224.54V218.091H84.0254V229H82.3492V227.153H82.2356C81.9799 227.707 81.5822 228.179 81.0424 228.567C80.5026 228.95 79.8208 229.142 78.997 229.142C78.3151 229.142 77.7091 228.993 77.1788 228.695C76.6485 228.392 76.2318 227.937 75.9288 227.331C75.6257 226.72 75.4742 225.951 75.4742 225.023V218.091H77.1504V224.909C77.1504 225.705 77.3729 226.339 77.818 226.812C78.2678 227.286 78.8407 227.523 79.5367 227.523C79.9534 227.523 80.3772 227.416 80.808 227.203C81.2436 226.99 81.6082 226.663 81.9018 226.223C82.2001 225.783 82.3492 225.222 82.3492 224.54ZM91.2146 229.227C90.3056 229.227 89.503 228.998 88.807 228.538C88.111 228.074 87.5664 227.421 87.1735 226.578C86.7805 225.731 86.584 224.729 86.584 223.574C86.584 222.428 86.7805 221.434 87.1735 220.591C87.5664 219.748 88.1133 219.097 88.8141 218.638C89.5148 218.179 90.3245 217.949 91.2431 217.949C91.9533 217.949 92.5144 218.067 92.9263 218.304C93.343 218.536 93.6602 218.801 93.878 219.099C94.1005 219.393 94.2734 219.634 94.3965 219.824H94.5385V214.455H96.2146V229H94.5953V227.324H94.3965C94.2734 227.523 94.0982 227.774 93.8709 228.077C93.6436 228.375 93.3193 228.643 92.8979 228.879C92.4765 229.111 91.9154 229.227 91.2146 229.227ZM91.4419 227.722C92.1143 227.722 92.6824 227.546 93.1465 227.196C93.6105 226.841 93.9632 226.351 94.2047 225.726C94.4462 225.096 94.5669 224.369 94.5669 223.545C94.5669 222.731 94.4485 222.018 94.2118 221.408C93.9751 220.792 93.6247 220.314 93.1607 219.973C92.6967 219.627 92.1237 219.455 91.4419 219.455C90.7317 219.455 90.1398 219.637 89.6664 220.001C89.1976 220.361 88.8449 220.851 88.6081 221.472C88.3761 222.087 88.2601 222.778 88.2601 223.545C88.2601 224.322 88.3785 225.027 88.6152 225.662C88.8567 226.292 89.2118 226.794 89.6806 227.168C90.154 227.537 90.7412 227.722 91.4419 227.722ZM100.597 233.091C100.313 233.091 100.059 233.067 99.8368 233.02C99.6143 232.977 99.4604 232.935 99.3752 232.892L99.8013 231.415C100.208 231.519 100.568 231.557 100.881 231.528C101.193 231.5 101.47 231.36 101.712 231.109C101.958 230.863 102.183 230.463 102.387 229.909L102.699 229.057L98.6649 218.091H100.483L103.494 226.784H103.608L106.619 218.091H108.438L103.807 230.591C103.599 231.154 103.341 231.621 103.033 231.99C102.725 232.364 102.368 232.641 101.96 232.821C101.558 233.001 101.103 233.091 100.597 233.091ZM56.4748 243C56.3185 242.522 56.1126 242.093 55.8569 241.714C55.6059 241.331 55.3053 241.004 54.9549 240.734C54.6092 240.464 54.2162 240.259 53.7759 240.116C53.3356 239.974 52.8526 239.903 52.327 239.903C51.4653 239.903 50.6817 240.126 49.9762 240.571C49.2707 241.016 48.7096 241.672 48.2929 242.538C47.8763 243.405 47.6679 244.468 47.6679 245.727C47.6679 246.987 47.8786 248.05 48.3001 248.916C48.7215 249.783 49.292 250.438 50.0117 250.884C50.7314 251.329 51.5411 251.551 52.4407 251.551C53.274 251.551 54.0079 251.374 54.6424 251.018C55.2816 250.659 55.7787 250.152 56.1339 249.499C56.4937 248.84 56.6736 248.066 56.6736 247.176L57.2134 247.29H52.8384V245.727H58.3782V247.29C58.3782 248.488 58.1225 249.529 57.6111 250.415C57.1045 251.3 56.4037 251.987 55.5089 252.474C54.6187 252.957 53.596 253.199 52.4407 253.199C51.1528 253.199 50.0212 252.896 49.0458 252.29C48.0751 251.684 47.3176 250.822 46.7731 249.705C46.2333 248.587 45.9634 247.261 45.9634 245.727C45.9634 244.577 46.1173 243.542 46.4251 242.624C46.7376 241.7 47.1779 240.914 47.7461 240.266C48.3143 239.617 48.9866 239.12 49.7631 238.774C50.5396 238.429 51.3943 238.256 52.327 238.256C53.0941 238.256 53.809 238.372 54.4719 238.604C55.1395 238.831 55.7338 239.155 56.2546 239.577C56.7802 239.993 57.2181 240.493 57.5685 241.075C57.9189 241.653 58.1604 242.295 58.2929 243H56.4748ZM61.1676 253V242.091H62.7869V243.739H62.9005C63.0994 243.199 63.4593 242.761 63.9801 242.425C64.5009 242.089 65.088 241.92 65.7415 241.92C65.8646 241.92 66.0184 241.923 66.2031 241.928C66.3878 241.932 66.5274 241.939 66.6221 241.949V243.653C66.5653 243.639 66.4351 243.618 66.2315 243.589C66.0327 243.556 65.822 243.54 65.5994 243.54C65.0691 243.54 64.5956 243.651 64.179 243.874C63.767 244.091 63.4403 244.394 63.1988 244.783C62.9621 245.166 62.8437 245.604 62.8437 246.097V253H61.1676ZM71.8192 253.256C71.1279 253.256 70.5006 253.125 69.9371 252.865C69.3737 252.6 68.9262 252.219 68.5948 251.722C68.2634 251.22 68.0976 250.614 68.0976 249.903C68.0976 249.278 68.2207 248.772 68.467 248.384C68.7132 247.991 69.0422 247.683 69.4542 247.46C69.8661 247.238 70.3206 247.072 70.8178 246.963C71.3197 246.849 71.824 246.759 72.3306 246.693C72.9935 246.608 73.5309 246.544 73.9428 246.501C74.3595 246.454 74.6625 246.376 74.8519 246.267C75.046 246.158 75.1431 245.969 75.1431 245.699V245.642C75.1431 244.941 74.9513 244.397 74.5678 244.009C74.189 243.62 73.6137 243.426 72.842 243.426C72.0418 243.426 71.4144 243.601 70.9599 243.952C70.5053 244.302 70.1857 244.676 70.001 245.074L68.4101 244.506C68.6942 243.843 69.073 243.327 69.5465 242.957C70.0247 242.583 70.5456 242.323 71.109 242.176C71.6772 242.025 72.2359 241.949 72.7851 241.949C73.1355 241.949 73.538 241.991 73.9925 242.077C74.4518 242.157 74.8945 242.325 75.3206 242.581C75.7515 242.837 76.109 243.223 76.3931 243.739C76.6772 244.255 76.8192 244.946 76.8192 245.812V253H75.1431V251.523H75.0579C74.9442 251.759 74.7548 252.013 74.4897 252.283C74.2245 252.553 73.8718 252.782 73.4314 252.972C72.9911 253.161 72.4537 253.256 71.8192 253.256ZM72.0749 251.75C72.7378 251.75 73.2965 251.62 73.751 251.359C74.2103 251.099 74.556 250.763 74.788 250.351C75.0247 249.939 75.1431 249.506 75.1431 249.051V247.517C75.0721 247.602 74.9158 247.68 74.6743 247.751C74.4376 247.818 74.163 247.877 73.8505 247.929C73.5427 247.976 73.242 248.019 72.9485 248.057C72.6597 248.09 72.4253 248.118 72.2454 248.142C71.8098 248.199 71.4026 248.291 71.0238 248.419C70.6497 248.542 70.3467 248.729 70.1147 248.98C69.8874 249.226 69.7738 249.562 69.7738 249.989C69.7738 250.571 69.9892 251.011 70.4201 251.31C70.8557 251.603 71.4073 251.75 72.0749 251.75ZM79.8785 257.091V242.091H81.4978V243.824H81.6967C81.8198 243.634 81.9903 243.393 82.2081 243.099C82.4306 242.801 82.7478 242.536 83.1598 242.304C83.5764 242.067 84.1399 241.949 84.8501 241.949C85.7687 241.949 86.5783 242.179 87.2791 242.638C87.9799 243.097 88.5267 243.748 88.9197 244.591C89.3127 245.434 89.5092 246.428 89.5092 247.574C89.5092 248.729 89.3127 249.731 88.9197 250.578C88.5267 251.421 87.9822 252.074 87.2862 252.538C86.5902 252.998 85.7876 253.227 84.8785 253.227C84.1778 253.227 83.6167 253.111 83.1953 252.879C82.7739 252.643 82.4496 252.375 82.2223 252.077C81.995 251.774 81.8198 251.523 81.6967 251.324H81.5547V257.091H79.8785ZM81.5263 247.545C81.5263 248.369 81.647 249.096 81.8885 249.726C82.13 250.351 82.4827 250.841 82.9467 251.196C83.4107 251.546 83.9789 251.722 84.6513 251.722C85.352 251.722 85.9368 251.537 86.4055 251.168C86.879 250.794 87.2341 250.292 87.4709 249.662C87.7123 249.027 87.8331 248.322 87.8331 247.545C87.8331 246.778 87.7147 246.087 87.478 245.472C87.246 244.851 86.8932 244.361 86.4197 244.001C85.951 243.637 85.3615 243.455 84.6513 243.455C83.9694 243.455 83.3965 243.627 82.9325 243.973C82.4685 244.314 82.1181 244.792 81.8814 245.408C81.6446 246.018 81.5263 246.731 81.5263 247.545ZM93.7422 246.438V253H92.066V238.455H93.7422V243.795H93.8842C94.1399 243.232 94.5234 242.785 95.0348 242.453C95.5509 242.117 96.2374 241.949 97.0944 241.949C97.8378 241.949 98.4889 242.098 99.0476 242.396C99.6063 242.69 100.04 243.142 100.347 243.753C100.66 244.359 100.816 245.131 100.816 246.068V253H99.1399V246.182C99.1399 245.315 98.915 244.645 98.4652 244.172C98.0201 243.694 97.4022 243.455 96.6115 243.455C96.0622 243.455 95.5698 243.571 95.1342 243.803C94.7033 244.035 94.3624 244.373 94.1115 244.818C93.8653 245.263 93.7422 245.803 93.7422 246.438ZM103.882 253V242.091H105.559V253H103.882ZM104.735 240.273C104.408 240.273 104.126 240.161 103.89 239.939C103.658 239.716 103.542 239.449 103.542 239.136C103.542 238.824 103.658 238.556 103.89 238.334C104.126 238.111 104.408 238 104.735 238C105.061 238 105.341 238.111 105.573 238.334C105.81 238.556 105.928 238.824 105.928 239.136C105.928 239.449 105.81 239.716 105.573 239.939C105.341 240.161 105.061 240.273 104.735 240.273ZM113.06 253.227C112.038 253.227 111.157 252.986 110.418 252.503C109.68 252.02 109.111 251.355 108.714 250.507C108.316 249.66 108.117 248.691 108.117 247.602C108.117 246.494 108.321 245.517 108.728 244.669C109.14 243.817 109.713 243.152 110.447 242.673C111.185 242.19 112.047 241.949 113.032 241.949C113.799 241.949 114.49 242.091 115.106 242.375C115.721 242.659 116.226 243.057 116.619 243.568C117.012 244.08 117.255 244.676 117.35 245.358H115.674C115.546 244.861 115.262 244.42 114.822 244.037C114.386 243.649 113.799 243.455 113.06 243.455C112.407 243.455 111.834 243.625 111.342 243.966C110.854 244.302 110.473 244.778 110.198 245.393C109.928 246.004 109.793 246.722 109.793 247.545C109.793 248.388 109.926 249.122 110.191 249.747C110.461 250.372 110.84 250.857 111.327 251.203C111.82 251.549 112.397 251.722 113.06 251.722C113.496 251.722 113.891 251.646 114.246 251.494C114.602 251.343 114.902 251.125 115.148 250.841C115.395 250.557 115.57 250.216 115.674 249.818H117.35C117.255 250.462 117.021 251.042 116.647 251.558C116.278 252.07 115.788 252.477 115.177 252.78C114.571 253.078 113.865 253.227 113.06 253.227Z" fill="black"/>
</svg>
