<svg width="1440" height="740" viewBox="0 0 1440 740" fill="none" xmlns="http://www.w3.org/2000/svg">
<rect y="41" width="1440" height="669" fill="#8D8D8D"/>
<rect y="703" width="1440" height="37" fill="#D9D9D9"/>
<path d="M652.6 733.318C651.79 733.318 651.094 733.214 650.512 733.006C649.929 732.802 649.444 732.532 649.056 732.196C648.672 731.865 648.367 731.509 648.139 731.131L649.475 730.193C649.626 730.392 649.818 730.619 650.05 730.875C650.282 731.135 650.599 731.36 651.002 731.55C651.409 731.744 651.941 731.841 652.6 731.841C653.48 731.841 654.207 731.628 654.78 731.202C655.353 730.776 655.639 730.108 655.639 729.199V726.983H655.497C655.374 727.182 655.199 727.428 654.972 727.722C654.749 728.01 654.427 728.268 654.006 728.496C653.589 728.718 653.026 728.83 652.316 728.83C651.435 728.83 650.644 728.621 649.943 728.205C649.247 727.788 648.696 727.182 648.289 726.386C647.886 725.591 647.685 724.625 647.685 723.489C647.685 722.371 647.881 721.398 648.274 720.57C648.667 719.736 649.214 719.092 649.915 718.638C650.616 718.179 651.425 717.949 652.344 717.949C653.054 717.949 653.618 718.067 654.034 718.304C654.456 718.536 654.778 718.801 655 719.099C655.227 719.393 655.403 719.634 655.526 719.824H655.696V718.091H657.316V729.312C657.316 730.25 657.102 731.012 656.676 731.599C656.255 732.191 655.687 732.625 654.972 732.899C654.262 733.179 653.471 733.318 652.6 733.318ZM652.543 727.324C653.215 727.324 653.783 727.17 654.247 726.862C654.711 726.554 655.064 726.112 655.306 725.534C655.547 724.956 655.668 724.265 655.668 723.46C655.668 722.674 655.549 721.981 655.313 721.379C655.076 720.778 654.726 720.307 654.262 719.966C653.798 719.625 653.225 719.455 652.543 719.455C651.833 719.455 651.241 719.634 650.767 719.994C650.298 720.354 649.946 720.837 649.709 721.443C649.477 722.049 649.361 722.722 649.361 723.46C649.361 724.218 649.479 724.888 649.716 725.47C649.958 726.048 650.313 726.502 650.781 726.834C651.255 727.161 651.842 727.324 652.543 727.324ZM660.384 729V718.091H662.003V719.739H662.117C662.316 719.199 662.675 718.761 663.196 718.425C663.717 718.089 664.304 717.92 664.958 717.92C665.081 717.92 665.235 717.923 665.419 717.928C665.604 717.932 665.744 717.939 665.838 717.949V719.653C665.781 719.639 665.651 719.618 665.448 719.589C665.249 719.556 665.038 719.54 664.816 719.54C664.285 719.54 663.812 719.651 663.395 719.874C662.983 720.091 662.656 720.394 662.415 720.783C662.178 721.166 662.06 721.604 662.06 722.097V729H660.384ZM671.035 729.256C670.344 729.256 669.717 729.125 669.153 728.865C668.59 728.6 668.142 728.219 667.811 727.722C667.479 727.22 667.314 726.614 667.314 725.903C667.314 725.278 667.437 724.772 667.683 724.384C667.929 723.991 668.258 723.683 668.67 723.46C669.082 723.238 669.537 723.072 670.034 722.963C670.536 722.849 671.04 722.759 671.547 722.693C672.21 722.608 672.747 722.544 673.159 722.501C673.576 722.454 673.879 722.376 674.068 722.267C674.262 722.158 674.359 721.969 674.359 721.699V721.642C674.359 720.941 674.167 720.397 673.784 720.009C673.405 719.62 672.83 719.426 672.058 719.426C671.258 719.426 670.631 719.601 670.176 719.952C669.721 720.302 669.402 720.676 669.217 721.074L667.626 720.506C667.91 719.843 668.289 719.327 668.763 718.957C669.241 718.583 669.762 718.323 670.325 718.176C670.893 718.025 671.452 717.949 672.001 717.949C672.352 717.949 672.754 717.991 673.209 718.077C673.668 718.157 674.111 718.325 674.537 718.581C674.968 718.837 675.325 719.223 675.609 719.739C675.893 720.255 676.035 720.946 676.035 721.812V729H674.359V727.523H674.274C674.16 727.759 673.971 728.013 673.706 728.283C673.441 728.553 673.088 728.782 672.648 728.972C672.207 729.161 671.67 729.256 671.035 729.256ZM671.291 727.75C671.954 727.75 672.513 727.62 672.967 727.359C673.426 727.099 673.772 726.763 674.004 726.351C674.241 725.939 674.359 725.506 674.359 725.051V723.517C674.288 723.602 674.132 723.68 673.89 723.751C673.654 723.818 673.379 723.877 673.067 723.929C672.759 723.976 672.458 724.019 672.165 724.057C671.876 724.09 671.641 724.118 671.461 724.142C671.026 724.199 670.619 724.291 670.24 724.419C669.866 724.542 669.563 724.729 669.331 724.98C669.104 725.226 668.99 725.562 668.99 725.989C668.99 726.571 669.205 727.011 669.636 727.31C670.072 727.603 670.623 727.75 671.291 727.75ZM679.095 733.091V718.091H680.714V719.824H680.913C681.036 719.634 681.206 719.393 681.424 719.099C681.647 718.801 681.964 718.536 682.376 718.304C682.793 718.067 683.356 717.949 684.066 717.949C684.985 717.949 685.794 718.179 686.495 718.638C687.196 719.097 687.743 719.748 688.136 720.591C688.529 721.434 688.725 722.428 688.725 723.574C688.725 724.729 688.529 725.731 688.136 726.578C687.743 727.421 687.198 728.074 686.502 728.538C685.806 728.998 685.004 729.227 684.095 729.227C683.394 729.227 682.833 729.111 682.411 728.879C681.99 728.643 681.666 728.375 681.438 728.077C681.211 727.774 681.036 727.523 680.913 727.324H680.771V733.091H679.095ZM680.742 723.545C680.742 724.369 680.863 725.096 681.105 725.726C681.346 726.351 681.699 726.841 682.163 727.196C682.627 727.546 683.195 727.722 683.867 727.722C684.568 727.722 685.153 727.537 685.622 727.168C686.095 726.794 686.45 726.292 686.687 725.662C686.928 725.027 687.049 724.322 687.049 723.545C687.049 722.778 686.931 722.087 686.694 721.472C686.462 720.851 686.109 720.361 685.636 720.001C685.167 719.637 684.578 719.455 683.867 719.455C683.186 719.455 682.613 719.627 682.149 719.973C681.685 720.314 681.334 720.792 681.097 721.408C680.861 722.018 680.742 722.731 680.742 723.545ZM692.958 722.438V729H691.282V714.455H692.958V719.795H693.1C693.356 719.232 693.74 718.785 694.251 718.453C694.767 718.117 695.454 717.949 696.311 717.949C697.054 717.949 697.705 718.098 698.264 718.396C698.822 718.69 699.256 719.142 699.563 719.753C699.876 720.359 700.032 721.131 700.032 722.068V729H698.356V722.182C698.356 721.315 698.131 720.645 697.681 720.172C697.236 719.694 696.618 719.455 695.828 719.455C695.278 719.455 694.786 719.571 694.35 719.803C693.919 720.035 693.579 720.373 693.328 720.818C693.081 721.263 692.958 721.803 692.958 722.438ZM703.099 729V718.091H704.775V729H703.099ZM703.951 716.273C703.624 716.273 703.342 716.161 703.106 715.939C702.874 715.716 702.758 715.449 702.758 715.136C702.758 714.824 702.874 714.556 703.106 714.334C703.342 714.111 703.624 714 703.951 714C704.278 714 704.557 714.111 704.789 714.334C705.026 714.556 705.144 714.824 705.144 715.136C705.144 715.449 705.026 715.716 704.789 715.939C704.557 716.161 704.278 716.273 703.951 716.273ZM712.276 729.227C711.254 729.227 710.373 728.986 709.634 728.503C708.896 728.02 708.328 727.355 707.93 726.507C707.532 725.66 707.333 724.691 707.333 723.602C707.333 722.494 707.537 721.517 707.944 720.669C708.356 719.817 708.929 719.152 709.663 718.673C710.401 718.19 711.263 717.949 712.248 717.949C713.015 717.949 713.706 718.091 714.322 718.375C714.937 718.659 715.442 719.057 715.835 719.568C716.228 720.08 716.472 720.676 716.566 721.358H714.89C714.762 720.861 714.478 720.42 714.038 720.037C713.602 719.649 713.015 719.455 712.276 719.455C711.623 719.455 711.05 719.625 710.558 719.966C710.07 720.302 709.689 720.778 709.414 721.393C709.144 722.004 709.009 722.722 709.009 723.545C709.009 724.388 709.142 725.122 709.407 725.747C709.677 726.372 710.056 726.857 710.544 727.203C711.036 727.549 711.614 727.722 712.276 727.722C712.712 727.722 713.107 727.646 713.463 727.494C713.818 727.343 714.118 727.125 714.365 726.841C714.611 726.557 714.786 726.216 714.89 725.818H716.566C716.472 726.462 716.237 727.042 715.863 727.558C715.494 728.07 715.004 728.477 714.393 728.78C713.787 729.078 713.081 729.227 712.276 729.227ZM724.869 729V714.455H726.545V719.824H726.687C726.81 719.634 726.981 719.393 727.198 719.099C727.421 718.801 727.738 718.536 728.15 718.304C728.567 718.067 729.13 717.949 729.84 717.949C730.759 717.949 731.569 718.179 732.269 718.638C732.97 719.097 733.517 719.748 733.91 720.591C734.303 721.434 734.499 722.428 734.499 723.574C734.499 724.729 734.303 725.731 733.91 726.578C733.517 727.421 732.972 728.074 732.276 728.538C731.58 728.998 730.778 729.227 729.869 729.227C729.168 729.227 728.607 729.111 728.186 728.879C727.764 728.643 727.44 728.375 727.213 728.077C726.985 727.774 726.81 727.523 726.687 727.324H726.488V729H724.869ZM726.517 723.545C726.517 724.369 726.637 725.096 726.879 725.726C727.12 726.351 727.473 726.841 727.937 727.196C728.401 727.546 728.969 727.722 729.642 727.722C730.342 727.722 730.927 727.537 731.396 727.168C731.869 726.794 732.224 726.292 732.461 725.662C732.703 725.027 732.823 724.322 732.823 723.545C732.823 722.778 732.705 722.087 732.468 721.472C732.236 720.851 731.883 720.361 731.41 720.001C730.941 719.637 730.352 719.455 729.642 719.455C728.96 719.455 728.387 719.627 727.923 719.973C727.459 720.314 727.108 720.792 726.872 721.408C726.635 722.018 726.517 722.731 726.517 723.545ZM737.063 729V718.091H738.683V719.739H738.796C738.995 719.199 739.355 718.761 739.876 718.425C740.397 718.089 740.984 717.92 741.637 717.92C741.76 717.92 741.914 717.923 742.099 717.928C742.284 717.932 742.423 717.939 742.518 717.949V719.653C742.461 719.639 742.331 719.618 742.127 719.589C741.928 719.556 741.718 719.54 741.495 719.54C740.965 719.54 740.491 719.651 740.075 719.874C739.663 720.091 739.336 720.394 739.095 720.783C738.858 721.166 738.74 721.604 738.74 722.097V729H737.063ZM748.747 729.227C747.695 729.227 746.789 728.995 746.026 728.531C745.269 728.062 744.684 727.409 744.272 726.571C743.865 725.728 743.661 724.748 743.661 723.631C743.661 722.513 743.865 721.528 744.272 720.676C744.684 719.819 745.257 719.152 745.991 718.673C746.73 718.19 747.591 717.949 748.576 717.949C749.144 717.949 749.705 718.044 750.259 718.233C750.813 718.422 751.318 718.73 751.772 719.156C752.227 719.578 752.589 720.136 752.859 720.832C753.129 721.528 753.264 722.385 753.264 723.403V724.114H744.855V722.665H751.559C751.559 722.049 751.436 721.5 751.19 721.017C750.948 720.534 750.603 720.153 750.153 719.874C749.708 719.594 749.182 719.455 748.576 719.455C747.909 719.455 747.331 719.62 746.843 719.952C746.36 720.278 745.989 720.705 745.728 721.23C745.468 721.756 745.338 722.319 745.338 722.92V723.886C745.338 724.71 745.48 725.409 745.764 725.982C746.052 726.55 746.453 726.983 746.964 727.281C747.475 727.575 748.07 727.722 748.747 727.722C749.187 727.722 749.585 727.66 749.94 727.537C750.3 727.409 750.61 727.22 750.87 726.969C751.131 726.713 751.332 726.396 751.474 726.017L753.093 726.472C752.923 727.021 752.636 727.504 752.234 727.92C751.831 728.332 751.334 728.654 750.742 728.886C750.151 729.114 749.485 729.227 748.747 729.227ZM759.024 729.256C758.332 729.256 757.705 729.125 757.142 728.865C756.578 728.6 756.131 728.219 755.799 727.722C755.468 727.22 755.302 726.614 755.302 725.903C755.302 725.278 755.425 724.772 755.671 724.384C755.918 723.991 756.247 723.683 756.659 723.46C757.07 723.238 757.525 723.072 758.022 722.963C758.524 722.849 759.028 722.759 759.535 722.693C760.198 722.608 760.735 722.544 761.147 722.501C761.564 722.454 761.867 722.376 762.056 722.267C762.25 722.158 762.347 721.969 762.347 721.699V721.642C762.347 720.941 762.156 720.397 761.772 720.009C761.393 719.62 760.818 719.426 760.046 719.426C759.246 719.426 758.619 719.601 758.164 719.952C757.71 720.302 757.39 720.676 757.205 721.074L755.615 720.506C755.899 719.843 756.277 719.327 756.751 718.957C757.229 718.583 757.75 718.323 758.313 718.176C758.882 718.025 759.44 717.949 759.99 717.949C760.34 717.949 760.742 717.991 761.197 718.077C761.656 718.157 762.099 718.325 762.525 718.581C762.956 718.837 763.313 719.223 763.597 719.739C763.882 720.255 764.024 720.946 764.024 721.812V729H762.347V727.523H762.262C762.149 727.759 761.959 728.013 761.694 728.283C761.429 728.553 761.076 728.782 760.636 728.972C760.195 729.161 759.658 729.256 759.024 729.256ZM759.279 727.75C759.942 727.75 760.501 727.62 760.955 727.359C761.415 727.099 761.76 726.763 761.992 726.351C762.229 725.939 762.347 725.506 762.347 725.051V723.517C762.276 723.602 762.12 723.68 761.879 723.751C761.642 723.818 761.367 723.877 761.055 723.929C760.747 723.976 760.446 724.019 760.153 724.057C759.864 724.09 759.63 724.118 759.45 724.142C759.014 724.199 758.607 724.291 758.228 724.419C757.854 724.542 757.551 724.729 757.319 724.98C757.092 725.226 756.978 725.562 756.978 725.989C756.978 726.571 757.194 727.011 757.624 727.31C758.06 727.603 758.612 727.75 759.279 727.75ZM768.645 725.023L768.617 722.949H768.958L773.731 718.091H775.805L770.719 723.233H770.577L768.645 725.023ZM767.083 729V714.455H768.759V729H767.083ZM774.015 729L769.753 723.602L770.947 722.438L776.145 729H774.015ZM783.587 733.091V718.091H785.206V719.824H785.405C785.528 719.634 785.699 719.393 785.916 719.099C786.139 718.801 786.456 718.536 786.868 718.304C787.285 718.067 787.848 717.949 788.558 717.949C789.477 717.949 790.287 718.179 790.987 718.638C791.688 719.097 792.235 719.748 792.628 720.591C793.021 721.434 793.218 722.428 793.218 723.574C793.218 724.729 793.021 725.731 792.628 726.578C792.235 727.421 791.691 728.074 790.994 728.538C790.298 728.998 789.496 729.227 788.587 729.227C787.886 729.227 787.325 729.111 786.904 728.879C786.482 728.643 786.158 728.375 785.931 728.077C785.703 727.774 785.528 727.523 785.405 727.324H785.263V733.091H783.587ZM785.235 723.545C785.235 724.369 785.355 725.096 785.597 725.726C785.838 726.351 786.191 726.841 786.655 727.196C787.119 727.546 787.687 727.722 788.36 727.722C789.06 727.722 789.645 727.537 790.114 727.168C790.587 726.794 790.942 726.292 791.179 725.662C791.421 725.027 791.541 724.322 791.541 723.545C791.541 722.778 791.423 722.087 791.186 721.472C790.954 720.851 790.602 720.361 790.128 720.001C789.659 719.637 789.07 719.455 788.36 719.455C787.678 719.455 787.105 719.627 786.641 719.973C786.177 720.314 785.826 720.792 785.59 721.408C785.353 722.018 785.235 722.731 785.235 723.545ZM798.985 729.256C798.293 729.256 797.666 729.125 797.102 728.865C796.539 728.6 796.092 728.219 795.76 727.722C795.429 727.22 795.263 726.614 795.263 725.903C795.263 725.278 795.386 724.772 795.632 724.384C795.878 723.991 796.208 723.683 796.619 723.46C797.031 723.238 797.486 723.072 797.983 722.963C798.485 722.849 798.989 722.759 799.496 722.693C800.159 722.608 800.696 722.544 801.108 722.501C801.525 722.454 801.828 722.376 802.017 722.267C802.211 722.158 802.308 721.969 802.308 721.699V721.642C802.308 720.941 802.117 720.397 801.733 720.009C801.354 719.62 800.779 719.426 800.007 719.426C799.207 719.426 798.58 719.601 798.125 719.952C797.671 720.302 797.351 720.676 797.166 721.074L795.575 720.506C795.86 719.843 796.238 719.327 796.712 718.957C797.19 718.583 797.711 718.323 798.274 718.176C798.843 718.025 799.401 717.949 799.95 717.949C800.301 717.949 800.703 717.991 801.158 718.077C801.617 718.157 802.06 718.325 802.486 718.581C802.917 718.837 803.274 719.223 803.558 719.739C803.843 720.255 803.985 720.946 803.985 721.812V729H802.308V727.523H802.223C802.11 727.759 801.92 728.013 801.655 728.283C801.39 728.553 801.037 728.782 800.597 728.972C800.156 729.161 799.619 729.256 798.985 729.256ZM799.24 727.75C799.903 727.75 800.462 727.62 800.916 727.359C801.376 727.099 801.721 726.763 801.953 726.351C802.19 725.939 802.308 725.506 802.308 725.051V723.517C802.237 723.602 802.081 723.68 801.84 723.751C801.603 723.818 801.328 723.877 801.016 723.929C800.708 723.976 800.407 724.019 800.114 724.057C799.825 724.09 799.591 724.118 799.411 724.142C798.975 724.199 798.568 724.291 798.189 724.419C797.815 724.542 797.512 724.729 797.28 724.98C797.053 725.226 796.939 725.562 796.939 725.989C796.939 726.571 797.155 727.011 797.585 727.31C798.021 727.603 798.573 727.75 799.24 727.75ZM811.447 733.318C810.638 733.318 809.942 733.214 809.359 733.006C808.777 732.802 808.291 732.532 807.903 732.196C807.52 731.865 807.214 731.509 806.987 731.131L808.322 730.193C808.474 730.392 808.666 730.619 808.898 730.875C809.13 731.135 809.447 731.36 809.849 731.55C810.256 731.744 810.789 731.841 811.447 731.841C812.328 731.841 813.055 731.628 813.628 731.202C814.201 730.776 814.487 730.108 814.487 729.199V726.983H814.345C814.222 727.182 814.047 727.428 813.819 727.722C813.597 728.01 813.275 728.268 812.854 728.496C812.437 728.718 811.873 728.83 811.163 728.83C810.282 728.83 809.492 728.621 808.791 728.205C808.095 727.788 807.543 727.182 807.136 726.386C806.734 725.591 806.532 724.625 806.532 723.489C806.532 722.371 806.729 721.398 807.122 720.57C807.515 719.736 808.062 719.092 808.763 718.638C809.463 718.179 810.273 717.949 811.192 717.949C811.902 717.949 812.465 718.067 812.882 718.304C813.303 718.536 813.625 718.801 813.848 719.099C814.075 719.393 814.25 719.634 814.373 719.824H814.544V718.091H816.163V729.312C816.163 730.25 815.95 731.012 815.524 731.599C815.103 732.191 814.534 732.625 813.819 732.899C813.109 733.179 812.318 733.318 811.447 733.318ZM811.39 727.324C812.063 727.324 812.631 727.17 813.095 726.862C813.559 726.554 813.912 726.112 814.153 725.534C814.395 724.956 814.515 724.265 814.515 723.46C814.515 722.674 814.397 721.981 814.16 721.379C813.924 720.778 813.573 720.307 813.109 719.966C812.645 719.625 812.072 719.455 811.39 719.455C810.68 719.455 810.088 719.634 809.615 719.994C809.146 720.354 808.793 720.837 808.557 721.443C808.325 722.049 808.209 722.722 808.209 723.46C808.209 724.218 808.327 724.888 808.564 725.47C808.805 726.048 809.16 726.502 809.629 726.834C810.103 727.161 810.69 727.324 811.39 727.324ZM823.805 729.227C822.754 729.227 821.847 728.995 821.085 728.531C820.327 728.062 819.743 727.409 819.331 726.571C818.924 725.728 818.72 724.748 818.72 723.631C818.72 722.513 818.924 721.528 819.331 720.676C819.743 719.819 820.316 719.152 821.05 718.673C821.788 718.19 822.65 717.949 823.635 717.949C824.203 717.949 824.764 718.044 825.318 718.233C825.872 718.422 826.376 718.73 826.831 719.156C827.285 719.578 827.648 720.136 827.917 720.832C828.187 721.528 828.322 722.385 828.322 723.403V724.114H819.913V722.665H826.618C826.618 722.049 826.495 721.5 826.248 721.017C826.007 720.534 825.661 720.153 825.211 719.874C824.766 719.594 824.241 719.455 823.635 719.455C822.967 719.455 822.39 719.62 821.902 719.952C821.419 720.278 821.047 720.705 820.787 721.23C820.526 721.756 820.396 722.319 820.396 722.92V723.886C820.396 724.71 820.538 725.409 820.822 725.982C821.111 726.55 821.511 726.983 822.023 727.281C822.534 727.575 823.128 727.722 823.805 727.722C824.246 727.722 824.643 727.66 824.998 727.537C825.358 727.409 825.668 727.22 825.929 726.969C826.189 726.713 826.39 726.396 826.532 726.017L828.152 726.472C827.981 727.021 827.695 727.504 827.292 727.92C826.89 728.332 826.393 728.654 825.801 728.886C825.209 729.114 824.544 729.227 823.805 729.227Z" fill="black"/>
<rect x="8.58057" y="100.083" width="562.436" height="643.419" transform="rotate(-10.19 8.58057 100.083)" fill="#D9D9D9" stroke="black"/>
<path d="M267.071 370.726L264.417 355.963L266.011 355.676L266.318 357.382L266.513 357.347C266.601 357.139 266.726 356.871 266.889 356.543C267.055 356.21 267.32 355.893 267.685 355.592C268.053 355.285 268.586 355.069 269.285 354.943C270.189 354.781 271.027 354.864 271.798 355.192C272.569 355.52 273.222 356.064 273.758 356.824C274.294 357.584 274.663 358.528 274.866 359.655C275.07 360.793 275.054 361.813 274.817 362.717C274.58 363.616 274.159 364.355 273.556 364.935C272.953 365.51 272.203 365.878 271.309 366.039C270.619 366.163 270.046 366.148 269.59 365.994C269.134 365.836 268.767 365.63 268.491 365.376C268.213 365.118 267.997 364.902 267.84 364.728L267.7 364.754L268.721 370.43L267.071 370.726ZM267.004 361.04C267.15 361.851 267.397 362.545 267.746 363.122C268.095 363.694 268.528 364.114 269.048 364.381C269.567 364.644 270.157 364.716 270.819 364.597C271.508 364.473 272.051 364.188 272.447 363.742C272.847 363.29 273.108 362.733 273.229 362.071C273.355 361.404 273.349 360.688 273.211 359.924C273.076 359.169 272.837 358.51 272.495 357.946C272.157 357.376 271.723 356.956 271.193 356.686C270.667 356.41 270.055 356.335 269.356 356.461C268.685 356.581 268.152 356.853 267.756 357.275C267.36 357.693 267.099 358.225 266.975 358.873C266.85 359.516 266.86 360.238 267.004 361.04ZM282.745 363.983C281.775 364.158 280.883 364.08 280.069 363.75C279.259 363.419 278.574 362.876 278.015 362.12C277.461 361.364 277.084 360.431 276.884 359.322C276.683 358.203 276.711 357.19 276.966 356.283C277.226 355.375 277.678 354.625 278.322 354.033C278.971 353.441 279.78 353.057 280.749 352.883C281.719 352.709 282.608 352.787 283.418 353.117C284.233 353.447 284.918 353.993 285.473 354.754C286.033 355.515 286.414 356.454 286.615 357.573C286.814 358.682 286.783 359.688 286.522 360.591C286.266 361.493 285.813 362.241 285.165 362.834C284.521 363.426 283.714 363.809 282.745 363.983ZM282.478 362.501C283.215 362.369 283.786 362.071 284.194 361.608C284.601 361.146 284.864 360.586 284.982 359.93C285.1 359.274 285.094 358.587 284.965 357.869C284.836 357.151 284.602 356.503 284.262 355.924C283.922 355.346 283.48 354.908 282.936 354.611C282.392 354.315 281.752 354.232 281.016 354.365C280.279 354.497 279.708 354.797 279.301 355.265C278.895 355.732 278.633 356.296 278.516 356.957C278.399 357.618 278.405 358.307 278.534 359.025C278.663 359.743 278.897 360.389 279.236 360.963C279.575 361.537 280.016 361.97 280.559 362.262C281.102 362.554 281.742 362.634 282.478 362.501ZM289.164 347.82L291.738 362.136L290.088 362.432L287.515 348.116L289.164 347.82ZM297.964 361.277C297.284 361.399 296.643 361.382 296.042 361.225C295.441 361.064 294.933 360.768 294.519 360.337C294.104 359.902 293.834 359.335 293.708 358.636C293.597 358.02 293.629 357.5 293.803 357.074C293.975 356.644 294.245 356.283 294.611 355.991C294.977 355.699 295.395 355.455 295.865 355.26C296.339 355.06 296.819 354.882 297.306 354.727C297.944 354.526 298.461 354.368 298.859 354.253C299.261 354.133 299.545 354.002 299.712 353.862C299.884 353.72 299.946 353.517 299.898 353.251L299.888 353.195C299.764 352.505 299.479 352.003 299.033 351.689C298.592 351.374 297.991 351.285 297.232 351.421C296.444 351.563 295.858 351.846 295.472 352.271C295.087 352.697 294.838 353.121 294.727 353.545L293.061 353.268C293.223 352.565 293.504 351.99 293.905 351.543C294.31 351.09 294.776 350.742 295.305 350.497C295.837 350.248 296.374 350.074 296.914 349.977C297.259 349.915 297.663 349.886 298.125 349.889C298.592 349.887 299.057 349.975 299.522 350.151C299.991 350.326 300.411 350.643 300.782 351.1C301.153 351.558 301.415 352.213 301.568 353.066L302.84 360.14L301.19 360.437L300.929 358.983L300.845 358.998C300.775 359.251 300.633 359.534 300.42 359.846C300.207 360.159 299.9 360.447 299.5 360.712C299.101 360.976 298.588 361.164 297.964 361.277ZM297.949 359.749C298.602 359.632 299.129 359.405 299.53 359.068C299.936 358.731 300.217 358.339 300.372 357.892C300.532 357.445 300.572 356.998 300.492 356.55L300.22 355.04C300.165 355.137 300.025 355.241 299.8 355.354C299.579 355.461 299.319 355.568 299.021 355.675C298.726 355.776 298.438 355.871 298.156 355.96C297.877 356.044 297.652 356.113 297.479 356.168C297.06 356.301 296.676 356.464 296.325 356.657C295.979 356.844 295.714 357.082 295.53 357.37C295.35 357.653 295.297 358.003 295.373 358.423C295.476 358.996 295.766 359.391 296.243 359.609C296.723 359.821 297.292 359.867 297.949 359.749ZM305.851 359.599L303.921 348.862L305.515 348.576L305.806 350.197L305.918 350.177C306.018 349.611 306.295 349.116 306.748 348.693C307.201 348.27 307.749 348.001 308.393 347.885C308.514 347.863 308.666 347.838 308.848 347.81C309.031 347.782 309.169 347.765 309.264 347.757L309.566 349.435C309.507 349.431 309.376 349.433 309.17 349.441C308.969 349.444 308.758 349.465 308.539 349.504C308.017 349.598 307.571 349.791 307.2 350.084C306.833 350.371 306.565 350.727 306.396 351.152C306.231 351.571 306.192 352.023 306.279 352.508L307.501 359.303L305.851 359.599ZM317.25 357.781C316.281 357.955 315.389 357.877 314.574 357.548C313.765 357.217 313.08 356.674 312.521 355.918C311.966 355.161 311.589 354.228 311.39 353.119C311.189 352.001 311.216 350.988 311.472 350.081C311.732 349.173 312.184 348.423 312.828 347.831C313.477 347.238 314.286 346.855 315.255 346.68C316.224 346.506 317.114 346.584 317.924 346.915C318.738 347.245 319.423 347.791 319.979 348.552C320.539 349.312 320.919 350.252 321.12 351.37C321.32 352.479 321.289 353.486 321.028 354.389C320.772 355.291 320.319 356.039 319.67 356.632C319.026 357.224 318.22 357.607 317.25 357.781ZM316.984 356.299C317.72 356.167 318.292 355.869 318.7 355.406C319.107 354.943 319.37 354.384 319.487 353.728C319.605 353.071 319.6 352.384 319.471 351.667C319.342 350.949 319.107 350.301 318.768 349.722C318.428 349.143 317.986 348.706 317.442 348.409C316.898 348.112 316.258 348.03 315.521 348.162C314.785 348.295 314.214 348.595 313.807 349.062C313.4 349.53 313.138 350.094 313.022 350.755C312.905 351.416 312.911 352.105 313.04 352.823C313.169 353.54 313.403 354.186 313.741 354.76C314.08 355.334 314.521 355.768 315.065 356.06C315.608 356.352 316.248 356.431 316.984 356.299ZM324.593 356.23L322.664 345.493L324.313 345.197L326.243 355.934L324.593 356.23ZM323.181 343.553C322.859 343.611 322.562 343.551 322.29 343.374C322.022 343.196 321.861 342.953 321.805 342.646C321.75 342.338 321.817 342.054 322.006 341.794C322.199 341.533 322.457 341.374 322.779 341.316C323.1 341.258 323.395 341.318 323.663 341.496C323.935 341.673 324.099 341.916 324.154 342.223C324.209 342.531 324.14 342.815 323.947 343.076C323.758 343.336 323.502 343.495 323.181 343.553ZM333.359 354.885C332.465 355.046 331.634 354.962 330.868 354.633C330.101 354.3 329.449 353.753 328.913 352.993C328.376 352.228 328.006 351.278 327.801 350.14C327.599 349.013 327.616 347.999 327.854 347.1C328.092 346.201 328.515 345.464 329.123 344.888C329.732 344.312 330.488 343.942 331.392 343.78C332.091 343.654 332.664 343.671 333.111 343.832C333.563 343.986 333.922 344.191 334.189 344.446C334.46 344.696 334.673 344.903 334.827 345.067L334.967 345.042L334.017 339.758L335.667 339.461L338.24 353.777L336.646 354.064L336.35 352.414L336.154 352.449C336.068 352.667 335.94 352.945 335.77 353.283C335.599 353.617 335.327 353.938 334.954 354.245C334.581 354.548 334.049 354.761 333.359 354.885ZM333.317 353.363C333.978 353.244 334.507 352.971 334.901 352.544C335.295 352.113 335.556 351.568 335.683 350.91C335.809 350.248 335.799 349.511 335.653 348.7C335.509 347.899 335.267 347.218 334.926 346.659C334.584 346.095 334.154 345.686 333.637 345.433C333.12 345.175 332.525 345.106 331.854 345.227C331.155 345.352 330.605 345.636 330.203 346.079C329.806 346.516 329.545 347.061 329.422 347.713C329.302 348.36 329.31 349.061 329.446 349.816C329.584 350.58 329.825 351.254 330.17 351.836C330.519 352.413 330.957 352.844 331.485 353.13C332.016 353.409 332.627 353.487 333.317 353.363ZM352.125 355.669C351.328 355.812 350.624 355.833 350.014 355.731C349.405 355.633 348.88 355.454 348.438 355.191C348.002 354.933 347.639 354.638 347.348 354.305L348.496 353.146C348.681 353.315 348.91 353.505 349.183 353.715C349.458 353.931 349.81 354.096 350.239 354.211C350.674 354.33 351.216 354.331 351.863 354.215C352.73 354.059 353.408 353.721 353.896 353.2C354.385 352.679 354.549 351.971 354.388 351.077L353.996 348.896L353.856 348.921C353.77 349.138 353.641 349.412 353.469 349.741C353.302 350.064 353.03 350.375 352.656 350.674C352.285 350.966 351.75 351.176 351.051 351.301C350.184 351.457 349.369 351.392 348.606 351.106C347.847 350.819 347.197 350.32 346.655 349.609C346.119 348.897 345.75 347.982 345.549 346.864C345.351 345.764 345.372 344.772 345.612 343.887C345.852 342.997 346.276 342.266 346.885 341.695C347.494 341.119 348.25 340.75 349.154 340.587C349.853 340.462 350.429 340.478 350.881 340.638C351.336 340.791 351.7 340.995 351.972 341.25C352.248 341.498 352.463 341.705 352.617 341.87L352.785 341.84L352.479 340.134L354.072 339.847L356.058 350.892C356.224 351.815 356.149 352.603 355.833 353.256C355.523 353.913 355.041 354.44 354.385 354.837C353.736 355.237 352.982 355.515 352.125 355.669ZM351.008 349.779C351.67 349.66 352.202 349.408 352.604 349.023C353.007 348.638 353.276 348.14 353.411 347.529C353.546 346.918 353.543 346.216 353.401 345.424C353.262 344.65 353.022 343.988 352.683 343.438C352.344 342.888 351.915 342.487 351.398 342.233C350.881 341.98 350.287 341.913 349.616 342.034C348.917 342.16 348.367 342.441 347.964 342.879C347.566 343.316 347.305 343.854 347.179 344.493C347.058 345.13 347.063 345.812 347.193 346.539C347.327 347.285 347.562 347.923 347.898 348.455C348.238 348.981 348.668 349.365 349.188 349.608C349.712 349.846 350.319 349.903 351.008 349.779ZM359.022 350.042L357.092 339.305L358.686 339.018L358.978 340.64L359.089 340.62C359.19 340.053 359.466 339.559 359.919 339.136C360.373 338.713 360.921 338.443 361.564 338.328C361.685 338.306 361.837 338.281 362.019 338.253C362.202 338.225 362.341 338.207 362.436 338.2L362.737 339.878C362.679 339.874 362.547 339.876 362.341 339.884C362.14 339.886 361.93 339.907 361.71 339.947C361.189 340.04 360.742 340.234 360.371 340.526C360.005 340.814 359.737 341.17 359.568 341.595C359.403 342.014 359.363 342.466 359.451 342.951L360.672 349.745L359.022 350.042ZM369.551 348.409C368.871 348.531 368.23 348.514 367.63 348.357C367.028 348.196 366.52 347.9 366.106 347.469C365.691 347.034 365.421 346.467 365.295 345.768C365.185 345.153 365.216 344.632 365.39 344.207C365.563 343.776 365.832 343.415 366.198 343.123C366.564 342.831 366.982 342.588 367.452 342.393C367.926 342.192 368.406 342.014 368.893 341.859C369.531 341.658 370.048 341.5 370.446 341.385C370.848 341.265 371.132 341.135 371.3 340.994C371.471 340.852 371.533 340.649 371.486 340.383L371.476 340.327C371.352 339.638 371.067 339.136 370.62 338.821C370.179 338.506 369.578 338.417 368.819 338.553C368.031 338.695 367.445 338.978 367.059 339.404C366.674 339.829 366.425 340.254 366.314 340.678L364.648 340.4C364.81 339.697 365.092 339.122 365.492 338.675C365.897 338.222 366.363 337.874 366.892 337.63C367.424 337.38 367.961 337.207 368.501 337.11C368.846 337.048 369.25 337.018 369.712 337.022C370.179 337.02 370.644 337.107 371.109 337.283C371.578 337.459 371.998 337.775 372.369 338.233C372.74 338.69 373.002 339.346 373.155 340.199L374.427 347.273L372.777 347.569L372.516 346.115L372.432 346.13C372.362 346.383 372.22 346.666 372.007 346.979C371.794 347.291 371.487 347.58 371.088 347.844C370.688 348.108 370.176 348.297 369.551 348.409ZM369.536 346.882C370.189 346.764 370.716 346.537 371.117 346.201C371.523 345.863 371.804 345.471 371.959 345.025C372.119 344.577 372.159 344.13 372.079 343.683L371.807 342.173C371.752 342.269 371.612 342.374 371.387 342.486C371.166 342.593 370.906 342.7 370.608 342.807C370.313 342.908 370.025 343.003 369.743 343.092C369.464 343.176 369.239 343.245 369.066 343.301C368.647 343.434 368.263 343.596 367.912 343.789C367.566 343.977 367.301 344.214 367.117 344.502C366.937 344.785 366.884 345.136 366.96 345.555C367.063 346.128 367.353 346.524 367.83 346.741C368.31 346.953 368.879 347 369.536 346.882ZM378.162 350.758L375.508 335.994L377.102 335.708L377.408 337.414L377.604 337.378C377.692 337.17 377.817 336.902 377.979 336.575C378.146 336.242 378.411 335.925 378.775 335.624C379.143 335.317 379.677 335.101 380.376 334.975C381.28 334.813 382.118 334.895 382.889 335.223C383.66 335.551 384.313 336.096 384.849 336.855C385.385 337.615 385.754 338.559 385.957 339.687C386.161 340.824 386.145 341.845 385.908 342.748C385.67 343.647 385.25 344.387 384.647 344.967C384.043 345.542 383.294 345.91 382.399 346.071C381.71 346.195 381.137 346.18 380.681 346.026C380.224 345.867 379.858 345.661 379.581 345.408C379.304 345.15 379.087 344.934 378.931 344.76L378.791 344.785L379.811 350.461L378.162 350.758ZM378.095 341.071C378.241 341.882 378.488 342.576 378.837 343.153C379.185 343.726 379.619 344.146 380.139 344.413C380.657 344.676 381.248 344.748 381.909 344.629C382.599 344.505 383.142 344.22 383.538 343.773C383.938 343.321 384.198 342.765 384.32 342.103C384.445 341.436 384.439 340.72 384.302 339.956C384.166 339.201 383.928 338.541 383.586 337.977C383.248 337.408 382.814 336.988 382.284 336.718C381.758 336.442 381.146 336.367 380.447 336.492C379.776 336.613 379.242 336.884 378.847 337.307C378.45 337.724 378.19 338.257 378.066 338.905C377.941 339.548 377.951 340.27 378.095 341.071ZM389.922 337.82L391.083 344.279L389.433 344.575L386.86 330.259L388.51 329.963L389.455 335.219L389.594 335.194C389.746 334.595 390.045 334.086 390.489 333.67C390.938 333.247 391.584 332.961 392.427 332.809C393.159 332.677 393.826 332.709 394.429 332.904C395.031 333.094 395.537 333.462 395.948 334.009C396.363 334.55 396.653 335.282 396.819 336.205L398.045 343.027L396.396 343.324L395.189 336.613C395.036 335.76 394.696 335.141 394.17 334.754C393.647 334.362 392.997 334.236 392.218 334.376C391.678 334.473 391.214 334.675 390.826 334.98C390.443 335.285 390.167 335.678 389.999 336.161C389.835 336.642 389.81 337.195 389.922 337.82ZM401.063 342.485L399.133 331.748L400.783 331.451L402.713 342.188L401.063 342.485ZM399.65 329.808C399.329 329.865 399.032 329.806 398.76 329.629C398.492 329.451 398.33 329.208 398.275 328.9C398.22 328.593 398.287 328.309 398.476 328.049C398.669 327.788 398.927 327.628 399.248 327.571C399.57 327.513 399.865 327.573 400.132 327.751C400.405 327.928 400.569 328.17 400.624 328.478C400.679 328.786 400.61 329.07 400.416 329.331C400.227 329.591 399.972 329.75 399.65 329.808ZM410.137 341.085C409.13 341.266 408.221 341.184 407.408 340.839C406.596 340.495 405.919 339.94 405.377 339.177C404.836 338.413 404.469 337.495 404.276 336.423C404.08 335.333 404.108 334.334 404.359 333.428C404.613 332.516 405.059 331.76 405.697 331.16C406.339 330.554 407.144 330.164 408.113 329.989C408.868 329.854 409.574 329.871 410.23 330.042C410.886 330.213 411.453 330.515 411.93 330.949C412.407 331.382 412.753 331.926 412.967 332.581L411.317 332.877C411.103 332.411 410.746 332.027 410.244 331.728C409.747 331.423 409.135 331.336 408.408 331.466C407.765 331.582 407.231 331.851 406.807 332.274C406.386 332.691 406.095 333.227 405.934 333.881C405.776 334.53 405.77 335.26 405.916 336.071C406.065 336.9 406.325 337.599 406.697 338.167C407.073 338.735 407.532 339.145 408.073 339.399C408.619 339.652 409.218 339.72 409.87 339.603C410.299 339.526 410.675 339.381 410.997 339.169C411.32 338.957 411.578 338.69 411.77 338.367C411.962 338.044 412.074 337.677 412.106 337.267L413.756 336.971C413.776 337.621 413.648 338.233 413.371 338.808C413.098 339.376 412.688 339.864 412.141 340.27C411.597 340.671 410.929 340.942 410.137 341.085Z" fill="black"/>
</svg>
