<svg id="Dark_Hex" data-name="Dark Hex" xmlns="http://www.w3.org/2000/svg" viewBox="0 0 2153.74 1563.22"><defs><style>.cls-1{opacity:0.5;}.cls-2{fill:none;stroke:#078fda;stroke-miterlimit:10;stroke-width:10px;}</style></defs><title>honeycomb_background</title><g class="cls-1"><polygon class="cls-2" points="1524.78 1154.28 1447.03 1154.28 1408.15 1221.62 1447.03 1288.95 1524.78 1288.95 1563.65 1221.62 1524.78 1154.28"/><polygon class="cls-2" points="1640.76 1221.79 1563.01 1221.79 1524.14 1289.13 1563.01 1356.46 1640.76 1356.46 1679.64 1289.13 1640.76 1221.79"/><polygon class="cls-2" points="1756.75 1423.55 1679 1423.55 1640.13 1490.88 1679 1558.21 1756.75 1558.21 1795.63 1490.88 1756.75 1423.55"/><polygon class="cls-2" points="1524.75 1288.55 1447 1288.55 1408.13 1355.88 1447 1423.21 1524.75 1423.21 1563.63 1355.88 1524.75 1288.55"/><polygon class="cls-2" points="1756.77 1288.79 1679.02 1288.79 1640.14 1356.12 1679.02 1423.45 1756.77 1423.45 1795.64 1356.12 1756.77 1288.79"/><polygon class="cls-2" points="1872.75 1356.3 1795 1356.3 1756.13 1423.63 1795 1490.96 1872.75 1490.96 1911.63 1423.63 1872.75 1356.3"/><polygon class="cls-2" points="1756.77 1153.79 1679.02 1153.79 1640.14 1221.12 1679.02 1288.45 1756.77 1288.45 1795.64 1221.12 1756.77 1153.79"/><polygon class="cls-2" points="1872.75 1221.3 1795 1221.3 1756.13 1288.63 1795 1355.96 1872.75 1355.96 1911.63 1288.63 1872.75 1221.3"/><polygon class="cls-2" points="1872.77 1086.79 1795.02 1086.79 1756.14 1154.12 1795.02 1221.45 1872.77 1221.45 1911.64 1154.12 1872.77 1086.79"/><polygon class="cls-2" points="1640.75 1086.3 1563 1086.3 1524.13 1153.63 1563 1220.96 1640.75 1220.96 1679.63 1153.63 1640.75 1086.3"/></g><g class="cls-1"><polygon class="cls-2" points="476.06 951.89 398.31 951.89 359.44 1019.22 398.31 1086.55 476.06 1086.55 514.94 1019.22 476.06 951.89"/><polygon class="cls-2" points="592.05 1019.4 514.3 1019.4 475.43 1086.73 514.3 1154.06 592.05 1154.06 630.92 1086.73 592.05 1019.4"/><polygon class="cls-2" points="592.06 1153.64 514.31 1153.64 475.43 1220.97 514.31 1288.31 592.06 1288.31 630.93 1220.97 592.06 1153.64"/><polygon class="cls-2" points="708.04 1221.15 630.29 1221.15 591.42 1288.48 630.29 1355.82 708.04 1355.82 746.92 1288.48 708.04 1221.15"/><polygon class="cls-2" points="476.06 1221.64 398.31 1221.64 359.43 1288.97 398.31 1356.31 476.06 1356.31 514.93 1288.97 476.06 1221.64"/><polygon class="cls-2" points="476.04 1086.15 398.29 1086.15 359.42 1153.48 398.29 1220.82 476.04 1220.82 514.92 1153.48 476.04 1086.15"/><polygon class="cls-2" points="708.06 1086.39 630.31 1086.39 591.43 1153.72 630.31 1221.06 708.06 1221.06 746.93 1153.72 708.06 1086.39"/><polygon class="cls-2" points="824.04 1153.9 746.29 1153.9 707.42 1221.23 746.29 1288.57 824.04 1288.57 862.92 1221.23 824.04 1153.9"/><polygon class="cls-2" points="708.06 951.39 630.31 951.39 591.43 1018.72 630.31 1086.06 708.06 1086.06 746.93 1018.72 708.06 951.39"/><polygon class="cls-2" points="242.04 948.9 164.29 948.9 125.42 1016.23 164.29 1083.57 242.04 1083.57 280.92 1016.23 242.04 948.9"/><polygon class="cls-2" points="126.06 874.39 48.31 874.39 9.43 941.72 48.31 1009.05 126.06 1009.05 164.93 941.72 126.06 874.39"/><polygon class="cls-2" points="358.04 1015.9 280.29 1015.9 241.42 1083.23 280.29 1150.57 358.04 1150.57 396.92 1083.23 358.04 1015.9"/><polygon class="cls-2" points="242.06 1083.39 164.31 1083.39 125.43 1150.72 164.31 1218.06 242.06 1218.06 280.93 1150.72 242.06 1083.39"/><polygon class="cls-2" points="592.04 883.9 514.29 883.9 475.42 951.23 514.29 1018.57 592.04 1018.57 630.92 951.23 592.04 883.9"/></g><g class="cls-1"><polygon class="cls-2" points="125.78 478.91 48.03 478.91 9.15 546.24 48.03 613.58 125.78 613.58 164.65 546.24 125.78 478.91"/><polygon class="cls-2" points="241.76 546.42 164.01 546.42 125.14 613.75 164.01 681.09 241.76 681.09 280.64 613.75 241.76 546.42"/><polygon class="cls-2" points="241.77 680.66 164.02 680.66 125.14 748 164.02 815.33 241.77 815.33 280.64 748 241.77 680.66"/><polygon class="cls-2" points="357.75 883.17 280 883.17 241.13 950.51 280 1017.84 357.75 1017.84 396.63 950.51 357.75 883.17"/><polygon class="cls-2" points="125.77 748.66 48.02 748.66 9.14 816 48.02 883.33 125.77 883.33 164.64 816 125.77 748.66"/><polygon class="cls-2" points="125.75 613.17 48 613.17 9.13 680.51 48 747.84 125.75 747.84 164.63 680.51 125.75 613.17"/><polygon class="cls-2" points="357.77 613.41 280.02 613.41 241.14 680.75 280.02 748.08 357.77 748.08 396.64 680.75 357.77 613.41"/><polygon class="cls-2" points="357.77 478.41 280.02 478.41 241.14 545.75 280.02 613.08 357.77 613.08 396.64 545.75 357.77 478.41"/><polygon class="cls-2" points="473.75 545.92 396 545.92 357.13 613.25 396 680.59 473.75 680.59 512.63 613.25 473.75 545.92"/><polygon class="cls-2" points="125.77 343.41 48.02 343.41 9.14 410.75 48.02 478.08 125.77 478.08 164.64 410.75 125.77 343.41"/><polygon class="cls-2" points="241.84 815.81 164.09 815.81 125.22 883.15 164.09 950.48 241.84 950.48 280.72 883.15 241.84 815.81"/><polygon class="cls-2" points="589.84 748.81 512.09 748.81 473.22 816.15 512.09 883.48 589.84 883.48 628.72 816.15 589.84 748.81"/><polygon class="cls-2" points="589.98 478.62 512.23 478.62 473.36 545.95 512.23 613.28 589.98 613.28 628.86 545.95 589.98 478.62"/></g><g class="cls-1"><polygon class="cls-2" points="707.9 411.28 630.15 411.28 591.27 478.62 630.15 545.95 707.9 545.95 746.77 478.62 707.9 411.28"/><polygon class="cls-2" points="823.88 478.79 746.13 478.79 707.26 546.13 746.13 613.46 823.88 613.46 862.76 546.13 823.88 478.79"/><polygon class="cls-2" points="939.87 680.55 862.12 680.55 823.25 747.88 862.12 815.22 939.87 815.22 978.75 747.88 939.87 680.55"/><polygon class="cls-2" points="939.89 545.78 862.14 545.78 823.26 613.12 862.14 680.45 939.89 680.45 978.76 613.12 939.89 545.78"/><polygon class="cls-2" points="1055.87 613.29 978.12 613.29 939.25 680.63 978.12 747.96 1055.87 747.96 1094.75 680.63 1055.87 613.29"/><polygon class="cls-2" points="939.89 410.79 862.14 410.79 823.26 478.12 862.14 545.45 939.89 545.45 978.76 478.12 939.89 410.79"/><polygon class="cls-2" points="1055.87 478.3 978.12 478.3 939.25 545.63 978.12 612.96 1055.87 612.96 1094.75 545.63 1055.87 478.3"/><polygon class="cls-2" points="1055.89 343.79 978.14 343.79 939.26 411.12 978.14 478.45 1055.89 478.45 1094.76 411.12 1055.89 343.79"/><polygon class="cls-2" points="942.87 141.29 865.12 141.29 826.25 208.63 865.12 275.96 942.87 275.96 981.75 208.63 942.87 141.29"/><polygon class="cls-2" points="707.89 275.79 630.14 275.79 591.26 343.12 630.14 410.45 707.89 410.45 746.76 343.12 707.89 275.79"/><polygon class="cls-2" points="823.87 343.3 746.12 343.3 707.25 410.63 746.12 477.96 823.87 477.96 862.75 410.63 823.87 343.3"/><polygon class="cls-2" points="1056.22 73.73 978.47 73.73 939.59 141.07 978.47 208.4 1056.22 208.4 1095.09 141.07 1056.22 73.73"/></g><g class="cls-1"><polygon class="cls-2" points="47.63 208.38 125.38 208.38 164.26 275.71 125.38 343.05 47.63 343.05 8.76 275.71 47.63 208.38"/><polygon class="cls-2" points="44.65 73.89 122.4 73.89 161.27 141.22 122.4 208.56 44.65 208.56 5.77 141.22 44.65 73.89"/><polygon class="cls-2" points="163.65 140.89 241.4 140.89 280.27 208.22 241.4 275.56 163.65 275.56 124.77 208.22 163.65 140.89"/></g><g class="cls-1"><polygon class="cls-2" points="241.83 276.29 164.08 276.29 125.2 343.63 164.08 410.96 241.83 410.96 280.7 343.63 241.83 276.29"/><polygon class="cls-2" points="241.81 411.8 164.06 411.8 125.19 479.14 164.06 546.47 241.81 546.47 280.69 479.14 241.81 411.8"/><polygon class="cls-2" points="473.82 275.05 396.07 275.05 357.19 342.38 396.07 409.71 473.82 409.71 512.7 342.38 473.82 275.05"/><polygon class="cls-2" points="589.8 72.56 512.05 72.56 473.18 139.89 512.05 207.22 589.8 207.22 628.68 139.89 589.8 72.56"/><polygon class="cls-2" points="357.82 209.05 280.07 209.05 241.19 276.38 280.07 343.71 357.82 343.71 396.69 276.38 357.82 209.05"/><polygon class="cls-2" points="357.81 344.56 280.06 344.56 241.18 411.89 280.06 479.23 357.81 479.23 396.68 411.89 357.81 344.56"/><polygon class="cls-2" points="473.82 141.79 396.07 141.79 357.19 209.13 396.07 276.46 473.82 276.46 512.7 209.13 473.82 141.79"/><polygon class="cls-2" points="473.82 411.8 396.07 411.8 357.19 479.13 396.07 546.46 473.82 546.46 512.7 479.13 473.82 411.8"/><polygon class="cls-2" points="357.81 72.31 280.06 72.31 241.18 139.64 280.06 206.97 357.81 206.97 396.68 139.64 357.81 72.31"/><polygon class="cls-2" points="241.82 5.79 164.07 5.79 125.19 73.13 164.07 140.46 241.82 140.46 280.69 73.13 241.82 5.79"/><polygon class="cls-2" points="589.9 344.2 512.15 344.2 473.27 411.53 512.15 478.86 589.9 478.86 628.77 411.53 589.9 344.2"/><polygon class="cls-2" points="589.9 207.2 512.15 207.2 473.27 274.53 512.15 341.86 589.9 341.86 628.77 274.53 589.9 207.2"/><polygon class="cls-2" points="474.03 5 396.28 5 357.41 72.33 396.28 139.67 474.03 139.67 512.91 72.33 474.03 5"/></g><g class="cls-1"><polygon class="cls-2" points="2027.97 680.1 2105.72 680.1 2144.59 612.77 2105.72 545.43 2027.97 545.43 1989.09 612.77 2027.97 680.1"/><polygon class="cls-2" points="1911.98 612.59 1989.73 612.59 2028.61 545.26 1989.73 477.92 1911.98 477.92 1873.11 545.26 1911.98 612.59"/><polygon class="cls-2" points="1911.97 478.35 1989.72 478.35 2028.6 411.01 1989.72 343.68 1911.97 343.68 1873.1 411.01 1911.97 478.35"/><polygon class="cls-2" points="1795.99 275.83 1873.74 275.83 1912.61 208.5 1873.74 141.17 1795.99 141.17 1757.11 208.5 1795.99 275.83"/><polygon class="cls-2" points="2027.97 410.35 2105.72 410.35 2144.6 343.01 2105.72 275.68 2027.97 275.68 1989.1 343.01 2027.97 410.35"/><polygon class="cls-2" points="2027.99 545.84 2105.74 545.84 2144.61 478.5 2105.74 411.17 2027.99 411.17 1989.11 478.5 2027.99 545.84"/><polygon class="cls-2" points="1795.97 545.6 1873.72 545.6 1912.6 478.26 1873.72 410.93 1795.97 410.93 1757.1 478.26 1795.97 545.6"/><polygon class="cls-2" points="1795.97 680.6 1873.72 680.6 1912.6 613.26 1873.72 545.93 1795.97 545.93 1757.1 613.26 1795.97 680.6"/><polygon class="cls-2" points="1679.99 613.09 1757.74 613.09 1796.61 545.75 1757.74 478.42 1679.99 478.42 1641.11 545.75 1679.99 613.09"/><polygon class="cls-2" points="2027.97 815.6 2105.72 815.6 2144.6 748.26 2105.72 680.93 2027.97 680.93 1989.1 748.26 2027.97 815.6"/><polygon class="cls-2" points="1911.9 343.2 1989.65 343.2 2028.52 275.86 1989.65 208.53 1911.9 208.53 1873.02 275.86 1911.9 343.2"/><polygon class="cls-2" points="1563.9 410.2 1641.65 410.2 1680.52 342.86 1641.65 275.53 1563.9 275.53 1525.02 342.86 1563.9 410.2"/><polygon class="cls-2" points="1563.76 680.39 1641.51 680.39 1680.39 613.06 1641.51 545.73 1563.76 545.73 1524.89 613.06 1563.76 680.39"/></g><g class="cls-1"><polygon class="cls-2" points="1445.85 747.73 1523.6 747.73 1562.47 680.39 1523.6 613.06 1445.85 613.06 1406.97 680.39 1445.85 747.73"/><polygon class="cls-2" points="1329.86 680.22 1407.61 680.22 1446.49 612.88 1407.61 545.55 1329.86 545.55 1290.99 612.88 1329.86 680.22"/><polygon class="cls-2" points="1213.87 478.46 1291.62 478.46 1330.49 411.13 1291.62 343.79 1213.87 343.79 1174.99 411.13 1213.87 478.46"/><polygon class="cls-2" points="1213.85 613.22 1291.6 613.22 1330.48 545.89 1291.6 478.56 1213.85 478.56 1174.98 545.89 1213.85 613.22"/><polygon class="cls-2" points="1097.87 545.71 1175.62 545.71 1214.49 478.38 1175.62 411.05 1097.87 411.05 1058.99 478.38 1097.87 545.71"/><polygon class="cls-2" points="1213.85 748.22 1291.6 748.22 1330.48 680.89 1291.6 613.56 1213.85 613.56 1174.98 680.89 1213.85 748.22"/><polygon class="cls-2" points="1097.87 680.71 1175.62 680.71 1214.49 613.38 1175.62 546.05 1097.87 546.05 1058.99 613.38 1097.87 680.71"/><polygon class="cls-2" points="1097.85 815.22 1175.6 815.22 1214.48 747.89 1175.6 680.56 1097.85 680.56 1058.98 747.89 1097.85 815.22"/><polygon class="cls-2" points="1210.87 1017.71 1288.62 1017.71 1327.49 950.38 1288.62 883.05 1210.87 883.05 1171.99 950.38 1210.87 1017.71"/><polygon class="cls-2" points="1445.85 883.22 1523.6 883.22 1562.48 815.89 1523.6 748.56 1445.85 748.56 1406.98 815.89 1445.85 883.22"/><polygon class="cls-2" points="1329.87 815.71 1407.62 815.71 1446.49 748.38 1407.62 681.05 1329.87 681.05 1290.99 748.38 1329.87 815.71"/><polygon class="cls-2" points="1097.52 1085.28 1175.27 1085.28 1214.15 1017.94 1175.27 950.61 1097.52 950.61 1058.65 1017.94 1097.52 1085.28"/></g><g class="cls-1"><polygon class="cls-2" points="2106.11 950.63 2028.36 950.63 1989.48 883.3 2028.36 815.97 2106.11 815.97 2144.98 883.3 2106.11 950.63"/><polygon class="cls-2" points="2109.09 1085.12 2031.34 1085.12 1992.47 1017.79 2031.34 950.46 2109.09 950.46 2147.97 1017.79 2109.09 1085.12"/><polygon class="cls-2" points="1990.09 1018.12 1912.34 1018.12 1873.47 950.79 1912.34 883.46 1990.09 883.46 2028.97 950.79 1990.09 1018.12"/></g><g class="cls-1"><polygon class="cls-2" points="1911.91 882.72 1989.66 882.72 2028.54 815.38 1989.66 748.05 1911.91 748.05 1873.04 815.38 1911.91 882.72"/><polygon class="cls-2" points="1911.93 747.21 1989.68 747.21 2028.56 679.87 1989.68 612.54 1911.93 612.54 1873.06 679.87 1911.93 747.21"/><polygon class="cls-2" points="1679.92 883.96 1757.67 883.96 1796.55 816.63 1757.67 749.29 1679.92 749.29 1641.05 816.63 1679.92 883.96"/><polygon class="cls-2" points="1563.94 1086.45 1641.69 1086.45 1680.56 1019.12 1641.69 951.78 1563.94 951.78 1525.06 1019.12 1563.94 1086.45"/><polygon class="cls-2" points="1795.92 949.96 1873.67 949.96 1912.55 882.63 1873.67 815.29 1795.92 815.29 1757.05 882.63 1795.92 949.96"/><polygon class="cls-2" points="1795.94 814.45 1873.69 814.45 1912.56 747.12 1873.69 679.78 1795.94 679.78 1757.06 747.12 1795.94 814.45"/><polygon class="cls-2" points="1679.92 1017.21 1757.67 1017.21 1796.55 949.88 1757.67 882.55 1679.92 882.55 1641.05 949.88 1679.92 1017.21"/><polygon class="cls-2" points="1679.92 747.21 1757.67 747.21 1796.55 679.88 1757.67 612.55 1679.92 612.55 1641.05 679.88 1679.92 747.21"/><polygon class="cls-2" points="1795.94 1086.7 1873.69 1086.7 1912.56 1019.37 1873.69 952.04 1795.94 952.04 1757.06 1019.37 1795.94 1086.7"/><polygon class="cls-2" points="1911.92 1153.21 1989.67 1153.21 2028.55 1085.88 1989.67 1018.55 1911.92 1018.55 1873.05 1085.88 1911.92 1153.21"/><polygon class="cls-2" points="1563.85 814.81 1641.6 814.81 1680.47 747.48 1641.6 680.15 1563.85 680.15 1524.97 747.48 1563.85 814.81"/><polygon class="cls-2" points="1563.85 951.81 1641.6 951.81 1680.47 884.48 1641.6 817.15 1563.85 817.15 1524.97 884.48 1563.85 951.81"/><polygon class="cls-2" points="1679.71 1154.01 1757.46 1154.01 1796.33 1086.68 1757.46 1019.34 1679.71 1019.34 1640.83 1086.68 1679.71 1154.01"/></g></svg>