<svg xmlns="http://www.w3.org/2000/svg" viewBox="0 0 220.93 60.72"><defs><style>.cls-1{fill:#fff;}.cls-2{fill:#447981;}</style></defs><g id="Layer_2" data-name="Layer 2"><g id="Layer_1-2" data-name="Layer 1"><rect width="73.73" height="60.72" rx="11.42"/><path class="cls-1" d="M19.59,39.21a1.34,1.34,0,0,1-.92-.34,1.18,1.18,0,0,1-.35-.88,1.14,1.14,0,0,1,.35-.86,1.3,1.3,0,0,1,.92-.35,1.22,1.22,0,0,1,.9.35,1.12,1.12,0,0,1,.37.86,1.16,1.16,0,0,1-.37.88A1.25,1.25,0,0,1,19.59,39.21Zm1,1v8.21H18.54V40.18Zm6.6-.11a3.15,3.15,0,0,1,2.37.93,3.52,3.52,0,0,1,.9,2.58v4.81H28.41V43.86a2.1,2.1,0,0,0-.49-1.5,1.74,1.74,0,0,0-1.33-.53,1.81,1.81,0,0,0-1.37.53,2.15,2.15,0,0,0-.48,1.5v4.53H22.66V40.18h2.08v1a2.61,2.61,0,0,1,1.05-.83A3.21,3.21,0,0,1,27.21,40.07Zm10,8.43a5.31,5.31,0,0,1-2.67-.69,5.12,5.12,0,0,1-1.93-1.88A5.35,5.35,0,0,1,32,43.19a5.24,5.24,0,0,1,.71-2.71,5.17,5.17,0,0,1,1.93-1.9,5.41,5.41,0,0,1,2.67-.68,5.34,5.34,0,0,1,2.66.68,5,5,0,0,1,1.91,1.9,5.15,5.15,0,0,1,.71,2.71,5.26,5.26,0,0,1-.71,2.74,4.93,4.93,0,0,1-1.91,1.88A5.3,5.3,0,0,1,37.26,48.5Zm0-1.86a3.25,3.25,0,0,0,1.64-.41A3,3,0,0,0,40,45a3.9,3.9,0,0,0,.4-1.82,3.86,3.86,0,0,0-.4-1.81,2.93,2.93,0,0,0-1.11-1.2,3.25,3.25,0,0,0-1.64-.41,3.32,3.32,0,0,0-1.66.41,2.81,2.81,0,0,0-1.11,1.2,3.86,3.86,0,0,0-.4,1.81,3.9,3.9,0,0,0,.4,1.82,2.86,2.86,0,0,0,1.11,1.22A3.32,3.32,0,0,0,37.26,46.64Zm15.67,1.75H50.86l-4.7-7.09v7.09H44.09V38h2.07l4.7,7.11V38h2.07Zm4.13-8.67v2.6h3.48V44H57.06V46.7H61v1.69H55V38h6v1.68Z"/><path class="cls-1" d="M25.84,33.29l29.51-7.82a4.28,4.28,0,0,0,2.34-1.39A2.38,2.38,0,0,0,58.16,22a2.06,2.06,0,0,0-1.41-1.65,4.85,4.85,0,0,0-2.58-.14L44.08,22.33l-9-7.2L30.46,16.3,36.1,25l-8,2L24,23.55l-3.15.84Zm37.6,23.92h-53a6.35,6.35,0,0,1-4.68-2,6.41,6.41,0,0,1-1.95-4.7V37.24a6.39,6.39,0,0,0,4.68-2,6.64,6.64,0,0,0,0-9.4,6.35,6.35,0,0,0-4.68-2V10.6a6.43,6.43,0,0,1,2-4.7A6.38,6.38,0,0,1,10.39,4H63.44a6.35,6.35,0,0,1,4.68,2,6.43,6.43,0,0,1,1.95,4.7V50.55a6.41,6.41,0,0,1-1.95,4.7A6.32,6.32,0,0,1,63.44,57.21Zm0-6.66V10.6h-53v8.49A13.63,13.63,0,0,1,15.24,24a13.18,13.18,0,0,1,0,13.23,13.56,13.56,0,0,1-4.85,4.87v8.49Z"/><path class="cls-2" d="M95.55,39.21a1.36,1.36,0,0,1-.92-.34,1.22,1.22,0,0,1-.35-.88,1.18,1.18,0,0,1,.35-.86,1.32,1.32,0,0,1,.92-.35,1.26,1.26,0,0,1,.91.35,1.16,1.16,0,0,1,.37.86,1.2,1.2,0,0,1-.37.88A1.3,1.3,0,0,1,95.55,39.21Zm1,1v8.21H94.5V40.18Zm6.59-.11a3.15,3.15,0,0,1,2.37.93,3.49,3.49,0,0,1,.91,2.58v4.81h-2.08V43.86a2.1,2.1,0,0,0-.49-1.5,1.72,1.72,0,0,0-1.33-.53,1.79,1.79,0,0,0-1.36.53,2.1,2.1,0,0,0-.49,1.5v4.53H98.62V40.18h2.08v1a2.75,2.75,0,0,1,1-.83A3.24,3.24,0,0,1,103.17,40.07Zm10,8.43a5.31,5.31,0,0,1-2.67-.69,5,5,0,0,1-1.92-1.88,5.26,5.26,0,0,1-.71-2.74,5.15,5.15,0,0,1,.71-2.71,5.08,5.08,0,0,1,1.92-1.9,5.41,5.41,0,0,1,2.67-.68,5.35,5.35,0,0,1,2.67.68,5,5,0,0,1,1.91,1.9,5.24,5.24,0,0,1,.71,2.71,5.35,5.35,0,0,1-.71,2.74,5,5,0,0,1-1.91,1.88A5.31,5.31,0,0,1,113.22,48.5Zm0-1.86a3.25,3.25,0,0,0,1.64-.41A2.86,2.86,0,0,0,116,45a3.9,3.9,0,0,0,.4-1.82,3.86,3.86,0,0,0-.4-1.81,2.81,2.81,0,0,0-1.11-1.2,3.25,3.25,0,0,0-1.64-.41,3.35,3.35,0,0,0-1.66.41,2.93,2.93,0,0,0-1.11,1.2,3.86,3.86,0,0,0-.4,1.81,3.9,3.9,0,0,0,.4,1.82,3,3,0,0,0,1.11,1.22A3.35,3.35,0,0,0,113.22,46.64Zm15.68,1.75h-2.08l-4.69-7.09v7.09h-2.08V38h2.08l4.69,7.11V38h2.08ZM133,39.72v2.6h3.48V44H133V46.7H137v1.69h-6V38h6v1.68Z"/><path class="cls-2" d="M101.8,33.29l29.51-7.82a4.28,4.28,0,0,0,2.35-1.39,2.38,2.38,0,0,0,.47-2.12,2.06,2.06,0,0,0-1.41-1.65,4.87,4.87,0,0,0-2.58-.14L120,22.33l-9-7.2-4.64,1.17,5.63,8.7-8,2L100,23.55l-3.15.84Zm37.61,23.92H86.35a6.68,6.68,0,0,1-6.63-6.66V37.24a6.66,6.66,0,0,0,6.63-6.66,6.44,6.44,0,0,0-1.94-4.7,6.36,6.36,0,0,0-4.69-2V10.6a6.43,6.43,0,0,1,2-4.7A6.38,6.38,0,0,1,86.35,4h53.06a6.38,6.38,0,0,1,4.68,2A6.43,6.43,0,0,1,146,10.6V50.55a6.68,6.68,0,0,1-6.63,6.66Zm0-6.66V10.6H86.35v8.49A13.55,13.55,0,0,1,91.2,24a13.12,13.12,0,0,1,0,13.23,13.48,13.48,0,0,1-4.85,4.87v8.49Z"/><path d="M170.44,39.21a1.31,1.31,0,0,1-.91-.34,1.19,1.19,0,0,1-.36-.88,1.15,1.15,0,0,1,.36-.86,1.28,1.28,0,0,1,.91-.35,1.26,1.26,0,0,1,.91.35,1.12,1.12,0,0,1,.37.86,1.16,1.16,0,0,1-.37.88A1.3,1.3,0,0,1,170.44,39.21Zm1,1v8.21h-2.08V40.18Zm6.59-.11a3.15,3.15,0,0,1,2.37.93,3.49,3.49,0,0,1,.91,2.58v4.81h-2.08V43.86a2.15,2.15,0,0,0-.48-1.5,1.75,1.75,0,0,0-1.34-.53,1.79,1.79,0,0,0-1.36.53,2.1,2.1,0,0,0-.49,1.5v4.53h-2.07V40.18h2.07v1a2.75,2.75,0,0,1,1-.83A3.24,3.24,0,0,1,178.06,40.07Zm10.05,8.43a5.31,5.31,0,0,1-2.67-.69,5,5,0,0,1-1.92-1.88,5.26,5.26,0,0,1-.71-2.74,5.15,5.15,0,0,1,.71-2.71,5.08,5.08,0,0,1,1.92-1.9,5.41,5.41,0,0,1,2.67-.68,5.35,5.35,0,0,1,2.67.68,5,5,0,0,1,1.91,1.9,5.24,5.24,0,0,1,.71,2.71,5.35,5.35,0,0,1-.71,2.74,5,5,0,0,1-1.91,1.88A5.31,5.31,0,0,1,188.11,48.5Zm0-1.86a3.31,3.31,0,0,0,1.65-.41A3,3,0,0,0,190.87,45a4,4,0,0,0,.4-1.82,4,4,0,0,0-.4-1.81,2.93,2.93,0,0,0-1.11-1.2,3.31,3.31,0,0,0-1.65-.41,3.38,3.38,0,0,0-1.66.41,2.93,2.93,0,0,0-1.11,1.2,3.86,3.86,0,0,0-.4,1.81,3.9,3.9,0,0,0,.4,1.82,3,3,0,0,0,1.11,1.22A3.38,3.38,0,0,0,188.11,46.64Zm15.68,1.75h-2.08L197,41.3v7.09h-2.08V38H197l4.69,7.11V38h2.08Zm4.12-8.67v2.6h3.48V44h-3.48V46.7h3.93v1.69h-6V38h6v1.68Z"/><path d="M176.69,33.29l29.51-7.82a4.28,4.28,0,0,0,2.35-1.39A2.38,2.38,0,0,0,209,22a2.06,2.06,0,0,0-1.41-1.65,4.86,4.86,0,0,0-2.58-.14l-10.1,2.16-9-7.2-4.64,1.17L187,25l-8,2-4.16-3.44-3.15.84ZM214.3,57.21H161.25a6.67,6.67,0,0,1-6.64-6.66V37.24a6.67,6.67,0,0,0,6.64-6.66,6.67,6.67,0,0,0-6.64-6.66V10.6a6.43,6.43,0,0,1,1.95-4.7A6.39,6.39,0,0,1,161.25,4H214.3a6.38,6.38,0,0,1,4.68,2,6.43,6.43,0,0,1,2,4.7V50.55a6.68,6.68,0,0,1-6.63,6.66Zm0-6.66V10.6H161.25v8.49A13.61,13.61,0,0,1,166.09,24a13.12,13.12,0,0,1,0,13.23,13.53,13.53,0,0,1-4.84,4.87v8.49Z"/></g></g></svg>