<svg width="223" height="151" viewBox="0 0 223 151" fill="none" xmlns="http://www.w3.org/2000/svg">
<path d="M44.88 99.96C43.844 99.96 42.976 99.638 42.276 98.994C41.604 98.322 41.268 97.496 41.268 96.516C41.268 95.536 41.604 94.724 42.276 94.08C42.976 93.408 43.844 93.072 44.88 93.072C45.916 93.072 46.77 93.408 47.442 94.08C48.142 94.724 48.492 95.536 48.492 96.516C48.492 97.496 48.142 98.322 47.442 98.994C46.77 99.638 45.916 99.96 44.88 99.96ZM47.778 102.732V126H41.898V102.732H47.778ZM66.4815 102.396C69.2535 102.396 71.4935 103.278 73.2015 105.042C74.9095 106.778 75.7635 109.214 75.7635 112.35V126H69.8835V113.148C69.8835 111.3 69.4215 109.886 68.4975 108.906C67.5735 107.898 66.3135 107.394 64.7175 107.394C63.0935 107.394 61.8055 107.898 60.8535 108.906C59.9295 109.886 59.4675 111.3 59.4675 113.148V126H53.5875V102.732H59.4675V105.63C60.2515 104.622 61.2455 103.838 62.4495 103.278C63.6815 102.69 65.0255 102.396 66.4815 102.396ZM94.963 126.294C92.219 126.294 89.699 125.65 87.403 124.362C85.107 123.074 83.287 121.296 81.943 119.028C80.599 116.732 79.927 114.142 79.927 111.258C79.927 108.402 80.599 105.84 81.943 103.572C83.287 101.276 85.107 99.484 87.403 98.196C89.699 96.908 92.219 96.264 94.963 96.264C97.735 96.264 100.255 96.908 102.523 98.196C104.819 99.484 106.625 101.276 107.941 103.572C109.285 105.84 109.957 108.402 109.957 111.258C109.957 114.142 109.285 116.732 107.941 119.028C106.625 121.296 104.819 123.074 102.523 124.362C100.227 125.65 97.707 126.294 94.963 126.294ZM94.963 121.044C96.727 121.044 98.281 120.652 99.625 119.868C100.969 119.056 102.019 117.908 102.775 116.424C103.531 114.94 103.909 113.218 103.909 111.258C103.909 109.298 103.531 107.59 102.775 106.134C102.019 104.65 100.969 103.516 99.625 102.732C98.281 101.948 96.727 101.556 94.963 101.556C93.199 101.556 91.631 101.948 90.259 102.732C88.915 103.516 87.865 104.65 87.109 106.134C86.353 107.59 85.975 109.298 85.975 111.258C85.975 113.218 86.353 114.94 87.109 116.424C87.865 117.908 88.915 119.056 90.259 119.868C91.631 120.652 93.199 121.044 94.963 121.044ZM139.406 126H133.526L120.212 105.882V126H114.332V96.642H120.212L133.526 116.802V96.642H139.406V126ZM151.096 101.43V108.78H160.966V113.442H151.096V121.212H162.226V126H145.216V96.642H162.226V101.43H151.096Z" fill="white"/>
<path d="M62.5877 83.1888L146.248 61.0107C148.598 60.3815 151.572 59.0724 152.903 57.0678C154.234 55.0633 154.861 53.4137 154.234 51.0543C153.702 49.0498 152.844 47.2483 150.241 46.3771C148.244 45.709 145.27 45.3608 142.92 45.9899L114.303 52.1243L88.8632 31.7151L75.7031 35.0182L91.6902 59.6743L69.1302 65.3368L57.347 55.5841L48.417 57.9435L62.5877 83.1888ZM169.2 151H18.8C13.63 151 9.20417 149.152 5.5225 145.455C1.84083 141.759 0 137.316 0 132.125V94.375C5.17 94.375 9.59583 92.5268 13.2775 88.8305C16.9592 85.1341 18.8 80.6906 18.8 75.5C18.8 70.3094 16.9592 65.8659 13.2775 62.1695C9.59583 58.4732 5.17 56.625 0 56.625V18.875C0 13.6844 1.84083 9.24089 5.5225 5.54453C9.20417 1.84818 13.63 0 18.8 0H169.2C174.37 0 178.796 1.84818 182.477 5.54453C186.159 9.24089 188 13.6844 188 18.875V132.125C188 137.316 186.159 141.759 182.477 145.455C178.796 149.152 174.37 151 169.2 151ZM169.2 132.125V18.875H18.8V42.9406C24.5967 46.401 29.1792 51.0018 32.5475 56.743C35.9158 62.4841 37.6 68.7365 37.6 75.5C37.6 82.2635 35.9158 88.5159 32.5475 94.257C29.1792 99.9982 24.5967 104.599 18.8 108.059V132.125H169.2Z" fill="white"/>
</svg>
