<svg xmlns="http://www.w3.org/2000/svg" viewBox="0 0 730.26 272.15"><defs><style>.cls-1{fill:none;stroke:#000;stroke-linecap:round;stroke-linejoin:round;stroke-width:7px;}</style></defs><g id="Layer_2" data-name="Layer 2"><g id="Layer_5" data-name="Layer 5"><path class="cls-1" d="M3.5,164.35A372.31,372.31,0,0,1,32.64,76.06C19,106.66,15.68,135.2,5,164A191.43,191.43,0,0,1,40.1,93.59C45.06,87.33,50.65,81.21,58,78c-2,29.32-19.48,56.24-19.66,85.64"/><path class="cls-1" d="M53.81,158A549.77,549.77,0,0,1,72,99.48"/><path class="cls-1" d="M81,83.82h1.3"/><path class="cls-1" d="M117.18,95.72c-3.66-4.65-11.16-1.93-15.86,1.67a74.48,74.48,0,0,0-23.93,31.93c-1.94,5-3.27,10.88-.62,15.54,3.25,5.7,11.35,7,17.45,4.58s10.66-7.52,15-12.46"/><path class="cls-1" d="M126.7,114.16c8.07-1.91,15.61-5.89,17.72-14.68.71-3,.77-8.11-2.2-8.73a85.17,85.17,0,0,0-23.75,49c-.55,4.45-.21,9.94,3.75,12s8.7-.75,11.67-4.06a32.76,32.76,0,0,0,8.28-22.28"/><path class="cls-1" d="M226.7,34Q212.06,92.42,202,151.83"/><path class="cls-1" d="M194.2,107.28A95.77,95.77,0,0,0,230.62,102"/><path class="cls-1" d="M248,121a18.36,18.36,0,0,0-.13-6.19c-.42-2.16-2.26-4.21-4.45-4.07-1.68.1-3,1.38-4.1,2.66-7.8,9.25-10.74,31.45-5.7,34.13,7.68,3,11-11.08,13-19.82Z"/><path class="cls-1" d="M294.87,154.33c1.21-14.24-.69-31.23,3.3-45l-3.47,47.21a75.94,75.94,0,0,1,22.35-51.85A152.23,152.23,0,0,1,314.89,146c3-17.63,7.21-37.21,22-47.21a418.57,418.57,0,0,1-3.36,51"/><path class="cls-1" d="M352.93,126.82a39.64,39.64,0,0,0,22.48-17.42c1.3-2.15,2.21-5.35.19-6.85-1.82-1.36-4.38-.06-6.18,1.33a58,58,0,0,0-21.34,35.6c-1,5.77-.17,13.19,5.31,15.26,2.87,1.09,6.14.23,8.88-1.17a24.38,24.38,0,0,0,13-20.28"/><path class="cls-1" d="M388.27,124.8c11-2.61,19.23-13.77,18.5-25-17.12,11.72-26.27,34-22.29,54.41,5.21.81,10.47-2,14-5.9s5.63-8.9,7.67-13.76"/><path class="cls-1" d="M438.55,39.54q-5.93,43.29-11.67,86.6c-1.51,11.58-3,23.5-.09,34.81"/><path class="cls-1" d="M418.13,115.63a30.3,30.3,0,0,0,27.95-10.37"/><path class="cls-1" d="M661.22,106c-14.08-11.36-18.3-33.25-9.44-49,5.81-10.36,15.94-17.4,25.12-25s18.14-16.8,20-28.54c22.07,11.71,33.64,39.23,28.83,63.74s-24.43,44.91-48,53.07c-.79.27-1.84.46-2.31-.23s1.14-1.46,1-.63"/><path class="cls-1" d="M696.15,5.73a240,240,0,0,1-60.8,147.09"/><path class="cls-1" d="M487.08,119a42.52,42.52,0,0,0-5.16,23.14c.14,2.26.86,5,3.05,5.56,1.76.48,3.5-.75,4.86-2a51.84,51.84,0,0,0,16.73-33c.27,54-29.37,103.11-59.92,147.6-3,4.31-7.19,9.16-12.32,8.14-3-.59-5.22-3.12-6.56-5.84-4.09-8.32-1.33-18.69,4.33-26s78.5-62.4,88.72-92.92"/><path class="cls-1" d="M547,123.81c-2.72-3-9.15-2.46-13-1.08s-6.25,5.13-8.34,8.64c-2.28,3.85-4.6,7.9-4.84,12.36s2.29,9.42,6.67,10.35c4.54,1,8.75-2.55,11.78-6.08,3.91-4.55,7.35-9.78,8.33-15.7C547.59,132.3,548.85,125.89,547,123.81Z"/><path class="cls-1" d="M563.69,118.87a60.94,60.94,0,0,0-8.28,26.64c-.2,2.93.06,6.37,2.49,8,3,2,7.05-.1,9.78-2.49a49.91,49.91,0,0,0,16.55-31.61L581.63,154c-.25,3.36,0,7.63,3.18,8.85"/></g></g></svg>