<svg xmlns="http://www.w3.org/2000/svg" viewBox="0 0 776.91 492.89"><defs><style>.cls-1,.cls-2,.cls-3{fill:none;stroke:#000;stroke-linecap:round;stroke-linejoin:round;}.cls-1{stroke-width:8px;}.cls-2{stroke-width:8.54px;}.cls-3{stroke-width:9.16px;}</style></defs><g id="Layer_2" data-name="Layer 2"><g id="Layer_5" data-name="Layer 5"><path class="cls-1" d="M4,271.57c44.39-72,73.69-152,102.68-231.45A773.55,773.55,0,0,0,67.77,216.2c-2.14,21.24-5.49,73.26,2.07,59.34,45.72-84.17,67.58-178,88-271.54"/><path class="cls-1" d="M100.41,263.62l-2.51,1q8.19-25.51,18.8-50.17"/><path class="cls-1" d="M119.53,198.61c.44-1.67,3.62-.88,3.22.8"/><path class="cls-1" d="M154.17,215.5a3.6,3.6,0,0,0-3.6-2.56,9,9,0,0,0-4.48,1.52,43.53,43.53,0,0,0-20.83,29.89c-.93,5.48-.37,12,4.14,15.25,3.25,2.33,7.64,2.25,11.54,1.4a34.82,34.82,0,0,0,19-11.41"/><path class="cls-1" d="M170,227.33a37.52,37.52,0,0,0,14.87-14.19c1.61-2.77,2.76-6.57.59-8.92-5.72,1.16-10.65,5-14.11,9.67s-5.62,10.21-7.35,15.78c-2.58,8.34-3.78,18.72,2.63,24.64A27.46,27.46,0,0,0,187,239.2"/><path class="cls-1" d="M288.39,47.21a1160.62,1160.62,0,0,0-48.07,187.2c-2.7,15.88-5.06,32.11-2.59,48"/><path class="cls-1" d="M233,149a208.11,208.11,0,0,0,42.86-17.52"/><path class="cls-1" d="M272.75,237.27a6.15,6.15,0,0,0-5.74-5c-3.27-.25-5.31,3.38-6.38,6.47-3.5,10.07-5.64,21.58-.82,31.08,7,2.75,9.49-6.87,11.36-13,2.31-7.58,1.73-6.5,2.17-14.42C273.34,242.47,273,238.31,272.75,237.27Z"/><path class="cls-2" d="M327.79,278.74C341.46,226.21,351,167.23,373.31,117a1224.91,1224.91,0,0,0-45.52,161.72,381.54,381.54,0,0,1,33.42-100.81c8.41-17.05,18.75-34.27,36-45.09-17.45,44.92-35,90.08-44,136.87,18.18-49.33,36.78-99.42,70.09-142.25-15.91,40.94-31.83,82-43.13,124.07-3.14,11.73-5.91,24.09-2.17,35.68"/><path class="cls-3" d="M400.79,238.13c12-3.1,19.84-14,19.23-30.2-4.88-.39-8.87,4.87-11.73,10.07a112.69,112.69,0,0,0-12.54,39.38c-1.07,8.21-1.15,17.3,2.49,24.13,10.76-3.31,25.73-22.28,31.4-34.72"/><path class="cls-1" d="M430,245.88c3-1.17,4.77-1.69,7.86-4.5a93.4,93.4,0,0,0,20.92-27.75c1.48-3,2.77-6.73.94-9.55-6.39,1.74-10.95,7.28-14.67,12.76A140.27,140.27,0,0,0,424,266.39c-1.12,5.31-1.5,11.86,2.85,15.12,13.62-6.24,21.59-20.32,28.66-33.53"/><path class="cls-1" d="M512.93,51.77A1120.4,1120.4,0,0,0,477.63,256c-.08,1,0,2.32,1,2.6"/><path class="cls-1" d="M471.86,178.92l35.48-9.58"/><path class="cls-1" d="M561.5,202.5a107.46,107.46,0,0,0-20,51c3.71.7,7.11-2,9.8-4.68a159.05,159.05,0,0,0,38.24-60.07c-16.06,78.74-32.15,157.65-56.72,234.16-4.51,14-9.4,28.17-17.7,40.36s-20.52,22.36-35,25.15c-7.33,1.42-16.47,0-19.6-6.82-1.79-3.89-1.06-8.44-.09-12.61,12-51.85,52.27-91.5,87.87-131.07,40.21-44.7,55.27-51,72-102.69"/><path class="cls-1" d="M619.53,264.9c7.68,4,24.67-24.74,11.15-31.46C615.89,226.09,611.6,260.79,619.53,264.9Z"/><path class="cls-1" d="M660.59,218.72c-4.09,11.83-7.07,30.29-8.89,42.68-.61,4.12-1,8.59,1,12.21,4.27-1.91,6.78-6.32,8.93-10.48q9.6-18.56,17.54-37.91c2.28-5.56,4.48-11.31,4.64-17.31a231.06,231.06,0,0,0-13.62,63,9.31,9.31,0,0,0,.46,4.67"/><path class="cls-1" d="M749.2,166.55c.48,1.58-1.27,3.14-2.92,3.08a6.65,6.65,0,0,1-4.23-2.34,28.85,28.85,0,0,1-7.55-26.54,153.51,153.51,0,0,1,11.36,14.42c7.56-5.39,17.77-12.66,27-12.95a197,197,0,0,1-26.55,23.68C746,166.79,748.53,167.26,749.2,166.55Z"/></g></g></svg>