<svg xmlns="http://www.w3.org/2000/svg" viewBox="0 0 831.2 307.17"><defs><style>.cls-1,.cls-2{fill:none;stroke:#000;stroke-linecap:round;stroke-linejoin:round;}.cls-1{stroke-width:8px;}.cls-2{stroke-width:7px;}</style></defs><g id="Layer_2" data-name="Layer 2"><g id="Layer_5" data-name="Layer 5"><path class="cls-1" d="M4,163.23c16.49.07,31.88-7.94,45.82-16.75A342.08,342.08,0,0,0,169,17.71Q135.12,79.82,107.31,145a1487.78,1487.78,0,0,1,97-115.27c-21.46,33-43,66-60.59,101.22-7.89,15.73-15.15,33.24-11.55,50.46"/><path class="cls-1" d="M185.2,130.67c.57-3.16,1.77-4.29.9-7.38s-3.6-5.92-6.81-5.75c-2.06.11-3.85,1.37-5.47,2.64a86.61,86.61,0,0,0-28.89,41.58c-1.8,5.66-2.92,12.18.13,17.29,5.59,1.06,10.46-3.67,14-8.11a219.45,219.45,0,0,0,29.42-48.27,145,145,0,0,0-11.13,38.21c-.83,5.66-.65,12.74,4.39,15.46a10.86,10.86,0,0,0,3.68-8"/><path class="cls-1" d="M197.12,161.86a197.82,197.82,0,0,1,10.85-60,300.12,300.12,0,0,0-10.85,57.44c.75-12.19,3.8-24.69,9.75-35.36s17.25-19.15,29.45-18.46"/><path class="cls-1" d="M264.83,126.67c1.72-4.31-2.23-9.22-6.78-10.12s-9.16,1.06-13.21,3.32c-13,7.26-24.56,19.89-24.5,34.78,0,5,2.63,11.09,7.65,11.22,2.76.07,5.17-1.75,7.23-3.59,11-9.79,19.86-26.17,23.85-40.32-.55,6-1.9,15.32-2.45,21.27-.85,9.24-1.55,19.2,3.23,27.16,2.69,0,5.07-3.32,6.37-10.55"/><path class="cls-1" d="M308.18,12.59a680.43,680.43,0,0,1-27.27,169.54"/><path class="cls-1" d="M311.29,16.83c11.73-7.89,48.1-21.92,53.5-1.08,3.76,14.54-8.1,47.79-60.44,66.3"/><path class="cls-1" d="M311.57,140.09c14.94.37,31.76-11.46,30.68-22.19-.32-3.09-5.42-1.91-8-.18a83.45,83.45,0,0,0-30.89,38.49c-1.68,4.29-2.74,9.81.62,12.94,2.83,2.65,7.33,2.11,11.05,1a54.93,54.93,0,0,0,29.51-21.77"/><path class="cls-1" d="M392.08,119.1c2-4.93,3-9.49,1.24-14.48-.78-2.13-2.1-4.32-4.27-5-3.1-.94-6.1,1.63-8.21,4.09a88.63,88.63,0,0,0-21,51.36c-.2,2.93,0,6.45,2.56,8,3.54,2.15,7.71-1.53,10.08-4.92a152.5,152.5,0,0,0,24.69-58.58c-7.41,21.83-10.16,40.58-8.07,63.55,2.48,0,4.61-.62,7.23-10.7"/><path class="cls-1" d="M430.22,93.49a47.25,47.25,0,0,0-24.05,30.2c7.33,3,14.63-5.37,22.55-5.43,4.66,0,9,3,11.43,7s3.28,8.73,3.41,13.39c.67,24.52-19.26,47.9-43.58,51.11-4.52.6-9.63.38-12.91-2.79s-2.62-10.05,1.83-11"/><path class="cls-1" d="M491.46,4a1160.87,1160.87,0,0,0-31.29,159.46c-1,8.38-1.85,17.47,2.5,24.71"/><path class="cls-1" d="M484.84,137.55c8.23,4.19,27.56-13.21,20.19-21.29-5.67-6.22-24.35,25.81-28,42.9-.88,4.16-.71,9.67,3.24,11.25,1.92.76,4.1.25,6-.46a34.43,34.43,0,0,0,18.86-16.77"/><path class="cls-1" d="M534.93,114.88C525,130.59,520.3,163.64,521.87,168c3.77,10.54,38.1-42.82,46.46-69.93,1,34.65.75,69.62-6.18,103.59s-20.93,67.15-44.53,92.55c-6.55,7.06-19,13.12-24.48,5.19-2.74-4-1.67-9.4,0-13.94,6.5-17.89,19.9-32.34,33.76-45.39,30.57-28.78,65.1-53.44,93.17-84.67S669.82,84.1,667.14,42.2"/><path class="cls-2" d="M817.5,119.79c2.17,1.11-82.72,16.9-114.44-.32-8.68-4.71-17.46-11.58-18.95-21.34,4.32-10.43,21.49-16.56,32.37-19.58,31.11-8.62,66.71,1.87,88.18,26C805.74,105.75,818.94,120.56,817.5,119.79Z"/><path class="cls-2" d="M690,151.26,752.06,9a696.71,696.71,0,0,0-36.83,128.52c-.76,4.11,1.32,10.54,5,8.62Q746.54,81.3,772.81,16.44C745,80.58,734.73,153.62,726.2,223"/><path class="cls-2" d="M782,34.49,726.2,224.13"/><path class="cls-2" d="M777.73,46.88c13.14-5.09,28.67-7.59,41.77-6.27,3.32.33,9.13,1.51,8.07,5.68C823.36,63,779.16,87.11,764.73,96.08"/></g></g></svg>