<svg xmlns="http://www.w3.org/2000/svg" viewBox="0 0 171.11 58.01"><defs><style>.cls-1,.cls-2{fill:none;stroke:#000;stroke-linecap:round;stroke-linejoin:round;}.cls-1{stroke-width:2.23px;}.cls-2{stroke-width:2px;}</style></defs><g id="Layer_2" data-name="Layer 2"><g id="Layer_5" data-name="Layer 5"><path class="cls-1" d="M1.11,33.14a220.18,220.18,0,0,1,5.39-31c.39,7.1,1.8,22.9,3,24.61A62.9,62.9,0,0,1,17,4.56c.51,9-2.27,18.14-.37,27"/><path class="cls-2" d="M29.76,19.71c-.72-1.8-2.06-4-4-3.57a3.58,3.58,0,0,0-2.05,1.63C21.38,21.14,20,30.3,22.51,29.54a34,34,0,0,0,6.55-15.86,41,41,0,0,0-.93,18.13"/><path class="cls-2" d="M35.72,29.68l1.77-15-.81,14.67a20.75,20.75,0,0,1,3.54-9.48c1.59-2.29,4.38-4.42,7-3.33"/><path class="cls-2" d="M57.39,20.15c.21-1.95-2.33-3.28-4.17-2.6S50.29,20.12,49.63,22a20.17,20.17,0,0,0-1.17,7.34c0,.76.17,1.67.86,2s1.7-.3,2.29-1a20.29,20.29,0,0,0,4.71-13.09,64.3,64.3,0,0,0,0,15.5"/><path class="cls-2" d="M73.21,30.43q0-14,.55-28.06a8,8,0,0,1,5.52-1.3A6.44,6.44,0,0,1,83.8,3.68a6.08,6.08,0,0,1,.46,4.56,11.42,11.42,0,0,1-3.16,6,7.43,7.43,0,0,1-6.34,2.06,1.26,1.26,0,0,1-1-.61"/><path class="cls-2" d="M87.05,20.23A7.36,7.36,0,0,0,93.61,15a1.52,1.52,0,0,0,0-1c-.36-.84-1.62-.59-2.39-.1a11.6,11.6,0,0,0-5.38,9.59A4.57,4.57,0,0,0,86.43,26c1,1.54,3.36,1.71,4.95.77a8.71,8.71,0,0,0,3.26-4.35"/><path class="cls-2" d="M109,16.8c-1.57-2.44-6.18-2.49-8.18-.38a9.65,9.65,0,0,0-2.22,8.34c.32,1.47.77,2.22,1.82,2.68.73.33,1.53-.33,2.11-.89A15.17,15.17,0,0,0,107,16.28c-.29,4.8-1.73,9.42-.66,14"/><path class="cls-2" d="M120,14a4.5,4.5,0,0,0-3.29,0,2.45,2.45,0,0,0-1.41,2.76,3.12,3.12,0,0,0,1.29,1.54c1.43,1,3.16,1.41,4.69,2.23s3,2.24,2.93,4a4.57,4.57,0,0,1-1.48,3c-2,2-5.2,3-7.65,1.61s-3.14-5.36-.88-7"/><path class="cls-2" d="M130.9,4.12l-3.57,25.56"/><path class="cls-2" d="M134.82,17.56c-.2.68.87.61,1.58.62,2.24,0,6.74-3.93,5.21-5.43a11.35,11.35,0,0,0-8.67,11.87,4.54,4.54,0,0,0,1.31,3,3.86,3.86,0,0,0,4.45,0,10.31,10.31,0,0,0,3.08-3.59"/><path class="cls-2" d="M146.93,13.66a10.73,10.73,0,0,0-1.08,5.73,2.58,2.58,0,0,0,.86,1.95c1.08.73,2.48-.25,3.35-1.22a34.26,34.26,0,0,0,6.87-11.71,81.19,81.19,0,0,1-10.16,38.92c-2.24,4-7,10.07-9.44,9.66-2.48,0-1.7-4.79-.62-7.05a18,18,0,0,1,4.91-5.63q9.84-8.49,20.4-16.12c4.1-3,8.8-7,8-12"/></g></g></svg>