<svg xmlns="http://www.w3.org/2000/svg" viewBox="0 0 1024 80.44"><defs><style>.cls-1{opacity:0.75;}.cls-2{fill:#ffe6ee;}.cls-3{fill:#ffb4ae;}</style></defs><g id="Layer_2" data-name="Layer 2"><g id="Layer_2-2" data-name="Layer 2"><g class="cls-1"><polygon class="cls-2" points="1024 38.31 1011.89 27.76 1006.63 25.47 1003.51 21.11 999.17 19.95 993.1 19.95 977.48 19.95 968.16 21.36 961 19.95 951.24 21.36 945.17 18.87 936.06 20.82 927.6 18.87 916.54 22.77 910.69 20.82 897.24 22.77 888.13 22.77 880.33 24.94 870.57 23.2 867.53 24.94 864.06 28.63 858.86 32.75 848.45 33.83 842.59 35.35 820.9 28.84 812.01 28.63 805.29 28.84 797.26 31.45 780.57 32.1 771.46 28.84 759.75 30.8 747.39 31.66 738.71 29.28 726.13 24.51 720.06 25.59 707.48 30.36 697.29 29.71 691.22 31.66 676.9 33.83 668.88 36.65 653.48 35.13 642.64 29.49 629.63 27.76 622.9 21.47 616.18 16.7 608.16 7.16 601.87 8.02 593.63 11.93 585.6 14.31 577.36 19.3 570.86 16.7 561.96 14.31 556.11 14.31 550.9 15.62 542.66 13.23 534.86 14.31 523.35 14.31 512 9.11 497.34 13.45 482.59 10.41 469.36 14.31 461.34 11.93 450.71 11.28 438.13 10.63 424.9 8.46 417.1 10.84 409.07 9.98 403.43 11.49 396.06 4.99 387.17 4.12 381.31 1.74 364.4 1.74 359.41 3.25 352.04 1.74 344.66 3.25 337.72 1.74 329.26 5.64 321.46 5.64 308.88 7.59 297.17 6.72 284.16 8.89 266.37 4.99 250.76 0 241.87 3.9 233.19 3.04 223 8.46 218.23 9.76 209.77 8.68 201.96 9.98 191.77 9.76 173.55 13.45 166.61 11.49 154.47 13.23 143.63 8.68 134.3 14.31 124.54 12.79 118.69 11.49 109.8 12.79 102.2 10.41 95.48 13.23 83.55 12.36 69.02 17.35 57.31 15.61 49.51 17.13 43.65 16.05 38.66 18.32 27.82 14.31 21.75 14.31 13.94 18.32 0 18.8 3.85 25.5 4.29 31.57 0 38.31 0 69.29 1012.12 63.2 1024 38.31"/><path class="cls-3" d="M0,44.13,25.81,36l6.07,3.9,17.35-8.24L87.4,37.73,103,31.66h29.5l20-8.67,19.95,6.07,40.77-11.28h11.28l5.64-1.73h9.11l14.31-1.74,6.94,4.56,8.67,1.52,1.09,2.81,10.63-5.42,16.26-.65,4.55,3.69,13.67-3.25,8,3,7.16.22,2.82,3.25,3.9-2.17,4.12,2.39,10.41-2.17,10-.22L365,19.52l9.11,3.68,2.17,2.17,6.29-3L391,29.06,395.57,28l4.12,3,5-2,3.68,1.3,5.43-2.82,3.9,1.52L424,26.67l6.94,2.39h7.59l5,3,2.82-1.74,2.16,2.17L453.25,31l2,1.3V38l2-.65,3-3.69,2.82,2,3.26-.87L468,35.78l4.12,6.29,4.77-4.55L480.58,39l1.74-.65,2.81,2.38,7.38-2,4.77,3,2.82-2.61,1.52-.21,6.86,3.25V39.9l4.41-2.82h4.77l-1.73,4.34,4.12,5.64,3.24.87-1.94-3.47.22-3.91,3.25,3,9.76-.65,2.6.22v3.25l5.64-1.08.87-1.74,3.9,3v2.82H550l3.25-1.31V51l2.17.87v3L562.12,57l-3.47-3,3.47-2.6,24.94-1.3,9.76-3.69L604,50.1l4.77-1.3v1.3l8.67-3.47,3.91-2.39v3.25h8.89l5.42,1.74,5.21-.87,2.38-1.08,4.56,1.52L656.68,51l8.89-1.73,1.3,3.9,6.72-3.68,6.94-3.26.87-1.95,4.12,2.17,5.42-1.3,26,2.82,40.77-7.81,5,2.82,5.86-.43,13.88,1.3,26.24-1.52,5.86,2,14.09-5.85,9.33,2,6.29-1.74,3.25,1.74,10.41-2.82,2,1.95,8.68-5.64V37.3l13.66-1.63,4.34,3.15s6.07-4.12,6.94-4.34l8.24-1.95v5.64l7.37-2.5,4.12,3.8,6.72-3.8,6.94,1.63,5-1.63L936,37.08l4.34-2.6,6.51,1.19v4.88l2.81.44,4.13-3.91,4.55.22,1.52-2.6,5.85-2,7.81-2.17,2.6-2.6.87-2.39,4.12,1.52,5.42-1.95,5.64-.65,3-.65,6.72.43,22.07,14V80.44H0Z"/></g></g></g></svg>