<svg xmlns="http://www.w3.org/2000/svg" viewBox="0 0 1024 80.44"><g style="opacity:.75" data-name="Layer 2"><path style="fill:#ffe6ee" d="m1024 38.31-12.11-10.55-5.26-2.29-3.12-4.36-4.34-1.16H977.48l-9.32 1.41-7.16-1.41-9.76 1.41-6.07-2.49-9.11 1.95-8.46-1.95-11.06 3.9-5.85-1.95-13.45 1.95h-9.11l-7.8 2.17-9.76-1.74-3.04 1.74-3.47 3.69-5.2 4.12-10.41 1.08-5.86 1.52-21.69-6.51-8.89-.21-6.72.21-8.03 2.61-16.69.65-9.11-3.26-11.71 1.96-12.36.86-8.68-2.38-12.58-4.77-6.07 1.08-12.58 4.77-10.19-.65-6.07 1.95-14.32 2.17-8.02 2.82-15.4-1.52-10.84-5.64-13.01-1.73-6.73-6.29-6.72-4.77-8.02-9.54-6.29.86-8.24 3.91-8.03 2.38-8.24 4.99-6.5-2.6-8.9-2.39h-5.85l-5.21 1.31-8.24-2.39-7.8 1.08h-11.51L512 9.11l-14.66 4.34-14.75-3.04-13.23 3.9-8.02-2.38-10.63-.65-12.58-.65-13.23-2.17-7.8 2.38-8.03-.86-5.64 1.51-7.37-6.5-8.89-.87-5.86-2.38H364.4l-4.99 1.51-7.37-1.51-7.38 1.51-6.94-1.51-8.46 3.9h-7.8l-12.58 1.95-11.71-.87-13.01 2.17-17.79-3.9L250.76 0l-8.89 3.9-8.68-.86L223 8.46l-4.77 1.3-8.46-1.08-7.81 1.3-10.19-.22-18.22 3.69-6.94-1.96-12.14 1.74-10.84-4.55-9.33 5.63-9.76-1.52-5.85-1.3-8.89 1.3-7.6-2.38-6.72 2.82-11.93-.87-14.53 4.99-11.71-1.74-7.8 1.52-5.86-1.08-4.99 2.27-10.84-4.01h-6.07l-7.81 4.01L0 18.8l3.85 6.7.44 6.07L0 38.31v30.98l1012.12-6.09L1024 38.31z"/><path d="M0 44.13 25.81 36l6.07 3.9 17.35-8.24 38.17 6.07 15.6-6.07h29.5l20-8.67 19.95 6.07 40.77-11.28h11.28l5.64-1.73h9.11l14.31-1.74 6.94 4.56 8.67 1.52 1.09 2.81 10.63-5.42 16.26-.65 4.55 3.69 13.67-3.25 8 3 7.16.22 2.82 3.25 3.9-2.17 4.12 2.39 10.41-2.17 10-.22 3.22-2.35 9.11 3.68 2.17 2.17 6.29-3 8.43 6.69 4.57-1.06 4.12 3 5-2 3.68 1.3 5.43-2.82 3.9 1.52 6.3-2.33 6.94 2.39h7.59l5 3 2.82-1.74 2.16 2.17 4.74-1.49 2 1.3V38l2-.65 3-3.69 2.82 2 3.26-.87 1.67.99 4.12 6.29 4.77-4.55 3.69 1.48 1.74-.65 2.81 2.38 7.38-2 4.77 3 2.82-2.61 1.52-.21 6.86 3.25V39.9l4.41-2.82h4.77l-1.73 4.34 4.12 5.64 3.24.87-1.94-3.47.22-3.91 3.25 3 9.76-.65 2.6.22v3.25l5.64-1.08.87-1.74 3.9 3v2.82H550l3.25-1.31V51l2.17.87v3l6.7 2.13-3.47-3 3.47-2.6 24.94-1.3 9.76-3.69L604 50.1l4.77-1.3v1.3l8.67-3.47 3.91-2.39v3.25h8.89l5.42 1.74 5.21-.87 2.38-1.08 4.56 1.52 8.87 2.2 8.89-1.73 1.3 3.9 6.72-3.68 6.94-3.26.87-1.95 4.12 2.17 5.42-1.3 26 2.82 40.77-7.81 5 2.82 5.86-.43 13.88 1.3 26.24-1.52 5.86 2 14.09-5.85 9.33 2 6.29-1.74 3.25 1.74 10.41-2.82 2 1.95 8.68-5.64v3.33l13.66-1.63 4.34 3.15s6.07-4.12 6.94-4.34l8.24-1.95v5.64l7.37-2.5 4.12 3.8 6.72-3.8 6.94 1.63 5-1.63 4.07 1.41 4.34-2.6 6.51 1.19v4.88l2.81.44 4.13-3.91 4.55.22 1.52-2.6 5.85-2 7.81-2.17 2.6-2.6.87-2.39 4.12 1.52 5.42-1.95 5.64-.65 3-.65 6.72.43 22.07 14v42.2H0z" style="fill:#ffb4ae"/></g></svg>