<svg xmlns="http://www.w3.org/2000/svg" viewBox="0 0 1024 80.44"><defs><style>.cls-1{fill:#ffe6ee;}.cls-2{fill:#ffb4ae;}</style></defs><g id="Layer_2" data-name="Layer 2"><g id="Layer_2-2" data-name="Layer 2"><polygon class="cls-1" points="0 42.12 12.11 52.68 17.37 54.97 20.49 59.33 24.83 60.49 30.9 60.49 46.52 60.49 55.84 59.08 63 60.49 72.76 59.08 78.83 61.57 87.94 59.62 96.4 61.57 107.46 57.67 113.31 59.62 126.76 57.67 135.87 57.67 143.68 55.5 153.43 57.23 156.47 55.5 159.94 51.81 165.15 47.69 175.55 46.61 181.41 45.09 203.1 51.59 211.99 51.81 218.71 51.59 226.74 48.99 243.43 48.34 252.54 51.59 264.25 49.64 276.61 48.77 285.29 51.16 297.87 55.93 303.94 54.85 316.52 50.08 326.71 50.73 332.78 48.77 347.1 46.61 355.12 43.79 370.52 45.3 381.36 50.94 394.37 52.68 401.1 58.97 407.82 63.74 415.84 73.28 422.13 72.41 430.37 68.51 438.4 66.12 446.64 61.14 453.14 63.74 462.04 66.12 467.89 66.12 473.1 64.82 481.34 67.21 489.14 66.12 500.65 66.12 512 71.33 526.66 66.99 541.41 70.03 554.64 66.12 562.66 68.51 573.29 69.16 585.87 69.81 599.1 71.98 606.9 69.59 614.93 70.46 620.57 68.94 627.94 75.45 636.83 76.32 642.69 78.7 659.6 78.7 664.59 77.18 671.96 78.7 679.34 77.18 686.28 78.7 694.74 74.8 702.54 74.8 715.12 72.85 726.83 73.71 739.84 71.55 757.63 75.45 773.24 80.44 782.13 76.53 790.81 77.4 801 71.98 805.77 70.68 814.23 71.76 822.04 70.46 832.23 70.68 850.45 66.99 857.39 68.94 869.53 67.21 880.37 71.76 889.7 66.12 899.46 67.64 905.31 68.94 914.21 67.64 921.79 70.03 928.52 67.21 940.45 68.08 954.98 63.09 966.69 64.82 974.49 63.3 980.35 64.39 985.34 62.11 996.18 66.12 1002.25 66.12 1010.06 62.11 1024 61.64 1020.15 54.94 1019.71 48.87 1024 42.12 1024 11.14 11.88 17.23 0 42.12"/><path class="cls-2" d="M1024,36.3l-25.81,8.14-6.07-3.91-17.35,8.24L936.6,42.7,921,48.77h-29.5l-20,8.68-19.95-6.07L810.82,62.65H799.54l-5.64,1.74h-9.11l-14.31,1.73-6.94-4.55-8.67-1.52-1.09-2.82-10.63,5.42-16.26.65-4.55-3.68-13.67,3.25-8-3-7.16-.21-2.82-3.25-3.9,2.16-4.12-2.38-10.41,2.17-10,.21L659,60.92l-9.11-3.69-2.17-2.17-6.29,3L633,51.38l-4.56,1.08-4.12-3-5,2-3.68-1.3-5.43,2.82-3.9-1.52L600,53.76l-6.94-2.38h-7.59l-5-3-2.82,1.74-2.16-2.17-4.77,1.52-2-1.31V42.49l-1.95.65-3,3.68-2.82-2-3.26.87L556,44.65l-4.12-6.28-4.77,4.55-3.69-1.52-1.74.65-2.81-2.38-7.38,1.95-4.77-3-2.82,2.6-1.52.22-6.86-3.25v2.38l-4.41,2.82h-4.77L508.07,39,504,33.38l-3.24-.87L502.65,36l-.22,3.9-3.25-3-9.76.65-2.6-.22V34l-5.64,1.08-.87,1.74-3.9-3V31H474l-3.25,1.3V29.47l-2.17-.86v-3l-6.72-2.17,3.47,3L461.88,29l-24.94,1.3L427.18,34,420,30.34l-4.77,1.3v-1.3l-8.67,3.47-3.91,2.39V32.94h-8.89l-5.42-1.73-5.21.87-2.38,1.08-4.56-1.52-8.89-2.17-8.89,1.74-1.3-3.91L350.41,31l-6.94,3.25-.87,2L338.48,34l-5.42,1.3-26-2.82-40.77,7.81-5-2.82-5.86.43-13.88-1.3L215.3,38.15l-5.86-1.95-14.09,5.85L186,40.1l-6.29,1.73-3.25-1.73-10.41,2.82-1.95-2-8.68,5.64V43.14l-13.66,1.62-4.34-3.14s-6.07,4.12-6.94,4.34l-8.24,1.95V42.27l-7.37,2.49L110.77,41l-6.72,3.79-6.94-1.62-5,1.62L88,43.35,83.66,46l-6.51-1.2V39.88l-2.81-.43-4.13,3.9-4.55-.21-1.52,2.6-5.85,1.95-7.81,2.17-2.6,2.6L47,54.85l-4.12-1.52-5.42,2-5.64.65-3,.65-6.72-.43L0,42.12V0H1024Z"/></g></g></svg>