<svg xmlns="http://www.w3.org/2000/svg" viewBox="0 0 1024 80.44"><g data-name="Layer 2"><path style="fill:#ffe6ee" d="m0 42.12 12.11 10.56 5.26 2.29 3.12 4.36 4.34 1.16H46.52l9.32-1.41L63 60.49l9.76-1.41 6.07 2.49 9.11-1.95 8.46 1.95 11.06-3.9 5.85 1.95 13.45-1.95h9.11l7.81-2.17 9.75 1.73 3.04-1.73 3.47-3.69 5.21-4.12 10.4-1.08 5.86-1.52 21.69 6.5 8.89.22 6.72-.22 8.03-2.6 16.69-.65 9.11 3.25 11.71-1.95 12.36-.87 8.68 2.39 12.58 4.77 6.07-1.08 12.58-4.77 10.19.65 6.07-1.96 14.32-2.16 8.02-2.82 15.4 1.51 10.84 5.64 13.01 1.74 6.73 6.29 6.72 4.77 8.02 9.54 6.29-.87 8.24-3.9 8.03-2.39 8.24-4.98 6.5 2.6 8.9 2.38h5.85l5.21-1.3 8.24 2.39 7.8-1.09h11.51L512 71.33l14.66-4.34 14.75 3.04 13.23-3.91 8.02 2.39 10.63.65 12.58.65 13.23 2.17 7.8-2.39 8.03.87 5.64-1.52 7.37 6.51 8.89.87 5.86 2.38h16.91l4.99-1.52 7.37 1.52 7.38-1.52 6.94 1.52 8.46-3.9h7.8l12.58-1.95 11.71.86 13.01-2.16 17.79 3.9 15.61 4.99 8.89-3.91 8.68.87L801 71.98l4.77-1.3 8.46 1.08 7.81-1.3 10.19.22 18.22-3.69 6.94 1.95 12.14-1.73 10.84 4.55 9.33-5.64 9.76 1.52 5.85 1.3 8.9-1.3 7.58 2.39 6.73-2.82 11.93.87 14.53-4.99 11.71 1.73 7.8-1.52 5.86 1.09 4.99-2.28 10.84 4.01h6.07l7.81-4.01 13.94-.47-3.85-6.7-.44-6.07 4.29-6.75V11.14L11.88 17.23 0 42.12z"/><path d="m1024 36.3-25.81 8.14-6.07-3.91-17.35 8.24-38.17-6.07-15.6 6.07h-29.5l-20 8.68-19.95-6.07-40.73 11.27h-11.28l-5.64 1.74h-9.11l-14.31 1.73-6.94-4.55-8.67-1.52-1.09-2.82-10.63 5.42-16.26.65-4.55-3.68-13.67 3.25-8-3-7.16-.21-2.82-3.25-3.9 2.16-4.12-2.38-10.41 2.17-10 .21-3.26 2.35-9.11-3.69-2.17-2.17-6.29 3-8.43-6.68-4.56 1.08-4.12-3-5 2-3.68-1.3-5.43 2.82-3.9-1.52-6.31 2.3-6.94-2.38h-7.59l-5-3-2.82 1.74-2.16-2.17-4.77 1.52-2-1.31v-5.67l-1.95.65-3 3.68-2.82-2-3.26.87-1.69-1.04-4.12-6.28-4.77 4.55-3.69-1.52-1.74.65-2.81-2.38-7.38 1.95-4.77-3-2.82 2.6-1.52.22-6.86-3.25v2.38l-4.41 2.82h-4.77l1.73-4.39-4.07-5.62-3.24-.87 1.89 3.49-.22 3.9-3.25-3-9.76.65-2.6-.22V34l-5.64 1.08-.87 1.74-3.9-3V31H474l-3.25 1.3v-2.83l-2.17-.86v-3l-6.72-2.17 3.47 3-3.45 2.56-24.94 1.3-9.76 3.7-7.18-3.66-4.77 1.3v-1.3l-8.67 3.47-3.91 2.39v-3.26h-8.89l-5.42-1.73-5.21.87-2.38 1.08-4.56-1.52-8.89-2.17-8.89 1.74-1.3-3.91-6.7 3.7-6.94 3.25-.87 2-4.12-2.25-5.42 1.3-26-2.82-40.77 7.81-5-2.82-5.86.43-13.88-1.3-26.25 1.55-5.86-1.95-14.09 5.85L186 40.1l-6.29 1.73-3.25-1.73-10.41 2.82-1.95-2-8.68 5.64v-3.42l-13.66 1.62-4.34-3.14s-6.07 4.12-6.94 4.34l-8.24 1.95v-5.64l-7.37 2.49-4.1-3.76-6.72 3.79-6.94-1.62-5 1.62L88 43.35 83.66 46l-6.51-1.2v-4.92l-2.81-.43-4.13 3.9-4.55-.21-1.52 2.6-5.85 1.95-7.81 2.17-2.6 2.6-.88 2.39-4.12-1.52-5.42 2-5.64.65-3 .65-6.72-.43L0 42.12V0h1024z" style="fill:#ffb4ae"/></g></svg>