<svg width="669" height="734" viewBox="0 0 669 734" fill="none" xmlns="http://www.w3.org/2000/svg">
<rect x="0.58057" y="100.083" width="562.436" height="643.419" transform="rotate(-10.19 0.58057 100.083)" fill="#D9D9D9" stroke="black"/>
<path d="M259.071 370.726L256.417 355.963L258.011 355.676L258.318 357.382L258.513 357.347C258.601 357.139 258.726 356.871 258.889 356.543C259.055 356.21 259.32 355.893 259.685 355.592C260.053 355.285 260.586 355.069 261.285 354.943C262.189 354.781 263.027 354.864 263.798 355.192C264.569 355.52 265.222 356.064 265.758 356.824C266.294 357.584 266.663 358.528 266.866 359.655C267.07 360.793 267.054 361.813 266.817 362.717C266.58 363.616 266.159 364.355 265.556 364.935C264.953 365.51 264.203 365.878 263.309 366.039C262.619 366.163 262.046 366.148 261.59 365.994C261.134 365.836 260.767 365.63 260.491 365.376C260.213 365.118 259.997 364.902 259.84 364.728L259.7 364.754L260.721 370.43L259.071 370.726ZM259.004 361.04C259.15 361.851 259.397 362.545 259.746 363.122C260.095 363.694 260.528 364.114 261.048 364.381C261.567 364.644 262.157 364.716 262.819 364.597C263.508 364.473 264.051 364.188 264.447 363.742C264.847 363.29 265.108 362.733 265.229 362.071C265.355 361.404 265.349 360.688 265.211 359.924C265.076 359.169 264.837 358.51 264.495 357.946C264.157 357.376 263.723 356.956 263.193 356.686C262.667 356.41 262.055 356.335 261.356 356.461C260.685 356.581 260.152 356.853 259.756 357.275C259.36 357.693 259.099 358.225 258.975 358.873C258.85 359.516 258.86 360.238 259.004 361.04ZM274.745 363.983C273.775 364.158 272.883 364.08 272.069 363.75C271.259 363.419 270.574 362.876 270.015 362.12C269.461 361.364 269.084 360.431 268.884 359.322C268.683 358.203 268.711 357.19 268.966 356.283C269.226 355.375 269.678 354.625 270.322 354.033C270.971 353.441 271.78 353.057 272.749 352.883C273.719 352.709 274.608 352.787 275.418 353.117C276.233 353.447 276.918 353.993 277.473 354.754C278.033 355.515 278.414 356.454 278.615 357.573C278.814 358.682 278.783 359.688 278.522 360.591C278.266 361.493 277.813 362.241 277.165 362.834C276.521 363.426 275.714 363.809 274.745 363.983ZM274.478 362.501C275.215 362.369 275.786 362.071 276.194 361.608C276.601 361.146 276.864 360.586 276.982 359.93C277.1 359.274 277.094 358.587 276.965 357.869C276.836 357.151 276.602 356.503 276.262 355.924C275.922 355.346 275.48 354.908 274.936 354.611C274.392 354.315 273.752 354.232 273.016 354.365C272.279 354.497 271.708 354.797 271.301 355.265C270.895 355.732 270.633 356.296 270.516 356.957C270.399 357.618 270.405 358.307 270.534 359.025C270.663 359.743 270.897 360.389 271.236 360.963C271.575 361.537 272.016 361.97 272.559 362.262C273.102 362.554 273.742 362.634 274.478 362.501ZM281.164 347.82L283.738 362.136L282.088 362.432L279.515 348.116L281.164 347.82ZM289.964 361.277C289.284 361.399 288.643 361.382 288.042 361.225C287.441 361.064 286.933 360.768 286.519 360.337C286.104 359.902 285.834 359.335 285.708 358.636C285.597 358.02 285.629 357.5 285.803 357.074C285.975 356.644 286.245 356.283 286.611 355.991C286.977 355.699 287.395 355.455 287.865 355.26C288.339 355.06 288.819 354.882 289.306 354.727C289.944 354.526 290.461 354.368 290.859 354.253C291.261 354.133 291.545 354.002 291.712 353.862C291.884 353.72 291.946 353.517 291.898 353.251L291.888 353.195C291.764 352.505 291.479 352.003 291.033 351.689C290.592 351.374 289.991 351.285 289.232 351.421C288.444 351.563 287.858 351.846 287.472 352.271C287.087 352.697 286.838 353.121 286.727 353.545L285.061 353.268C285.223 352.565 285.504 351.99 285.905 351.543C286.31 351.09 286.776 350.742 287.305 350.497C287.837 350.248 288.374 350.074 288.914 349.977C289.259 349.915 289.663 349.886 290.125 349.889C290.592 349.887 291.057 349.975 291.522 350.151C291.991 350.326 292.411 350.643 292.782 351.1C293.153 351.558 293.415 352.213 293.568 353.066L294.84 360.14L293.19 360.437L292.929 358.983L292.845 358.998C292.775 359.251 292.633 359.534 292.42 359.846C292.207 360.159 291.9 360.447 291.5 360.712C291.101 360.976 290.588 361.164 289.964 361.277ZM289.949 359.749C290.602 359.632 291.129 359.405 291.53 359.068C291.936 358.731 292.217 358.339 292.372 357.892C292.532 357.445 292.572 356.998 292.492 356.55L292.22 355.04C292.165 355.137 292.025 355.241 291.8 355.354C291.579 355.461 291.319 355.568 291.021 355.675C290.726 355.776 290.438 355.871 290.156 355.96C289.877 356.044 289.652 356.113 289.479 356.168C289.06 356.301 288.676 356.464 288.325 356.657C287.979 356.844 287.714 357.082 287.53 357.37C287.35 357.653 287.297 358.003 287.373 358.423C287.476 358.996 287.766 359.391 288.243 359.609C288.723 359.821 289.292 359.867 289.949 359.749ZM297.851 359.599L295.921 348.862L297.515 348.576L297.806 350.197L297.918 350.177C298.018 349.611 298.295 349.116 298.748 348.693C299.201 348.27 299.749 348.001 300.393 347.885C300.514 347.863 300.666 347.838 300.848 347.81C301.031 347.782 301.169 347.765 301.264 347.757L301.566 349.435C301.507 349.431 301.376 349.433 301.17 349.441C300.969 349.444 300.758 349.465 300.539 349.504C300.017 349.598 299.571 349.791 299.2 350.084C298.833 350.371 298.565 350.727 298.396 351.152C298.231 351.571 298.192 352.023 298.279 352.508L299.501 359.303L297.851 359.599ZM309.25 357.781C308.281 357.955 307.389 357.877 306.574 357.548C305.765 357.217 305.08 356.674 304.521 355.918C303.966 355.161 303.589 354.228 303.39 353.119C303.189 352.001 303.216 350.988 303.472 350.081C303.732 349.173 304.184 348.423 304.828 347.831C305.477 347.238 306.286 346.855 307.255 346.68C308.224 346.506 309.114 346.584 309.924 346.915C310.738 347.245 311.423 347.791 311.979 348.552C312.539 349.312 312.919 350.252 313.12 351.37C313.32 352.479 313.289 353.486 313.028 354.389C312.772 355.291 312.319 356.039 311.67 356.632C311.026 357.224 310.22 357.607 309.25 357.781ZM308.984 356.299C309.72 356.167 310.292 355.869 310.7 355.406C311.107 354.943 311.37 354.384 311.487 353.728C311.605 353.071 311.6 352.384 311.471 351.667C311.342 350.949 311.107 350.301 310.768 349.722C310.428 349.143 309.986 348.706 309.442 348.409C308.898 348.112 308.258 348.03 307.521 348.162C306.785 348.295 306.214 348.595 305.807 349.062C305.4 349.53 305.138 350.094 305.022 350.755C304.905 351.416 304.911 352.105 305.04 352.823C305.169 353.54 305.403 354.186 305.741 354.76C306.08 355.334 306.521 355.768 307.065 356.06C307.608 356.352 308.248 356.431 308.984 356.299ZM316.593 356.23L314.664 345.493L316.313 345.197L318.243 355.934L316.593 356.23ZM315.181 343.553C314.859 343.611 314.562 343.551 314.29 343.374C314.022 343.196 313.861 342.953 313.805 342.646C313.75 342.338 313.817 342.054 314.006 341.794C314.199 341.533 314.457 341.374 314.779 341.316C315.1 341.258 315.395 341.318 315.663 341.496C315.935 341.673 316.099 341.916 316.154 342.223C316.209 342.531 316.14 342.815 315.947 343.076C315.758 343.336 315.502 343.495 315.181 343.553ZM325.359 354.885C324.465 355.046 323.634 354.962 322.868 354.633C322.101 354.3 321.449 353.753 320.913 352.993C320.376 352.228 320.006 351.278 319.801 350.14C319.599 349.013 319.616 347.999 319.854 347.1C320.092 346.201 320.515 345.464 321.123 344.888C321.732 344.312 322.488 343.942 323.392 343.78C324.091 343.654 324.664 343.671 325.111 343.832C325.563 343.986 325.922 344.191 326.189 344.446C326.46 344.696 326.673 344.903 326.827 345.067L326.967 345.042L326.017 339.758L327.667 339.461L330.24 353.777L328.646 354.064L328.35 352.414L328.154 352.449C328.068 352.667 327.94 352.945 327.77 353.283C327.599 353.617 327.327 353.938 326.954 354.245C326.581 354.548 326.049 354.761 325.359 354.885ZM325.317 353.363C325.978 353.244 326.507 352.971 326.901 352.544C327.295 352.113 327.556 351.568 327.683 350.91C327.809 350.248 327.799 349.511 327.653 348.7C327.509 347.899 327.267 347.218 326.926 346.659C326.584 346.095 326.154 345.686 325.637 345.433C325.12 345.175 324.525 345.106 323.854 345.227C323.155 345.352 322.605 345.636 322.203 346.079C321.806 346.516 321.545 347.061 321.422 347.713C321.302 348.36 321.31 349.061 321.446 349.816C321.584 350.58 321.825 351.254 322.17 351.836C322.519 352.413 322.957 352.844 323.485 353.13C324.016 353.409 324.627 353.487 325.317 353.363ZM344.125 355.669C343.328 355.812 342.624 355.833 342.014 355.731C341.405 355.633 340.88 355.454 340.438 355.191C340.002 354.933 339.639 354.638 339.348 354.305L340.496 353.146C340.681 353.315 340.91 353.505 341.183 353.715C341.458 353.931 341.81 354.096 342.239 354.211C342.674 354.33 343.216 354.331 343.863 354.215C344.73 354.059 345.408 353.721 345.896 353.2C346.385 352.679 346.549 351.971 346.388 351.077L345.996 348.896L345.856 348.921C345.77 349.138 345.641 349.412 345.469 349.741C345.302 350.064 345.03 350.375 344.656 350.674C344.285 350.966 343.75 351.176 343.051 351.301C342.184 351.457 341.369 351.392 340.606 351.106C339.847 350.819 339.197 350.32 338.655 349.609C338.119 348.897 337.75 347.982 337.549 346.864C337.351 345.764 337.372 344.772 337.612 343.887C337.852 342.997 338.276 342.266 338.885 341.695C339.494 341.119 340.25 340.75 341.154 340.587C341.853 340.462 342.429 340.478 342.881 340.638C343.336 340.791 343.7 340.995 343.972 341.25C344.248 341.498 344.463 341.705 344.617 341.87L344.785 341.84L344.479 340.134L346.072 339.847L348.058 350.892C348.224 351.815 348.149 352.603 347.833 353.256C347.523 353.913 347.041 354.44 346.385 354.837C345.736 355.237 344.982 355.515 344.125 355.669ZM343.008 349.779C343.67 349.66 344.202 349.408 344.604 349.023C345.007 348.638 345.276 348.14 345.411 347.529C345.546 346.918 345.543 346.216 345.401 345.424C345.262 344.65 345.022 343.988 344.683 343.438C344.344 342.888 343.915 342.487 343.398 342.233C342.881 341.98 342.287 341.913 341.616 342.034C340.917 342.16 340.367 342.441 339.964 342.879C339.566 343.316 339.305 343.854 339.179 344.493C339.058 345.13 339.063 345.812 339.193 346.539C339.327 347.285 339.562 347.923 339.898 348.455C340.238 348.981 340.668 349.365 341.188 349.608C341.712 349.846 342.319 349.903 343.008 349.779ZM351.022 350.042L349.092 339.305L350.686 339.018L350.978 340.64L351.089 340.62C351.19 340.053 351.466 339.559 351.919 339.136C352.373 338.713 352.921 338.443 353.564 338.328C353.685 338.306 353.837 338.281 354.019 338.253C354.202 338.225 354.341 338.207 354.436 338.2L354.737 339.878C354.679 339.874 354.547 339.876 354.341 339.884C354.14 339.886 353.93 339.907 353.71 339.947C353.189 340.04 352.742 340.234 352.371 340.526C352.005 340.814 351.737 341.17 351.568 341.595C351.403 342.014 351.363 342.466 351.451 342.951L352.672 349.745L351.022 350.042ZM361.551 348.409C360.871 348.531 360.23 348.514 359.63 348.357C359.028 348.196 358.52 347.9 358.106 347.469C357.691 347.034 357.421 346.467 357.295 345.768C357.185 345.153 357.216 344.632 357.39 344.207C357.563 343.776 357.832 343.415 358.198 343.123C358.564 342.831 358.982 342.588 359.452 342.393C359.926 342.192 360.406 342.014 360.893 341.859C361.531 341.658 362.048 341.5 362.446 341.385C362.848 341.265 363.132 341.135 363.3 340.994C363.471 340.852 363.533 340.649 363.486 340.383L363.476 340.327C363.352 339.638 363.067 339.136 362.62 338.821C362.179 338.506 361.578 338.417 360.819 338.553C360.031 338.695 359.445 338.978 359.059 339.404C358.674 339.829 358.425 340.254 358.314 340.678L356.648 340.4C356.81 339.697 357.092 339.122 357.492 338.675C357.897 338.222 358.363 337.874 358.892 337.63C359.424 337.38 359.961 337.207 360.501 337.11C360.846 337.048 361.25 337.018 361.712 337.022C362.179 337.02 362.644 337.107 363.109 337.283C363.578 337.459 363.998 337.775 364.369 338.233C364.74 338.69 365.002 339.346 365.155 340.199L366.427 347.273L364.777 347.569L364.516 346.115L364.432 346.13C364.362 346.383 364.22 346.666 364.007 346.979C363.794 347.291 363.487 347.58 363.088 347.844C362.688 348.108 362.176 348.297 361.551 348.409ZM361.536 346.882C362.189 346.764 362.716 346.537 363.117 346.201C363.523 345.863 363.804 345.471 363.959 345.025C364.119 344.577 364.159 344.13 364.079 343.683L363.807 342.173C363.752 342.269 363.612 342.374 363.387 342.486C363.166 342.593 362.906 342.7 362.608 342.807C362.313 342.908 362.025 343.003 361.743 343.092C361.464 343.176 361.239 343.245 361.066 343.301C360.647 343.434 360.263 343.596 359.912 343.789C359.566 343.977 359.301 344.214 359.117 344.502C358.937 344.785 358.884 345.136 358.96 345.555C359.063 346.128 359.353 346.524 359.83 346.741C360.31 346.953 360.879 347 361.536 346.882ZM370.162 350.758L367.508 335.994L369.102 335.708L369.408 337.414L369.604 337.378C369.692 337.17 369.817 336.902 369.979 336.575C370.146 336.242 370.411 335.925 370.775 335.624C371.143 335.317 371.677 335.101 372.376 334.975C373.28 334.813 374.118 334.895 374.889 335.223C375.66 335.551 376.313 336.096 376.849 336.855C377.385 337.615 377.754 338.559 377.957 339.687C378.161 340.824 378.145 341.845 377.908 342.748C377.67 343.647 377.25 344.387 376.647 344.967C376.043 345.542 375.294 345.91 374.399 346.071C373.71 346.195 373.137 346.18 372.681 346.026C372.224 345.867 371.858 345.661 371.581 345.408C371.304 345.15 371.087 344.934 370.931 344.76L370.791 344.785L371.811 350.461L370.162 350.758ZM370.095 341.071C370.241 341.882 370.488 342.576 370.837 343.153C371.185 343.726 371.619 344.146 372.139 344.413C372.657 344.676 373.248 344.748 373.909 344.629C374.599 344.505 375.142 344.22 375.538 343.773C375.938 343.321 376.198 342.765 376.32 342.103C376.445 341.436 376.439 340.72 376.302 339.956C376.166 339.201 375.928 338.541 375.586 337.977C375.248 337.408 374.814 336.988 374.284 336.718C373.758 336.442 373.146 336.367 372.447 336.492C371.776 336.613 371.242 336.884 370.847 337.307C370.45 337.724 370.19 338.257 370.066 338.905C369.941 339.548 369.951 340.27 370.095 341.071ZM381.922 337.82L383.083 344.279L381.433 344.575L378.86 330.259L380.51 329.963L381.455 335.219L381.594 335.194C381.746 334.595 382.045 334.086 382.489 333.67C382.938 333.247 383.584 332.961 384.427 332.809C385.159 332.677 385.826 332.709 386.429 332.904C387.031 333.094 387.537 333.462 387.948 334.009C388.363 334.55 388.653 335.282 388.819 336.205L390.045 343.027L388.396 343.324L387.189 336.613C387.036 335.76 386.696 335.141 386.17 334.754C385.647 334.362 384.997 334.236 384.218 334.376C383.678 334.473 383.214 334.675 382.826 334.98C382.443 335.285 382.167 335.678 381.999 336.161C381.835 336.642 381.81 337.195 381.922 337.82ZM393.063 342.485L391.133 331.748L392.783 331.451L394.713 342.188L393.063 342.485ZM391.65 329.808C391.329 329.865 391.032 329.806 390.76 329.629C390.492 329.451 390.33 329.208 390.275 328.9C390.22 328.593 390.287 328.309 390.476 328.049C390.669 327.788 390.927 327.628 391.248 327.571C391.57 327.513 391.865 327.573 392.132 327.751C392.405 327.928 392.569 328.17 392.624 328.478C392.679 328.786 392.61 329.07 392.416 329.331C392.227 329.591 391.972 329.75 391.65 329.808ZM402.137 341.085C401.13 341.266 400.221 341.184 399.408 340.839C398.596 340.495 397.919 339.94 397.377 339.177C396.836 338.413 396.469 337.495 396.276 336.423C396.08 335.333 396.108 334.334 396.359 333.428C396.613 332.516 397.059 331.76 397.697 331.16C398.339 330.554 399.144 330.164 400.113 329.989C400.868 329.854 401.574 329.871 402.23 330.042C402.886 330.213 403.453 330.515 403.93 330.949C404.407 331.382 404.753 331.926 404.967 332.581L403.317 332.877C403.103 332.411 402.746 332.027 402.244 331.728C401.747 331.423 401.135 331.336 400.408 331.466C399.765 331.582 399.231 331.851 398.807 332.274C398.386 332.691 398.095 333.227 397.934 333.881C397.776 334.53 397.77 335.26 397.916 336.071C398.065 336.9 398.325 337.599 398.697 338.167C399.073 338.735 399.532 339.145 400.073 339.399C400.619 339.652 401.218 339.72 401.87 339.603C402.299 339.526 402.675 339.381 402.997 339.169C403.32 338.957 403.578 338.69 403.77 338.367C403.962 338.044 404.074 337.677 404.106 337.267L405.756 336.971C405.776 337.621 405.648 338.233 405.371 338.808C405.098 339.376 404.688 339.864 404.141 340.27C403.597 340.671 402.929 340.942 402.137 341.085Z" fill="black"/>
</svg>
