<svg width="391" height="540" viewBox="0 0 391 540" fill="none" xmlns="http://www.w3.org/2000/svg">
<rect x="58.3948" y="0.559706" width="695.355" height="453.309" transform="rotate(7.33 58.3948 0.559706)" fill="#D9D9D9" stroke="black"/>
<path d="M296.627 267.03L298.54 252.152L300.146 252.359L299.925 254.078L300.123 254.103C300.269 253.931 300.469 253.713 300.722 253.45C300.981 253.182 301.329 252.96 301.768 252.782C302.211 252.6 302.785 252.555 303.489 252.646C304.401 252.763 305.174 253.094 305.811 253.639C306.447 254.184 306.907 254.899 307.189 255.785C307.471 256.671 307.539 257.683 307.393 258.819C307.245 259.965 306.923 260.933 306.425 261.723C305.928 262.509 305.304 263.088 304.555 263.459C303.806 263.826 302.98 263.951 302.079 263.835C301.384 263.746 300.842 263.559 300.454 263.275C300.066 262.987 299.778 262.68 299.591 262.355C299.404 262.026 299.262 261.755 299.166 261.542L299.025 261.523L298.289 267.243L296.627 267.03ZM299.479 257.772C299.374 258.589 299.401 259.326 299.56 259.981C299.72 260.632 300.007 261.163 300.422 261.574C300.837 261.981 301.379 262.227 302.045 262.313C302.74 262.402 303.344 262.294 303.856 261.987C304.373 261.677 304.79 261.224 305.105 260.63C305.425 260.031 305.635 259.347 305.734 258.577C305.832 257.816 305.803 257.115 305.646 256.475C305.495 255.83 305.208 255.299 304.784 254.882C304.366 254.46 303.805 254.204 303.1 254.114C302.424 254.027 301.834 254.125 301.329 254.408C300.826 254.687 300.417 255.117 300.104 255.697C299.791 256.273 299.583 256.965 299.479 257.772ZM313.603 265.318C312.626 265.192 311.799 264.849 311.122 264.29C310.449 263.731 309.96 263.006 309.654 262.117C309.353 261.229 309.274 260.226 309.418 259.108C309.563 257.981 309.894 257.023 310.41 256.235C310.932 255.448 311.589 254.869 312.381 254.498C313.178 254.128 314.065 254.006 315.042 254.132C316.019 254.257 316.844 254.6 317.516 255.159C318.194 255.719 318.683 256.445 318.983 257.338C319.288 258.232 319.369 259.242 319.224 260.369C319.08 261.487 318.747 262.437 318.227 263.22C317.711 264.004 317.054 264.58 316.257 264.95C315.464 265.321 314.58 265.443 313.603 265.318ZM313.795 263.824C314.537 263.92 315.172 263.808 315.7 263.489C316.228 263.171 316.647 262.716 316.957 262.126C317.267 261.536 317.468 260.879 317.561 260.156C317.654 259.432 317.626 258.744 317.476 258.09C317.326 257.435 317.037 256.885 316.607 256.438C316.178 255.991 315.592 255.72 314.85 255.625C314.108 255.53 313.473 255.644 312.944 255.967C312.416 256.29 311.996 256.75 311.686 257.345C311.375 257.94 311.173 258.599 311.08 259.322C310.987 260.045 311.016 260.732 311.166 261.381C311.317 262.031 311.607 262.576 312.037 263.018C312.467 263.46 313.053 263.729 313.795 263.824ZM329.817 258.639L328.269 258.869C328.207 258.608 328.1 258.349 327.947 258.09C327.799 257.828 327.58 257.599 327.29 257.404C327 257.209 326.613 257.081 326.13 257.019C325.468 256.933 324.896 257.015 324.415 257.264C323.94 257.508 323.672 257.863 323.613 258.328C323.559 258.741 323.668 259.087 323.937 259.365C324.207 259.643 324.651 259.903 325.269 260.145L326.825 260.746C327.762 261.105 328.437 261.557 328.849 262.102C329.261 262.642 329.419 263.29 329.322 264.046C329.242 264.666 328.992 265.197 328.573 265.639C328.157 266.083 327.615 266.404 326.945 266.604C326.274 266.805 325.519 266.851 324.678 266.743C323.575 266.601 322.692 266.244 322.031 265.672C321.369 265.099 321.001 264.341 320.927 263.396L322.556 263.204C322.631 263.806 322.859 264.279 323.239 264.624C323.625 264.97 324.158 265.186 324.839 265.274C325.614 265.373 326.25 265.288 326.748 265.018C327.251 264.744 327.532 264.374 327.592 263.909C327.64 263.534 327.549 263.202 327.319 262.915C327.089 262.622 326.71 262.378 326.182 262.181L324.433 261.527C323.472 261.164 322.791 260.707 322.39 260.154C321.993 259.597 321.843 258.945 321.939 258.198C322.018 257.588 322.259 257.07 322.662 256.644C323.07 256.219 323.589 255.911 324.22 255.72C324.856 255.53 325.554 255.484 326.315 255.582C327.385 255.719 328.196 256.062 328.746 256.61C329.301 257.159 329.658 257.835 329.817 258.639ZM337.534 257.168L337.353 258.577L331.745 257.856L331.927 256.447L337.534 257.168ZM333.894 254.065L335.557 254.279L334.23 264.591C334.17 265.061 334.192 265.422 334.298 265.674C334.41 265.922 334.568 266.1 334.774 266.208C334.985 266.312 335.213 266.379 335.457 266.41C335.64 266.434 335.792 266.444 335.911 266.44C336.032 266.432 336.128 266.425 336.2 266.42L336.346 267.957C336.228 267.985 336.066 268.007 335.858 268.023C335.65 268.044 335.391 268.035 335.081 267.995C334.612 267.934 334.164 267.774 333.74 267.514C333.319 267.255 332.988 266.9 332.745 266.448C332.507 265.998 332.429 265.458 332.51 264.828L333.894 254.065ZM342.893 269.086C341.879 268.955 341.036 268.603 340.365 268.03C339.694 267.457 339.215 266.724 338.929 265.833C338.643 264.942 338.569 263.956 338.708 262.876C338.849 261.777 339.176 260.833 339.688 260.045C340.205 259.252 340.858 258.665 341.647 258.284C342.441 257.9 343.327 257.77 344.304 257.896C345.065 257.994 345.732 258.223 346.306 258.583C346.881 258.943 347.33 259.402 347.655 259.959C347.979 260.517 348.145 261.14 348.152 261.828L346.489 261.614C346.426 261.105 346.2 260.632 345.813 260.195C345.43 259.754 344.872 259.487 344.14 259.393C343.492 259.309 342.902 259.405 342.37 259.681C341.843 259.952 341.405 260.375 341.054 260.951C340.708 261.522 340.483 262.216 340.378 263.033C340.27 263.869 340.308 264.614 340.491 265.268C340.679 265.922 340.993 266.452 341.432 266.857C341.877 267.262 342.428 267.508 343.085 267.592C343.517 267.648 343.919 267.623 344.29 267.518C344.662 267.413 344.988 267.235 345.268 266.985C345.549 266.735 345.766 266.419 345.92 266.038L347.583 266.252C347.407 266.878 347.1 267.424 346.663 267.888C346.232 268.348 345.694 268.689 345.049 268.912C344.41 269.13 343.691 269.188 342.893 269.086ZM352.758 270.383C352.073 270.295 351.467 270.086 350.941 269.756C350.416 269.421 350.021 268.986 349.756 268.45C349.491 267.91 349.404 267.288 349.495 266.584C349.575 265.964 349.761 265.477 350.055 265.123C350.349 264.765 350.715 264.502 351.152 264.333C351.589 264.165 352.061 264.059 352.568 264.014C353.08 263.966 353.592 263.941 354.103 263.94C354.771 263.94 355.312 263.945 355.726 263.955C356.146 263.961 356.456 263.922 356.658 263.839C356.864 263.755 356.985 263.58 357.019 263.312L357.026 263.256C357.116 262.561 356.995 261.996 356.664 261.562C356.338 261.129 355.792 260.863 355.027 260.764C354.233 260.662 353.589 260.756 353.093 261.046C352.598 261.335 352.233 261.665 351.999 262.036L350.493 261.27C350.86 260.649 351.301 260.185 351.818 259.879C352.34 259.569 352.89 259.377 353.467 259.304C354.05 259.226 354.614 259.222 355.159 259.292C355.506 259.337 355.9 259.43 356.34 259.573C356.785 259.711 357.203 259.935 357.593 260.242C357.988 260.551 358.293 260.979 358.509 261.528C358.725 262.076 358.778 262.779 358.667 263.639L357.75 270.768L356.088 270.554L356.276 269.089L356.192 269.078C356.049 269.298 355.829 269.525 355.531 269.759C355.234 269.993 354.855 270.175 354.394 270.307C353.933 270.439 353.388 270.464 352.758 270.383ZM353.204 268.922C353.862 269.007 354.432 268.949 354.916 268.749C355.405 268.549 355.791 268.26 356.073 267.881C356.361 267.503 356.533 267.088 356.591 266.637L356.787 265.116C356.706 265.191 356.541 265.249 356.292 265.288C356.049 265.324 355.769 265.347 355.453 265.359C355.141 265.367 354.838 265.371 354.542 265.371C354.251 265.367 354.015 265.365 353.833 265.366C353.394 265.367 352.978 265.406 352.586 265.485C352.2 265.559 351.875 265.706 351.613 265.925C351.356 266.14 351.201 266.459 351.146 266.882C351.072 267.46 351.23 267.924 351.619 268.275C352.014 268.621 352.542 268.837 353.204 268.922ZM360.784 271.158L362.176 260.338L363.782 260.545L363.572 262.179L363.685 262.193C363.951 261.683 364.364 261.295 364.923 261.028C365.483 260.761 366.086 260.669 366.734 260.752C366.857 260.768 367.009 260.79 367.191 260.818C367.374 260.847 367.512 260.871 367.604 260.893L367.387 262.584C367.332 262.562 367.206 262.524 367.008 262.47C366.815 262.412 366.608 262.369 366.387 262.34C365.861 262.273 365.377 262.323 364.936 262.49C364.499 262.654 364.137 262.913 363.847 263.267C363.564 263.617 363.39 264.036 363.328 264.525L362.447 271.372L360.784 271.158ZM371.892 272.816C370.991 272.7 370.224 272.37 369.592 271.825C368.961 271.276 368.504 270.559 368.222 269.673C367.941 268.782 367.873 267.764 368.021 266.618C368.167 265.481 368.489 264.52 368.986 263.735C369.483 262.949 370.109 262.373 370.862 262.007C371.616 261.641 372.448 261.516 373.359 261.633C374.064 261.724 374.605 261.913 374.984 262.2C375.367 262.484 375.648 262.787 375.826 263.111C376.009 263.43 376.15 263.692 376.248 263.895L376.389 263.913L377.074 258.588L378.736 258.802L376.88 273.228L375.274 273.022L375.488 271.359L375.291 271.334C375.144 271.516 374.938 271.742 374.674 272.014C374.41 272.28 374.054 272.504 373.606 272.685C373.159 272.862 372.587 272.905 371.892 272.816ZM372.31 271.352C372.977 271.437 373.563 271.336 374.068 271.048C374.573 270.755 374.985 270.314 375.305 269.725C375.625 269.131 375.837 268.425 375.942 267.608C376.046 266.8 376.02 266.079 375.863 265.443C375.706 264.802 375.42 264.283 375.003 263.886C374.587 263.484 374.041 263.239 373.365 263.152C372.66 263.061 372.05 263.167 371.534 263.468C371.023 263.765 370.611 264.206 370.297 264.791C369.988 265.372 369.785 266.043 369.687 266.804C369.588 267.574 369.615 268.289 369.769 268.948C369.928 269.603 370.216 270.147 370.634 270.577C371.056 271.004 371.615 271.262 372.31 271.352ZM389.552 279.212C388.749 279.109 388.071 278.917 387.52 278.636C386.969 278.36 386.522 278.03 386.18 277.647C385.842 277.269 385.584 276.878 385.407 276.473L386.851 275.714C386.976 275.931 387.137 276.18 387.334 276.464C387.531 276.751 387.817 277.015 388.192 277.254C388.571 277.499 389.087 277.663 389.74 277.747C390.614 277.859 391.362 277.741 391.984 277.391C392.607 277.042 392.976 276.416 393.092 275.514L393.375 273.316L393.234 273.298C393.086 273.48 392.881 273.702 392.618 273.964C392.361 274.222 392.009 274.437 391.562 274.608C391.12 274.776 390.547 274.815 389.842 274.724C388.969 274.612 388.211 274.304 387.569 273.801C386.932 273.299 386.462 272.628 386.16 271.787C385.862 270.947 385.786 269.963 385.931 268.836C386.074 267.728 386.393 266.788 386.888 266.016C387.384 265.239 388.009 264.671 388.762 264.309C389.515 263.943 390.348 263.819 391.259 263.936C391.963 264.026 392.507 264.216 392.89 264.504C393.278 264.788 393.564 265.092 393.747 265.416C393.935 265.736 394.078 265.998 394.175 266.201L394.345 266.223L394.566 264.504L396.172 264.711L394.74 275.841C394.62 276.771 394.312 277.5 393.814 278.028C393.321 278.561 392.702 278.918 391.958 279.099C391.218 279.286 390.416 279.323 389.552 279.212ZM390.26 273.26C390.927 273.345 391.51 273.265 392.01 273.019C392.509 272.773 392.915 272.379 393.229 271.837C393.542 271.295 393.75 270.625 393.852 269.826C393.953 269.047 393.924 268.344 393.766 267.717C393.608 267.09 393.32 266.578 392.903 266.181C392.487 265.784 391.94 265.542 391.264 265.455C390.56 265.364 389.95 265.467 389.434 265.763C388.923 266.06 388.512 266.494 388.2 267.065C387.892 267.637 387.691 268.289 387.597 269.022C387.5 269.773 387.532 270.453 387.693 271.06C387.859 271.664 388.153 272.16 388.576 272.549C389.003 272.933 389.565 273.17 390.26 273.26ZM397.823 275.922L399.215 265.102L400.821 265.309L400.611 266.943L400.723 266.958C400.989 266.448 401.402 266.059 401.962 265.792C402.521 265.525 403.125 265.434 403.773 265.517C403.895 265.533 404.047 265.555 404.23 265.583C404.413 265.611 404.55 265.636 404.643 265.657L404.425 267.348C404.371 267.327 404.244 267.289 404.046 267.235C403.853 267.177 403.646 267.133 403.426 267.105C402.9 267.037 402.416 267.087 401.974 267.255C401.538 267.418 401.175 267.677 400.886 268.031C400.602 268.382 400.429 268.801 400.366 269.289L399.485 276.136L397.823 275.922ZM408.355 277.535C407.669 277.447 407.064 277.238 406.538 276.907C406.013 276.572 405.618 276.137 405.353 275.602C405.088 275.062 405.001 274.44 405.091 273.735C405.171 273.115 405.358 272.629 405.652 272.275C405.946 271.917 406.312 271.653 406.749 271.485C407.186 271.317 407.658 271.211 408.165 271.166C408.677 271.117 409.188 271.092 409.699 271.091C410.368 271.091 410.909 271.096 411.323 271.107C411.742 271.113 412.053 271.074 412.254 270.99C412.461 270.907 412.581 270.732 412.616 270.464L412.623 270.408C412.712 269.713 412.592 269.148 412.261 268.714C411.935 268.281 411.389 268.015 410.623 267.916C409.83 267.814 409.185 267.908 408.69 268.197C408.194 268.487 407.829 268.817 407.595 269.188L406.09 268.421C406.456 267.8 406.898 267.337 407.415 267.031C407.937 266.721 408.487 266.529 409.064 266.455C409.647 266.378 410.211 266.374 410.756 266.444C411.103 266.488 411.497 266.582 411.937 266.725C412.382 266.863 412.8 267.086 413.19 267.394C413.584 267.703 413.89 268.131 414.106 268.679C414.322 269.227 414.374 269.931 414.264 270.79L413.347 277.919L411.684 277.705L411.873 276.24L411.788 276.229C411.645 276.45 411.425 276.677 411.128 276.911C410.83 277.144 410.451 277.327 409.99 277.459C409.529 277.59 408.984 277.616 408.355 277.535ZM408.801 276.074C409.458 276.159 410.029 276.101 410.513 275.901C411.002 275.701 411.387 275.412 411.67 275.033C411.957 274.654 412.13 274.24 412.188 273.789L412.384 272.267C412.302 272.343 412.138 272.4 411.889 272.44C411.646 272.475 411.366 272.499 411.049 272.511C410.738 272.519 410.434 272.522 410.138 272.523C409.848 272.519 409.611 272.517 409.43 272.517C408.991 272.518 408.575 272.558 408.183 272.636C407.796 272.711 407.472 272.858 407.21 273.077C406.953 273.292 406.797 273.611 406.743 274.034C406.669 274.611 406.826 275.075 407.216 275.426C407.61 275.773 408.138 275.989 408.801 276.074ZM415.859 282.367L417.773 267.49L419.379 267.696L419.158 269.415L419.355 269.44C419.501 269.268 419.701 269.05 419.955 268.787C420.213 268.52 420.562 268.297 421 268.12C421.444 267.938 422.017 267.892 422.722 267.983C423.633 268.1 424.407 268.431 425.043 268.976C425.68 269.521 426.139 270.237 426.421 271.123C426.703 272.009 426.771 273.02 426.625 274.156C426.478 275.302 426.155 276.271 425.657 277.061C425.16 277.847 424.537 278.425 423.787 278.797C423.038 279.164 422.213 279.289 421.311 279.173C420.616 279.083 420.074 278.897 419.686 278.613C419.298 278.324 419.011 278.018 418.823 277.693C418.637 277.363 418.495 277.092 418.398 276.879L418.257 276.861L417.522 282.581L415.859 282.367ZM418.711 273.11C418.606 273.927 418.633 274.663 418.792 275.319C418.952 275.969 419.239 276.5 419.654 276.912C420.07 277.318 420.611 277.565 421.278 277.651C421.973 277.74 422.576 277.631 423.088 277.325C423.606 277.014 424.022 276.562 424.337 275.967C424.658 275.369 424.867 274.685 424.966 273.914C425.064 273.154 425.035 272.453 424.879 271.812C424.728 271.167 424.441 270.636 424.017 270.219C423.598 269.798 423.037 269.542 422.333 269.451C421.656 269.364 421.066 269.462 420.562 269.746C420.058 270.025 419.649 270.455 419.336 271.035C419.023 271.61 418.815 272.302 418.711 273.11ZM430.969 273.569L430.131 280.078L428.469 279.864L430.325 265.438L431.987 265.652L431.306 270.949L431.447 270.967C431.772 270.441 432.21 270.046 432.759 269.783C433.314 269.515 434.016 269.436 434.866 269.545C435.603 269.64 436.23 269.871 436.746 270.238C437.263 270.601 437.635 271.104 437.862 271.749C438.095 272.39 438.151 273.176 438.032 274.106L437.147 280.981L435.485 280.767L436.355 274.005C436.465 273.145 436.328 272.452 435.942 271.925C435.562 271.394 434.979 271.078 434.195 270.977C433.65 270.907 433.147 270.959 432.685 271.134C432.229 271.309 431.847 271.601 431.542 272.01C431.241 272.421 431.05 272.94 430.969 273.569ZM440.189 281.372L441.581 270.552L443.243 270.766L441.851 281.586L440.189 281.372ZM442.658 268.858C442.334 268.816 442.069 268.67 441.862 268.419C441.66 268.168 441.58 267.888 441.619 267.578C441.659 267.268 441.808 267.018 442.067 266.827C442.33 266.636 442.624 266.562 442.948 266.603C443.272 266.645 443.535 266.791 443.736 267.041C443.943 267.292 444.026 267.573 443.986 267.883C443.946 268.193 443.795 268.443 443.532 268.633C443.273 268.825 442.982 268.899 442.658 268.858ZM449.263 282.768C448.248 282.638 447.406 282.286 446.735 281.713C446.064 281.14 445.585 280.407 445.299 279.516C445.012 278.625 444.939 277.639 445.078 276.559C445.219 275.46 445.546 274.516 446.058 273.727C446.575 272.935 447.228 272.348 448.017 271.967C448.811 271.582 449.697 271.453 450.673 271.579C451.434 271.676 452.102 271.906 452.676 272.266C453.25 272.626 453.7 273.085 454.024 273.642C454.349 274.2 454.514 274.822 454.521 275.511L452.859 275.297C452.796 274.787 452.57 274.314 452.182 273.878C451.8 273.437 451.242 273.17 450.51 273.076C449.861 272.992 449.271 273.088 448.74 273.363C448.213 273.635 447.774 274.058 447.423 274.633C447.078 275.205 446.852 275.899 446.747 276.716C446.64 277.552 446.678 278.297 446.861 278.951C447.049 279.605 447.363 280.135 447.802 280.54C448.246 280.945 448.797 281.19 449.455 281.275C449.887 281.331 450.289 281.306 450.66 281.201C451.032 281.096 451.358 280.918 451.638 280.668C451.919 280.418 452.136 280.102 452.29 279.721L453.952 279.935C453.776 280.561 453.47 281.106 453.033 281.571C452.601 282.031 452.063 282.372 451.419 282.595C450.78 282.813 450.061 282.871 449.263 282.768Z" fill="black"/>
</svg>
