<svg xmlns="http://www.w3.org/2000/svg" viewBox="0 0 432 324"><defs><style>.cls-1{fill:#007db0;}.cls-2,.cls-4{fill:#c9d9c9;}.cls-2{opacity:0.75;}.cls-3{opacity:0.65;}.cls-5{fill:#c9b27c;}.cls-6{fill:#a68a66;}.cls-22,.cls-7{fill:#d10000;}.cls-8{fill:#b70000;}.cls-9{fill:#512904;}.cls-10,.cls-11{fill:#4f0c0b;}.cls-10,.cls-32{opacity:0.5;}.cls-12{fill:#60140a;opacity:0.76;}.cls-13{fill:#eadfdc;}.cls-14{fill:#eac9b8;}.cls-15{fill:#d8ad9a;}.cls-16{fill:#8b4129;}.cls-17,.cls-19{fill:#d8bc45;}.cls-18{fill:#ffe36c;}.cls-19{opacity:0.8;}.cls-20{fill:#fff6f3;}.cls-21,.cls-25{fill:#fff;}.cls-22,.cls-25{opacity:0.25;}.cls-23{fill:#ba1e2d;}.cls-24{fill:#a0182c;}.cls-26{fill:#0d152b;}.cls-27{fill:#526fa3;}.cls-28{fill:#e0d394;}.cls-29{fill:#efe6af;}.cls-30{fill:#c4657e;}.cls-31{fill:#e2889c;}.cls-32,.cls-33{fill:#efa7bd;}.cls-34{fill:#e593a9;}.cls-35{fill:#cbbcc1;}.cls-36{fill:#b2a6ab;}.cls-37{fill:#c7a176;}.cls-38{fill:#aa8768;}.cls-39{fill:#d3a784;}</style></defs><g id="Layer_2" data-name="Layer 2"><g id="Layer_2-2" data-name="Layer 2"><g id="Sky"><rect class="cls-1" x="10.5" y="8.91" width="411.61" height="306.22"/><path class="cls-2" d="M9.2,142.19c2.81-9,9.74-5.57,12.29-15.73,2.12-8.44.07-9.06,2.27-13.66,4.1-8.55,10.73-19.15,20.3-19.3,4.46-.07,9.12,4.25,15.46,3.57,3.16-.35,12.13-2.07,16-4.45,4.9-3,4.69-9.9,6.93-14.67,6.69-14.2,5.29-15.49,9.36-19.69,8.7-8.95,14.43-3,26.41-12.29,12.13-9.36,10.08-18.38,20-21.4,6.91-2.09,9.44,1.79,21.39,0,8.77-1.31,6.87-.84,13.47-1.78,14.15-2,30.61,5.53,33.39,16.35,1.28,5-4.13,7.42-3,15.31,1,6.92,6.14,8.25,8.55,12.15,17,27.52,20.06,32.44,29.1,34.19,4.94.95,2.84-2.4,11.37-.8,4.72.89,8.43,2.39,10.25,6.34,2.38,5.15-.84,8.44,1,14.9s7.38,6.81,7.17,12.41c-.65,17.53-4.79,10.2-8,19-1.59,4.33.35,4.66,1.67,15.1.55,4.36.92,7.23.46,10.47-.8,5.64-3.83,10.67-9.11,15.94-8.64,8.63-58.31,59.36-102.19,63.2-10.12.88-19.25-3.93-33.49,1.1a23.31,23.31,0,0,1-10,1.82c-7.63-.5-10.07-5.09-20-10-10.51-5.19-11.86-2.09-17.3-6.37-8.41-6.61-4.24-13.26-12.29-20-7.81-6.57-14.95-3-20.94-10.93-2.56-3.36-2.06-5.05-5.46-8.64-4.88-5.15-7.95-3.84-11.39-7.74-4-4.6-1.47-8.34-4.55-18.21-2.59-8.32-6.75-7.37-9.11-14.62C5.38,152,8.29,145.13,9.2,142.19Z"/><path class="cls-2" d="M342.3,319.64c1.25-12.42,8.34-7.8,12-22.48,3.69-14.87-4.18-17.4,1.74-26,4.11-5.93,11.43-4.22,19.69-13,6.06-6.47,2.35-12.8,6.94-17.64,9.84-10.36,28.11-10.83,37-4.08,4.08,3.09,2.93,6.19,8.7,11.7,2.14,2-.6,72.19-.6,72.19S342,323,342.3,319.64Z"/><path class="cls-2" d="M429.15,30.67c-20.91,8.4-43.8,4.41-63.85,1.65C355.24,30.93,341,37,326,38.71a23.22,23.22,0,0,1-10.17-.45c-7.32-2.18-8.68-7.2-17.3-14.21-9.09-7.41-11.09-4.68-15.45-10.06-.91-1.12,1.15-4.27,14.08-5.24,39-2.93,126.65-2.89,126.65-2.89S429.35,23.79,429.15,30.67Z"/><g class="cls-3"><path class="cls-4" d="M263.81,121.23c-1.86-6.46,1.36-9.75-1-14.9-1.82-4-5.53-5.45-10.25-6.34-8.53-1.6-6.43,1.75-11.37.8-9-1.75-12.11-6.67-29.1-34.19-2.41-3.9-7.59-5.23-8.55-12.15-1.1-7.89,4.31-10.35,3-15.31-2.78-10.82-19.24-18.36-33.39-16.35-6.6.94-4.7.47-13.47,1.78-11.95,1.79-14.48-2.09-21.39,0-10,3-7.9,12-20,21.4-12,9.24-17.71,3.34-26.41,12.29-4.07,4.2-2.67,5.49-9.36,19.69-2.24,4.77-2,11.69-6.93,14.67-3.92,2.38-12.89,4.1-16,4.45-6.34.68-11-3.64-15.46-3.57-9.57.15-16.2,10.75-20.3,19.3-2.2,4.6-.15,5.22-2.27,13.66C18.94,136.62,12,133.19,9.2,142.19c-.91,2.94-3.82,9.8,0,21.56,2.36,7.25,6.52,6.3,9.11,14.62,3.08,9.87.51,13.61,4.55,18.21,3.44,3.9,6.51,2.59,11.39,7.74,3.4,3.59,2.9,5.28,5.46,8.64,6,7.9,13.13,4.36,20.94,10.93,8.05,6.77,3.88,13.42,12.29,20,5.44,4.28,6.79,1.18,17.3,6.37,10,4.93,12.4,9.52,20,10a23.31,23.31,0,0,0,10-1.82c14.24-5,23.37-.22,33.49-1.1,43.88-3.84,93.55-54.57,102.19-63.2,5.28-5.27,8.31-10.3,9.11-15.94.46-3.24.09-6.11-.46-10.47-1.32-10.44-3.26-10.77-1.67-15.1,3.25-8.84,7.39-1.51,8-19C271.19,128,265.65,127.65,263.81,121.23Zm-20.3,45.26c-1.38,3.34.3,3.6,1.45,11.66.48,3.37.79,5.58.39,8.09-.69,4.35-3.32,8.23-7.9,12.3-7.51,6.67-50.63,45.84-88.74,48.8-8.78.69-16.71-3-29.07.85a22.49,22.49,0,0,1-8.7,1.41c-6.62-.38-8.74-3.93-17.39-7.73-9.13-4-10.29-1.62-15-4.92-7.3-5.11-3.69-10.24-10.67-15.47-6.78-5.07-13-2.34-18.19-8.44-2.22-2.6-1.78-3.9-4.74-6.68-4.24-4-6.9-3-9.88-6-3.52-3.56-1.28-6.44-4-14.07-2.25-6.42-5.86-5.69-7.91-11.28-3.31-9.08-.79-14.39,0-16.65,2.44-6.95,8.46-4.31,10.67-12.15,1.84-6.51.07-7,2-10.54,3.55-6.61,9.31-14.79,17.62-14.91,3.88-.05,7.92,3.28,13.42,2.75,2.75-.26,10.53-1.59,13.94-3.43,4.26-2.3,4.07-7.65,6-11.33,5.81-11,4.59-12,8.13-15.2,7.55-6.92,12.53-2.36,22.93-9.5s8.75-14.19,17.39-16.52c6-1.62,8.2,1.38,18.58,0,7.61-1,6-.65,11.69-1.37,12.28-1.56,26.58,4.27,29,12.62,1.1,3.83-3.59,5.73-2.64,11.83.84,5.33,5.34,6.37,7.43,9.37,14.75,21.26,17.42,25.06,25.27,26.41,4.28.73.69-1.53,8.1-.3,4.09.69,9.09,1.52,10.67,4.57,2.06,4-.73,6.52.88,11.51s6.41,5.26,6.23,9.59C249.93,165.33,246.33,159.66,243.51,166.49Z"/></g></g><g id="yellow_kiki" data-name="yellow kiki"><g id="Broom_Brush" data-name="Broom Brush"><path class="cls-5" d="M269.09,285.78s7.61,7.59,8.32,9.07-13.83-6-13.83-6,8.18,7,8.74,8.89S261,292.84,261,292.84l16.87,15.68-64.56.19-2.54-23.8Z"/><polygon class="cls-6" points="214 287.14 246.28 290.66 251.92 298.8 251.37 295.19 262.7 307.71 211.23 307.29 214 287.14"/></g><g id="Bow"><path class="cls-7" d="M213.39,82.08s1.31-11.59.8-13.65c-.57-2.24-2.81-5.68-9.09-7.14s-8.79,1.35-8.79,1.35-2.3,2.26-6.84,1.94c-4-.32-2.25,10-2.25,10s1.23,7.49,4.8,8.93S213.39,82.08,213.39,82.08Z"/><path class="cls-7" d="M210.26,81.51s7.4-17.18,10.15-18.34,4.07-1,4.45,0a5,5,0,0,0,1.6,2c1.08,1,6.61.48,6.61.48s4.88-.28,8.64,4.95a8.18,8.18,0,0,1-.08,9.87s-7.45,8.51-10.48,8.92S210.26,81.51,210.26,81.51Z"/><path class="cls-8" d="M212.64,81.53,214.22,74s3.95-8.74,5.54-7.55-2.47,6,1.84,6.53c5.42.69,13.16-3.43,14.12-1.89C238.1,75,225.4,86.26,225.4,86.26Z"/><path class="cls-8" d="M213.07,74.93s-.23-4.43-.52-5.76c-.19-.85-.88-4.23-3.32-1.43s-1.94,4.69-4.28,4.67.85,9.67.85,9.67l6.08-1Z"/></g><g id="Hair"><path class="cls-9" d="M245.47,139.91s3.77.8,5.77-1.74c4.14-5.26.55-12.28-2.09-16.16a17.31,17.31,0,0,1,4.34,4.88c-.14-8.15-5.18-9.49-5.14-13-1.61-41.6-31.52-31.55-31.52-31.55l-5.27-2.14a30.8,30.8,0,0,0-8.94-1.45s-2.9-.39-5.16-6c0,0-.7,5.55.81,7.89,0,0-8.46-.65-10.64,1.14,0,0,2.81,1,3,1.61A15,15,0,0,0,180.06,92s-2.14,7.27-1.69,11.91c.36,3.59-2.54,6.57-5,7.63,0,0-5.07,3.08-11.72-2.24,0,0,2.32,3.12,4.63,5.57a8.9,8.9,0,0,0-4.93,5.12,13.55,13.55,0,0,0,.91,11.16s.89,2.73-.95,3.53a5,5,0,0,0,5.54.64s1.52,4.84,8.2,5.4,2.75-1.09,2.75-1.09,1.31,6.32,9.81,6.53S198,142.12,198,142.12s.48,7,11,6.45,12.7-5.43,12.7-5.43,6.9,4.44,13.44,1a2.57,2.57,0,0,1-.92,1.45s3.55-.36,4.43-2.45C238.65,143.17,243.35,143.67,245.47,139.91Z"/><path class="cls-10" d="M178.48,105a7.86,7.86,0,0,1-5,7.41s-1.55,1.16-6.72.82c-1-.07.75,1.35.09,2a9.15,9.15,0,0,0-5.36,5.34,12.83,12.83,0,0,0,.91,10.83s.89,2.66-1,3.43a4.9,4.9,0,0,0,5.39.5s1.66,4.83,8.32,5.38,2.75-1.06,2.75-1.06,1.31,6.14,9.79,6.34,10.18-4.32,10.18-4.32.66,7.14,11.15,6.63,12.67-5.27,12.67-5.27,6.89,4.31,13.41,1a2.08,2.08,0,0,1-.92,1.56c3.1-.38,4.15-1.7,4.43-2.53,0,0,4.69.48,6.8-3.16,0,0,3.76.77,5.76-1.69,2.74-3.38-.14-10.64-2.35-16-.7-1.72-2.43-3-3-4-.51-3.32-.49-7.55-2.81-8.09-2.69-.63-5.5,3.87-6.94,3s1.78-5.93-.45-10c-1.76-3.18-5-2.19-7.09-5.76-1.94-3.26,0-5.33-1.88-7.35-2.15-2.33-5.22-.14-10.82-2.09-4.59-1.6-4.08-3.59-6.83-3.82-5.67-.46-7.23,8.08-15.66,9.72-3.33.64-5.08-.3-6.54,1.27-2.44,2.63.44,7.44-1.85,9.61C184.15,105.64,182.37,106.19,178.48,105Z"/><path class="cls-11" d="M248.86,122.2c4.47,5,5.46,13.56,2.35,16l-5.76,1.69h0c-2.11,3.64-6.8,3.16-6.8,3.16-.28.83-1.33,2.15-4.43,2.53a2.08,2.08,0,0,0,.92-1.56c-6.52,3.31-13.41-1-13.41-1s-2.18,4.75-12.67,5.27-11.15-6.63-11.15-6.63-1.7,4.52-10.18,4.32-9.79-6.34-9.79-6.34,3.92,1.61-2.75,1.06-8.32-5.38-8.32-5.38a4.9,4.9,0,0,1-5.39-.5c1.84-.77,1.83-3.42,1.83-3.42-1.9-3.32-1.5-6.56.08-10,.7-1.52,4.07-4,5.41-4.52.66-.69-1.09-2.11-.09-2,5.17.34,6.72-.82,6.72-.82,1.16-1.16,2.58-2.19,3.77-1.82,2.15.66,1.53,5.28,3.74,6.12,1.54.58,2.87-1.24,6.28-3.21,2.15-1.24,7-4.06,11.29-3.06s3.59,7.2,7.7,8.1c1.9.41,2.09-.77,5-.94,5.48-.32,7.38,3.59,11,2.51,2.89-.88,2.85-3.79,5.13-3.89,3.23-.13,4.76,5.65,7.48,5.29,2.14-.28,2.14-4,4.75-4.72C244.69,117.49,248.38,121.65,248.86,122.2Z"/><path class="cls-12" d="M251.61,126.35c1.81,2.37,1.75,8.49,1.17,9.94a7.67,7.67,0,0,1-1.25,2.12,6.26,6.26,0,0,1-6,1.69c-2.12,3.64-6.81,3.16-6.81,3.16-.27.83-1.39,2-4.49,2.36,1-.78.83-1.41.83-1.41-6.52,3.31-13.26-1-13.26-1s-2.19,4.67-12.67,5.27c-10.75.61-11.11-6.38-11.11-6.38s-1.73,4.26-10.22,4.07-9.79-6.34-9.79-6.34,3.92,1.6-2.74,1.05-8.25-5.81-8.25-5.81a3.28,3.28,0,0,1-4-.28c2.18.05,2.7-1.4,2.19-3.05-1.9-3.32-1.5-6.56.08-10,1,2.31,2.06,6,3.84,6.11,2.74.11,5.06-2.17,7.78-2,2.24.13,2.25,4,5.4,6,3.47,2.19,3-1.49,9.51-1.79,8.82-.41,13.22,6.64,21.43,6.15,7.64-.45,10.62-7.38,15.05-5.53,4.59,1.91,2.64,5.46,6,5.61,3.82.17,6-6.85,9.67-6.13,1.75.35,2.07,2.1,4.54,2.4C250.67,132.76,250.91,125.44,251.61,126.35Z"/></g><g id="Back_Pearls" data-name="Back Pearls"><circle class="cls-13" cx="220.11" cy="147.48" r="1.18"/><circle class="cls-13" cx="201.23" cy="147.41" r="1.18"/></g><g id="Neck"><path class="cls-14" d="M220.55,148.61s-3.36-4.51-2.59-9.85-16.48,1.75-16.48,1.75l-.61,8.47L197.19,150l-1,5.36,3.39,5.52,7.8,1,15.15-2.78.32-10Z"/><path class="cls-15" d="M201.48,140.51,201.3,144a7.81,7.81,0,0,0,5.09,3.05c4.1.49,6.41-.66,10-3.5l1.56-1.49a20.56,20.56,0,0,1,0-4C218.23,137.42,201.48,140.51,201.48,140.51Z"/></g><g id="Foot"><path class="cls-16" d="M221.71,286.49s11.66,6.59,12.64,11.74a27.29,27.29,0,0,1-.08,9.83l13.08.11s.87-10,.1-13.22c-.62-2.63-1.55-4.3-7.83-6.15C232,286.53,221.71,286.49,221.71,286.49Z"/><path class="cls-14" d="M218,286.45s11.66,6.6,12.63,11.75a27.29,27.29,0,0,1-.08,9.83l13.08.11s.87-10,.1-13.22c-.61-2.63-1.55-4.3-7.83-6.15C228.21,286.5,218,286.45,218,286.45Z"/><path class="cls-15" d="M243.71,294.92c-.61-2.63-1.55-4.3-7.83-6.15-7.67-2.27-17.9-2.32-17.9-2.32a39.91,39.91,0,0,1,11.11,8.77,44.7,44.7,0,0,0,8,.68A54.74,54.74,0,0,0,243.71,294.92Z"/></g><g id="Dress"><path class="cls-17" d="M296,267.37a44.32,44.32,0,0,0,18,2.46c10.56-.63,13.47-3.07,13.47-3.07s4.65-3.14,2.67-7.79-9.19-8.16-9.19-8.16Z"/><path class="cls-18" d="M197.19,150c-1.8.32-9.16.7-12.15,1.31-7.38,1.51-12.07,9-13.37,16.37-2.32,12.72-3.71,29.36-3.71,29.36s-6.38,4.61-6.39,6.18-.3,4.07.82,5.65a25.34,25.34,0,0,0,4.57,4,13.52,13.52,0,0,0,9.22.07,71.8,71.8,0,0,0,10-4.32s3.86-1.48,6.51-.59,1.72,8.91,1.72,8.91-6.58,2.6-21.11,2.16S154,222.18,154,222.18,146.29,231,145.22,236s-10,12.23-10,12.23-9.46,3.92-14.09,11.75-1.76,17-1.76,17,3.14,13.74,20.86,16.55,73.77-4,73.77-4,.87-.1,24.6,2.05,45.4-7.53,45.4-7.53a59.94,59.94,0,0,0,19.86-13.61,35,35,0,0,1,19.38-10.68s5-1.26,6.51.05-.06-5.1-6.09-10.68c0,0,.85-11.6-4-16.84s-7.53-8.84-18.5-12.62c0,0-4.95-16.63-14.21-25.16s-19.51-8.94-27.43-7.17c-6.3,1.42-14.36,6.93-14.36,6.93s2.55-21,1.41-26.76-.56-11.94-11-16.8l-12.69-1.61s-1.75,13.28-18.9,11.73a7.45,7.45,0,0,1-6.33-4.88A55.08,55.08,0,0,1,197.19,150Z"/><path class="cls-17" d="M301.25,219.65c-8.45-27.51-22.75-30.82-22.75-30.82s-8.33-5.18-21.32-.8c-12.3,4.16-12.31,6.77-12.31,6.77s1.07,13.34-2,17.47c-.63.84-3,1.64-2.7,2.5a56.7,56.7,0,0,0,6.56,11.63s13.73-4.4,24.93-5.9C283.21,219,301.25,219.65,301.25,219.65Z"/><path class="cls-19" d="M190.12,243.42l3,5.82,3,.23,22.22-33.21s-4.61-19.34-2.28-22,2.53-9.31,2.53-9.31c-5.08,10.15-15.3,14.87-15.3,14.87s-9,4.41-9.48,1.58a66.07,66.07,0,0,0-2.75-9s-2.85-4.65-3.71-6.5-.59-7.34-.59-7.34c-.86.42-1.68,2.44-1.68,2.44l1.25,28.46-6.23,7.4Z"/><path class="cls-17" d="M140.37,293.48c-17.7-2.8-20.86-16.54-20.86-16.54s-2.86-9.19,1.77-17,14.09-11.75,14.09-11.75,8.89-7.2,10-12.23,8.74-13.81,8.74-13.81,4.86-3.54,19.38-3.09l4.82,0,1.06,3.52s-3.79-.7-5.53.47-5.37,7.23-5.37,7.23l-5.05,6.14s-8.45-1.37-17.85,7.55-9,17.6-9,17.6-1.07,9,1,13.46a20.17,20.17,0,0,0,6.23,7.31Z"/><path class="cls-19" d="M222.18,151.44a3.35,3.35,0,0,1,.32.66,40.27,40.27,0,0,1,8.5-.34c3.73.39,7.09.52,9.54,7.38s2.37,8.29,2,11.18c-.61,4.32-2.06,8.34-5,16.66,0,0,1.32,17-.17,20.92,0,0,5.23,9.31-5.71,8.41,0,0,1.82,1.65,9.6-.19s3.16-28.87,3.16-28.87,3.79-12.55,2.66-20.09-2.45-14.17-11.3-16.74c-3.84-1.12-7.16-.44-10.3-1.09-.84-.2-1.7-.36-2.57-.48Z"/></g><g id="Pearls"><circle class="cls-13" cx="200.01" cy="148.64" r="0.95"/><circle class="cls-20" cx="200.47" cy="150.2" r="0.95"/><circle class="cls-20" cx="201.54" cy="151.67" r="0.95"/><circle class="cls-20" cx="202.84" cy="152.88" r="0.95"/><circle class="cls-21" cx="202.53" cy="152.62" r="0.26"/><circle class="cls-20" cx="204.44" cy="153.71" r="0.95"/><circle class="cls-21" cx="204.14" cy="153.45" r="0.26"/><circle class="cls-20" cx="206.11" cy="154.25" r="0.95"/><circle class="cls-21" cx="205.81" cy="153.99" r="0.26"/><circle class="cls-20" cx="207.84" cy="154.51" r="0.95"/><circle class="cls-21" cx="207.53" cy="154.25" r="0.26"/><circle class="cls-20" cx="209.75" cy="154.49" r="0.95"/><circle class="cls-21" cx="209.44" cy="154.23" r="0.26"/><circle class="cls-20" cx="211.65" cy="154.34" r="0.95"/><circle class="cls-21" cx="211.35" cy="154.08" r="0.26"/><circle class="cls-20" cx="213.54" cy="154.04" r="0.95"/><circle class="cls-21" cx="213.24" cy="153.78" r="0.26"/><circle class="cls-13" cx="220.37" cy="148.45" r="0.95"/><circle class="cls-20" cx="219.79" cy="150.17" r="0.95"/><circle class="cls-20" cx="218.61" cy="151.64" r="0.95"/><circle class="cls-20" cx="217.06" cy="152.72" r="0.95"/><circle class="cls-20" cx="215.34" cy="153.5" r="0.95"/></g><path id="Left_arm" data-name="Left arm" class="cls-14" d="M175.41,213.17c.9,12.22,9.73,26.08,10.07,28.21.58,3.66,1.07,15.47,1.07,15.47l7.38,1.14,4.29-4.45a10,10,0,0,0-2-4.56c-1.49-1.65-1.63-4.72-1.63-4.72l-.64-34s-1.33-3.21-7.85-1.53A41.78,41.78,0,0,0,175.41,213.17Z"/><path id="Right_arm" data-name="Right arm" class="cls-14" d="M218.44,207.92s11.89-1.54,14.86-.1-2.85,9.29-2.85,9.29L207.54,248a11.76,11.76,0,0,0-1.51,6.06c0,3.85-2.08,9.85-2.08,9.85s-3.33,1.81-4.95.88-4-16.35-4-16.35,1-3.9,3.3-5.24,2.9-4.63,2.9-4.63,8.22-26.56,11.41-28.91Z"/><g id="Face"><path class="cls-14" d="M190.64,99.52a30,30,0,0,0-1.54,7.74c0,1.67.26,7.29.26,7.29s-2.94,6.63-2.18,10.82,7.1,11.34,7.1,11.34,3.51,4.21,11.16,4.92,16.89-5.7,16.89-5.7,2.63-2.8,2.85-4c0,0-.3,1.74,2,1.47s4.37-3.36,4.37-3.36,3.36-4.86,2.37-7.67-4-.88-4-.88S226.08,123,228.4,112c1.39-6.74-8.33-8.47-11-12.87-4.74-7.63.23-10.83-7.07-10.78C200.83,88.33,193.48,92.34,190.64,99.52Z"/><circle class="cls-22" cx="190.64" cy="119.99" r="5.64"/><circle class="cls-22" cx="220.64" cy="120.55" r="5.64"/><path class="cls-11" d="M199.27,99.14c.15.89-1.2.12-2.67.35s-2.54,1.4-2.68.51a2.8,2.8,0,0,1,2.28-2.66A2.87,2.87,0,0,1,199.27,99.14Z"/><path class="cls-11" d="M215.3,98.68c-.16.89,1.2.13,2.68.39s2.5,1.44,2.66.55a2.85,2.85,0,0,0-2.24-2.8A2.89,2.89,0,0,0,215.3,98.68Z"/></g><g id="Lips"><circle class="cls-15" cx="212.54" cy="127.58" r="1.2"/><path class="cls-23" d="M199,127.83s10.53,1.15,13.48-.26c0,0-4.67,4.83-8.39,4.36A5.59,5.59,0,0,1,199,127.83Z"/><path class="cls-24" d="M212.53,127.54c-3.11.86-5.25-.88-7.17-1.06a9.37,9.37,0,0,0-2.27.65,3.72,3.72,0,0,0-1.72-.67,4.56,4.56,0,0,0-2.47,1.36C199.87,128.37,204.76,130.1,212.53,127.54Z"/></g><g id="Nose"><path id="Nose-2" data-name="Nose" class="cls-15" d="M206.53,120.75c1.49.72.55,1.3-.23,1.08s-2.13,1-2.13,1-1.65.37-2-.34a2.62,2.62,0,0,0-1.12-1.16c-1.82-.71-.88-1.92-.88-1.92l2.11-3.88a24.08,24.08,0,0,0-1.53,4.1c0,.76,1,1.51,2.27,1.62a3.83,3.83,0,0,0,2.08-.34A1.66,1.66,0,0,1,206.53,120.75Z"/><circle id="nose_shine" data-name="nose shine" class="cls-25" cx="201.86" cy="119.35" r="0.95"/><g id="nose_ring" data-name="nose ring"><path class="cls-13" d="M204.16,121.9c.55.09.31,1.58-1,1.68a1.33,1.33,0,0,1-1.37-1.22c-.08-1,.3.72,1.33.64S203.87,121.85,204.16,121.9Z"/><path class="cls-21" d="M203.81,123c.16,0,0,.47-.66.5-.34,0-.68-.14-.7-.35s.15.21.68.19S203.66,123,203.81,123Z"/></g></g><g id="Eyes"><path class="cls-21" d="M201.24,110.59c0,2.5-1.67,4.51-3.67,4.49s-3-2-3-4.54.8-4.35,3.1-4.49C199.65,105.93,201.26,108.1,201.24,110.59Z"/><path class="cls-21" d="M221.18,110.76c0,2.5-1.67,4.5-3.67,4.49s-3.25-2-3.23-4.55,1.31-4.5,3.31-4.48S221.2,108.27,221.18,110.76Z"/><ellipse class="cls-26" cx="217.09" cy="109.84" rx="2.92" ry="1.98" transform="translate(105.47 326.02) rotate(-89.53)"/><ellipse class="cls-26" cx="197.62" cy="109.68" rx="3.16" ry="2.14" transform="translate(86.32 306.4) rotate(-89.53)"/><path class="cls-27" d="M197.66,111c.83,0,1.43-1,1.42-.17a1.5,1.5,0,1,1-3,0C196.09,110,196.83,111,197.66,111Z"/><path class="cls-27" d="M217.13,110.93c.83,0,1.38-1.07,1.41-.24a1.49,1.49,0,0,1-1.43,1.57,1.51,1.51,0,0,1-1.56-1.44C215.52,110,216.31,111,217.13,110.93Z"/><circle class="cls-21" cx="218.27" cy="108.06" r="0.64"/><circle class="cls-21" cx="198.76" cy="108.03" r="0.69"/><polygon class="cls-14" points="201.2 115.96 194.51 115.37 193.72 114.09 201.21 114.15 201.2 115.96"/><polygon class="cls-14" points="218.85 115.26 213.03 116.06 213.04 114.25 220 114.31 218.85 115.26"/><path class="cls-11" d="M214.92,108s2.13-4.33,6,.7c0,0-2-4.81-5.17-2.45A2.43,2.43,0,0,0,214.92,108Z"/><path class="cls-11" d="M195,107.79s2.13-4.33,6,.7c0,0-2-4.82-5.17-2.45A2.41,2.41,0,0,0,195,107.79Z"/><path class="cls-11" d="M196.09,106.14a2.34,2.34,0,0,1-1.82-.16s.33.88,1,.71S196.09,106.14,196.09,106.14Z"/><path class="cls-11" d="M216,106.23a2.34,2.34,0,0,1-1.82-.16s.34.88,1,.71S216,106.23,216,106.23Z"/></g><g id="Yellow_Cage" data-name="Yellow Cage"><path class="cls-28" d="M177,261.78s-10.91-.8-18.86,5.2-10.92,11.86-10.92,11.86-7.88,14-8.53,29l38-.44Z"/><path class="cls-29" d="M153.53,307.46c-.22-12.07,4.19-25.3,4.19-25.3s1.81-5.35,7.52-13.37S181,260.48,181,260.48s17.78-1.67,26.89,8.24S219.31,288,219.31,288s4.56,15.54,4,21.83Z"/></g><g id="Pink_Bow" data-name="Pink Bow"><path class="cls-30" d="M183.37,262.72c-.77.09-3.35.29-3.42-.65a7.41,7.41,0,0,1,.43-3.08,6.55,6.55,0,0,1,3.16-2.64c3.35-1.58,9.59-1.58,9.59-1.58S185.27,262.48,183.37,262.72Z"/><path class="cls-31" d="M188.26,269.8l.51,6.07s-.07,2.14,1.59,2.46,4.81-2.49,4.81-2.49l2.67-3s.76-1.44-1.05-2.6-4.95-2.75-4.95-2.75Z"/><path class="cls-31" d="M196.76,266.58s5,6.19,7.48,6.76,1.68-5.9.61-7.41c-.75-1.06-1.12-.79-4.77-1S196.76,266.58,196.76,266.58Z"/><path class="cls-32" d="M201.05,269.7a6.21,6.21,0,0,0,3,2.76c2,.77,1.07-4.68.11-6C203.5,265.47,204.71,267.5,201.05,269.7Z"/><path class="cls-33" d="M187.61,259.46a15.2,15.2,0,0,1,4.77-4.66,29.53,29.53,0,0,1,5.06-2s5.53-.87,5.68,2.85-.25,9.47-.25,9.47-.33,2.42-3.8,3a11.13,11.13,0,0,1-6.47-1Z"/><path class="cls-34" d="M194.79,263.15s2.44,1.19,4,.25a45.55,45.55,0,0,0,4-2.92l-.22,4.51a3.1,3.1,0,0,1-1.39,2,7,7,0,0,1-3.52,1.1,22.35,22.35,0,0,1-2.25-.25Z"/><path class="cls-31" d="M182.73,261.77s0-3.11,1.31-3.18,4.4-1.37,8.16,1.48,4.23,4.85,4.23,4.85,1.2,3.94-5,5.49C191.41,270.41,182.86,263,182.73,261.77Z"/><path class="cls-33" d="M180.28,266.19s.21-4.27,2.06-4.12c0,0,0-3.11,1.3-3.18s4.41-1.38,8.17,1.48,4.23,4.84,4.23,4.84,1.19,3.94-5,5.49a5.91,5.91,0,0,0-3.65,2.35c-1.41,2-4.66.94-4.66.94S179.66,272.4,180.28,266.19Z"/><path class="cls-34" d="M182.37,262.21s-.68,4.23,1.88,5.49,8.17,2.1,8.17,2.1a9.49,9.49,0,0,0-5.6,3.42c-.76,1.1-3.4.92-4.63.11C179.88,271.79,179.57,262.52,182.37,262.21Z"/><path class="cls-32" d="M191.23,273.11c-.82.3-1.58,2.06-1.58,2.06s-.06,1.93,1.44,2.23,4.12-2.44,4.12-2.44l2-2.3s.73-1.39-1.08-2.12c-.85-.34-1.51.65-1.51.65A11.27,11.27,0,0,1,191.23,273.11Z"/></g><g id="Broom"><ellipse class="cls-35" cx="185.95" cy="250.62" rx="6.65" ry="7.32"/><ellipse class="cls-36" cx="185.51" cy="250.28" rx="5.64" ry="6.21"/><path class="cls-37" d="M142.78,200.08l45.88,47.24s1.38,4.37-.79,6.32-5.91.22-5.91.22l-48.61-44.58Z"/><path class="cls-38" d="M140.05,208.64s41.31,39,47.82,45c-2.17,2-5.91.22-5.91.22l-48.61-44.58Z"/><circle class="cls-39" cx="137.93" cy="204.54" r="6.6"/></g></g><g id="Border"><path class="cls-21" d="M0,0V324H432V0ZM414.3,305.65H18.3v-288h396Z"/></g></g></g></svg>