<svg xmlns="http://www.w3.org/2000/svg" viewBox="0 0 49.16 58.26"><defs><style>.cls-1,.cls-2{fill:none;stroke:#000;stroke-linecap:round;stroke-linejoin:round;}.cls-1{stroke-width:1.68px;}.cls-2{stroke-width:2px;}</style></defs><g id="Layer_2" data-name="Layer 2"><g id="Layer_5" data-name="Layer 5"><path class="cls-1" d="M.84,21.06A40.09,40.09,0,0,1,25.42,10.25C43.55,9,48.32,17.6,48.32,17.6s-1.49,7.76-20.09,11C18.81,30.27,7.11,27.46.84,21.06"/><path class="cls-2" d="M16.59,49.29l-1.77-47a190,190,0,0,0,7.55,34.64c1.52-2.34,1.82-5.24,2.09-8q1.3-13.73,2.6-27.45A279.55,279.55,0,0,0,28.84,44a59.45,59.45,0,0,0,2.71,13.23"/><path class="cls-2" d="M34.49,50.43,33.36,2c-.4-.54,6.09-1.53,9.25-.67a6.38,6.38,0,0,1,3.52,2.25c1.17,1.46.67,3.62,0,5.35A34.49,34.49,0,0,1,32.2,25.31l.65-1.18"/></g></g></svg>