<svg xmlns="http://www.w3.org/2000/svg" viewBox="0 0 1024.21 76.72"><g data-name="Layer 2"><g data-name="Layer 4"><path d="m.11 38.41 12.11 10.56 5.26 2.28 3.12 4.37 4.34 1.15H46.63l9.32-1.41 7.16 1.41 9.76-1.41 6.07 2.5 9.11-1.95 8.46 1.95 11.06-3.91 5.85 1.96 13.45-1.96h9.11l7.8-2.17 9.76 1.74 3.04-1.74 3.47-3.68 5.2-4.12 10.41-1.09 5.86-1.51 21.68 6.5 8.9.22 6.72-.22 8.02-2.6 16.7-.65 9.11 3.25 11.71-1.95 12.36-.87 8.68 2.39 12.58 4.77 6.07-1.09 12.58-4.77 10.19.65 6.07-1.95 14.31-2.17 8.03-2.82 15.4 1.52 10.84 5.64 13.01 1.74 6.72 6.28 6.73 4.77 8.02 9.55 6.29-.87 8.24-3.9 8.03-2.39 8.24-4.99 6.5 2.6 8.89 2.39H468l5.2-1.3 8.24 2.38 7.81-1.08h11.51l11.35 5.21 14.66-4.34 14.75 3.03 13.23-3.9 8.02 2.39 10.63.65 12.58.65 13.22 2.17 7.81-2.39 8.03.87 5.63-1.52 7.38 6.51 8.89.86 5.85 2.39h16.92l4.99-1.52 7.37 1.52 7.38-1.52 6.93 1.52 8.46-3.9h7.81l12.58-1.96 11.71.87 13.01-2.17 17.79 3.91 15.61 4.98 8.89-3.9 8.67.87 10.2-5.42 4.77-1.3 8.46 1.08 7.8-1.3 10.2.22 18.21-3.69 6.94 1.95 12.15-1.74 10.84 4.56 9.33-5.64 9.76 1.52 5.85 1.3 8.89-1.3 7.59 2.38 6.73-2.82 11.92.87 14.53-4.98 11.71 1.73 7.81-1.52 5.86 1.09 4.99-2.28 10.84 4.01h6.07l7.81-4.01 13.94-.47-3.86-6.71-.43-6.07 4.29-6.74V7.43L11.99 13.52.11 38.41z" style="opacity:.05"/><path style="fill:#fff" d="m.11 32.41 12.11 10.56 5.26 2.28 3.12 4.37 4.34 1.15H46.63l9.32-1.41 7.16 1.41 9.76-1.41 6.07 2.5 9.11-1.95 8.46 1.95 11.06-3.91 5.85 1.96 13.45-1.96h9.11l7.8-2.17 9.76 1.74 3.04-1.74 3.47-3.68 5.2-4.12 10.41-1.09 5.86-1.51 21.68 6.5 8.9.22 6.72-.22 8.02-2.6 16.7-.65 9.11 3.25 11.71-1.95 12.36-.87 8.68 2.39 12.58 4.77 6.07-1.09 12.58-4.77 10.19.65 6.07-1.95 14.31-2.17 8.03-2.82 15.4 1.52 10.84 5.64 13.01 1.74 6.72 6.28 6.73 4.77 8.02 9.55 6.29-.87 8.24-3.9 8.03-2.39 8.24-4.99 6.5 2.6 8.89 2.39H468l5.2-1.3 8.24 2.38 7.81-1.08h11.51l11.35 5.21 14.66-4.34 14.75 3.03 13.23-3.9 8.02 2.39 10.63.65 12.58.65 13.22 2.17 7.81-2.39 8.03.87 5.63-1.52 7.38 6.51 8.89.86 5.85 2.39h16.92l4.99-1.52 7.37 1.52 7.38-1.52 6.93 1.52 8.46-3.9h7.81l12.58-1.96 11.71.87 13.01-2.17 17.79 3.91 15.61 4.98 8.89-3.9 8.67.87 10.2-5.42 4.77-1.3 8.46 1.08 7.8-1.3 10.2.22 18.21-3.69 6.94 1.95 12.15-1.74 10.84 4.56 9.33-5.64 9.76 1.52 5.85 1.3 8.89-1.3 7.59 2.38 6.73-2.82 11.92.87 14.53-4.98 11.71 1.73 7.81-1.52 5.86 1.09 4.99-2.28 10.84 4.01h6.07l7.81-4.01 13.94-.47-3.86-6.71-.43-6.07 4.29-6.74V1.43L11.99 7.52.11 32.41z"/><path d="m1024.11 26.59-25.81 8.13-6.07-3.9-17.35 8.24L936.71 33l-15.62 6.07H891.6l-20 8.68-19.9-6.09-40.77 11.28h-11.28L794 54.68h-9.1l-14.31 1.73-6.94-4.55-8.65-1.52-1.08-2.82-10.63 5.42-16.29.65-4.56-3.69-13.66 3.26-8-3-7.16-.22-2.82-3.25-3.9 2.17-4.12-2.39-10.43 2.13-10 .22-3.25 2.39-9.1-3.69-2.17-2.17-6.29 3-8.46-6.73-4.55 1.09-4.12-3-5 1.95-3.69-1.3-5.42 2.82-3.9-1.52-6.29 2.39-6.94-2.39h-7.57l-5-3-2.82 1.73-2.17-2.17-4.77 1.52-2-1.3v-5.67l-1.95.65-3 3.69-2.82-2-3.25.87-1.73-1.09-4.09-6.24-4.78 4.56-3.68-1.52-1.74.65L539 30l-7.4 1.9-4.77-3-2.83 2.57-1.52.22-6.86-3.26v2.39l-4.42 2.82h-4.77l1.74-4.34-4.12-5.64-3.24-.86 1.94 3.47-.22 3.9-3.25-3-9.76.65-2.6-.21v-3.3l-5.64 1.09-.87 1.73-3.9-3v-2.85h-2.39l-3.25 1.3v-2.82l-2.17-.87v-3l-6.7-2.2 3.47 3-3.47 2.64-24.94 1.3-9.76 3.68-7.16-3.68-4.77 1.3v-1.3l-8.68 3.47-3.9 2.38v-3.25h-8.89l-5.42-1.73-5.21.86-2.38 1.09-4.56-1.52-8.89-2.17-8.89 1.74-1.3-3.91-6.72 3.69-6.94 3.25-.87 1.95-4.12-2.17-5.42 1.31-26-2.82-40.77 7.8-5-2.82-5.85.44-13.88-1.3-26.24 1.51-5.86-1.95-14.09 5.86-9.33-2-6.29 1.73-3.25-1.73-10.41 2.82-2-2-8.68 5.64v-3.38l-13.66 1.63-4.34-3.15s-6.07 4.13-6.94 4.34-8.24 1.95-8.24 1.95v-5.63L115 35.05l-4.12-3.8-6.73 3.8-6.94-1.63-5 1.63-4.12-1.41-4.34 2.6-6.51-1.19v-4.88l-2.82-.43-4.12 3.9-4.55-.22-1.5 2.58-5.85 2-7.81 2.17L48 42.75l-.87 2.38L43 43.62l-5.42 2-5.64.65-3 .65-6.72-.44L.11 32.41 0 3.8 1024.21 0z" style="fill:#fff9ee"/></g></g></svg>