<svg xmlns="http://www.w3.org/2000/svg" viewBox="0 0 1024.21 76.72"><defs><style>.cls-1{opacity:0.05;}.cls-2{fill:#fff;}.cls-3{fill:#fff9ee;}</style></defs><g id="Layer_2" data-name="Layer 2"><g id="Layer_4" data-name="Layer 4"><g class="cls-1"><polygon points="1024.1 38.31 1011.99 27.76 1006.73 25.47 1003.61 21.11 999.27 19.95 993.2 19.95 977.58 19.95 968.26 21.36 961.1 19.95 951.34 21.36 945.27 18.87 936.16 20.82 927.71 18.87 916.64 22.77 910.79 20.82 897.34 22.77 888.24 22.77 880.43 24.94 870.67 23.2 867.63 24.94 864.16 28.63 858.96 32.75 848.55 33.83 842.69 35.35 821.01 28.84 812.11 28.63 805.39 28.84 797.37 31.45 780.67 32.1 771.56 28.84 759.85 30.8 747.49 31.66 738.81 29.28 726.24 24.51 720.16 25.59 707.58 30.36 697.39 29.71 691.32 31.66 677.01 33.83 668.98 36.65 653.58 35.13 642.74 29.49 629.73 27.76 623.01 21.47 616.28 16.7 608.26 7.16 601.97 8.02 593.73 11.93 585.71 14.31 577.46 19.3 570.96 16.7 562.07 14.31 556.21 14.31 551.01 15.62 542.76 13.23 534.96 14.31 523.45 14.31 512.1 9.11 497.44 13.45 482.69 10.41 469.46 14.31 461.44 11.93 450.81 11.28 438.24 10.63 425.01 8.46 417.2 10.84 409.17 9.98 403.54 11.49 396.16 4.99 387.27 4.12 381.42 1.74 364.5 1.74 359.51 3.25 352.14 1.74 344.76 3.25 337.82 1.74 329.37 5.64 321.56 5.64 308.98 7.59 297.27 6.72 284.26 8.89 266.48 4.99 250.86 0 241.97 3.9 233.29 3.04 223.1 8.46 218.33 9.76 209.87 8.68 202.07 9.98 191.87 9.76 173.66 13.45 166.72 11.49 154.57 13.23 143.73 8.68 134.4 14.31 124.64 12.79 118.79 11.49 109.9 12.79 102.31 10.41 95.58 13.23 83.66 12.36 69.13 17.35 57.41 15.61 49.61 17.13 43.75 16.05 38.77 18.32 27.92 14.31 21.85 14.31 14.04 18.32 0.1 18.8 3.96 25.5 4.39 31.57 0.1 38.31 0.1 69.29 1012.23 63.2 1024.1 38.31"/></g><polygon class="cls-2" points="1024.1 44.31 1011.99 33.76 1006.73 31.47 1003.61 27.11 999.27 25.95 993.2 25.95 977.58 25.95 968.26 27.36 961.1 25.95 951.34 27.36 945.27 24.87 936.16 26.82 927.71 24.87 916.64 28.77 910.79 26.82 897.34 28.77 888.24 28.77 880.43 30.94 870.67 29.2 867.63 30.94 864.16 34.63 858.96 38.75 848.55 39.83 842.69 41.35 821.01 34.84 812.11 34.63 805.39 34.84 797.37 37.45 780.67 38.1 771.56 34.84 759.85 36.8 747.49 37.66 738.81 35.28 726.24 30.51 720.16 31.59 707.58 36.36 697.39 35.71 691.32 37.66 677.01 39.83 668.98 42.65 653.58 41.13 642.74 35.49 629.73 33.76 623.01 27.47 616.28 22.7 608.26 13.16 601.97 14.02 593.73 17.93 585.71 20.31 577.46 25.3 570.96 22.7 562.07 20.31 556.21 20.31 551.01 21.61 542.76 19.23 534.96 20.31 523.45 20.31 512.1 15.11 497.44 19.45 482.69 16.41 469.46 20.31 461.44 17.93 450.81 17.28 438.24 16.63 425.01 14.46 417.2 16.84 409.17 15.98 403.54 17.49 396.16 10.99 387.27 10.12 381.42 7.74 364.5 7.74 359.51 9.25 352.14 7.74 344.76 9.25 337.82 7.74 329.37 11.64 321.56 11.64 308.98 13.59 297.27 12.72 284.26 14.89 266.48 10.99 250.86 6 241.97 9.9 233.29 9.04 223.1 14.46 218.33 15.76 209.87 14.68 202.07 15.98 191.87 15.76 173.66 19.45 166.72 17.49 154.57 19.23 143.73 14.68 134.4 20.31 124.64 18.8 118.79 17.49 109.9 18.8 102.31 16.41 95.58 19.23 83.66 18.36 69.13 23.35 57.41 21.61 49.61 23.13 43.75 22.05 38.77 24.32 27.92 20.31 21.85 20.31 14.04 24.32 0.1 24.8 3.96 31.5 4.39 37.57 0.1 44.31 0.1 75.29 1012.23 69.2 1024.1 44.31"/><path class="cls-3" d="M.1,50.13,25.91,42,32,45.9l17.35-8.24L87.5,43.73l15.62-6.07h29.49L152.56,29l19.95,6.07,40.77-11.28h11.28l5.64-1.73h9.11l14.31-1.74,6.94,4.56,8.68,1.52,1.08,2.81L281,23.78l16.26-.65,4.56,3.69,13.66-3.25,8,3,7.16.22,2.82,3.25,3.9-2.17,4.12,2.39,10.41-2.17,10-.22,3.25-2.38,9.11,3.68,2.17,2.17,6.29-3,8.46,6.72L395.67,34l4.12,3,5-1.95,3.69,1.3,5.42-2.82,3.9,1.52,6.29-2.39L431,35.06h7.59l5,3,2.82-1.74,2.17,2.17L453.36,37l1.95,1.3V44l1.95-.65,3-3.69,2.82,2,3.25-.87,1.73,1.08,4.12,6.29L477,43.52,480.68,45l1.74-.65,2.82,2.38,7.37-2,4.77,3,2.82-2.61,1.52-.21,6.86,3.25V45.9L513,43.08h4.77L516,47.42l4.12,5.64,3.24.87-1.94-3.47.22-3.91,3.25,3,9.76-.65,2.6.22v3.25l5.64-1.08.87-1.74,3.9,3v2.82h2.39l3.25-1.31V57l2.17.87v3L562.22,63l-3.47-3,3.47-2.6,24.94-1.3,9.76-3.69,7.16,3.69,4.77-1.3v1.3l8.68-3.47,3.9-2.39v3.25h8.89l5.42,1.74,5.21-.87,2.38-1.08,4.56,1.52L656.78,57l8.89-1.73,1.3,3.9,6.72-3.68,6.94-3.26.87-1.95,4.12,2.17,5.42-1.3,26,2.82,40.77-7.81,5,2.82,5.85-.43,13.88,1.3,26.24-1.52,5.86,2,14.09-5.85,9.33,2,6.29-1.74,3.25,1.74L858,43.52l2,1.95,8.68-5.64V43.3l13.66-1.63,4.34,3.15s6.07-4.12,6.94-4.34l8.24-1.95v5.64l7.37-2.5,4.12,3.8,6.73-3.8L927,43.3l5-1.63,4.12,1.41,4.34-2.6L947,41.67v4.88l2.82.44,4.12-3.91,4.55.22L960,40.7l5.85-2,7.81-2.17,2.6-2.6.87-2.39,4.12,1.52,5.42-1.95,5.64-.65,3-.65,6.72.43,22.07,14,.11,28.61L0,76.72Z"/></g></g></svg>