<svg xmlns="http://www.w3.org/2000/svg" viewBox="0 0 1024.21 76.72"><defs><style>.cls-1{opacity:0.05;}.cls-2{fill:#fff;}.cls-3{fill:#fff9ee;}</style></defs><g id="Layer_2" data-name="Layer 2"><g id="Layer_4" data-name="Layer 4"><g class="cls-1"><polygon points="0.11 38.41 12.22 48.97 17.48 51.25 20.6 55.62 24.94 56.77 31.01 56.77 46.63 56.77 55.95 55.36 63.11 56.77 72.87 55.36 78.94 57.86 88.05 55.91 96.51 57.86 107.57 53.95 113.42 55.91 126.87 53.95 135.98 53.95 143.78 51.78 153.54 53.52 156.58 51.78 160.05 48.1 165.25 43.98 175.66 42.89 181.52 41.38 203.2 47.88 212.1 48.1 218.82 47.88 226.84 45.28 243.54 44.63 252.65 47.88 264.36 45.93 276.72 45.06 285.4 47.45 297.98 52.22 304.05 51.13 316.63 46.36 326.82 47.01 332.89 45.06 347.2 42.89 355.23 40.07 370.63 41.59 381.47 47.23 394.48 48.97 401.2 55.25 407.93 60.02 415.95 69.57 422.24 68.7 430.48 64.8 438.51 62.41 446.75 57.42 453.25 60.02 462.14 62.41 468 62.41 473.2 61.11 481.44 63.49 489.25 62.41 500.76 62.41 512.11 67.62 526.77 63.28 541.52 66.31 554.75 62.41 562.77 64.8 573.4 65.45 585.98 66.1 599.2 68.27 607.01 65.88 615.04 66.75 620.67 65.23 628.05 71.74 636.94 72.6 642.79 74.99 659.71 74.99 664.7 73.47 672.07 74.99 679.45 73.47 686.38 74.99 694.84 71.09 702.65 71.09 715.23 69.13 726.94 70 739.95 67.83 757.74 71.74 773.35 76.72 782.24 72.82 790.91 73.69 801.11 68.27 805.88 66.97 814.34 68.05 822.14 66.75 832.34 66.97 850.55 63.28 857.49 65.23 869.64 63.49 880.48 68.05 889.81 62.41 899.57 63.93 905.42 65.23 914.31 63.93 921.9 66.31 928.63 63.49 940.55 64.36 955.08 59.38 966.79 61.11 974.6 59.59 980.46 60.68 985.45 58.4 996.29 62.41 1002.36 62.41 1010.17 58.4 1024.11 57.93 1020.25 51.22 1019.82 45.15 1024.11 38.41 1024.11 7.43 11.99 13.52 0.11 38.41"/></g><polygon class="cls-2" points="0.11 32.41 12.22 42.97 17.48 45.25 20.6 49.62 24.94 50.77 31.01 50.77 46.63 50.77 55.95 49.36 63.11 50.77 72.87 49.36 78.94 51.86 88.05 49.91 96.51 51.86 107.57 47.95 113.42 49.91 126.87 47.95 135.98 47.95 143.78 45.78 153.54 47.52 156.58 45.78 160.05 42.1 165.25 37.98 175.66 36.89 181.52 35.38 203.2 41.88 212.1 42.1 218.82 41.88 226.84 39.28 243.54 38.63 252.65 41.88 264.36 39.93 276.72 39.06 285.4 41.45 297.98 46.22 304.05 45.13 316.63 40.36 326.82 41.01 332.89 39.06 347.2 36.89 355.23 34.07 370.63 35.59 381.47 41.23 394.48 42.97 401.2 49.25 407.93 54.02 415.95 63.57 422.24 62.7 430.48 58.8 438.51 56.41 446.75 51.42 453.25 54.02 462.14 56.41 468 56.41 473.2 55.11 481.44 57.49 489.25 56.41 500.76 56.41 512.11 61.62 526.77 57.28 541.52 60.31 554.75 56.41 562.77 58.8 573.4 59.45 585.98 60.1 599.2 62.27 607.01 59.88 615.04 60.75 620.67 59.23 628.05 65.74 636.94 66.6 642.79 68.99 659.71 68.99 664.7 67.47 672.07 68.99 679.45 67.47 686.38 68.99 694.84 65.09 702.65 65.09 715.23 63.13 726.94 64 739.95 61.83 757.74 65.74 773.35 70.72 782.24 66.82 790.91 67.69 801.11 62.27 805.88 60.97 814.34 62.05 822.14 60.75 832.34 60.97 850.55 57.28 857.49 59.23 869.64 57.49 880.48 62.05 889.81 56.41 899.57 57.93 905.42 59.23 914.31 57.93 921.9 60.31 928.63 57.49 940.55 58.36 955.08 53.38 966.79 55.11 974.6 53.59 980.46 54.68 985.45 52.4 996.29 56.41 1002.36 56.41 1010.17 52.4 1024.11 51.93 1020.25 45.22 1019.82 39.15 1024.11 32.41 1024.11 1.43 11.99 7.52 0.11 32.41"/><path class="cls-3" d="M1024.11,26.59,998.3,34.72l-6.07-3.9-17.35,8.24L936.71,33l-15.62,6.07H891.6l-20,8.68L851.7,41.66,810.93,52.94H799.65L794,54.68H784.9l-14.31,1.73-6.94-4.55L755,50.34l-1.08-2.82-10.63,5.42L727,53.59l-4.56-3.69-13.66,3.26-8-3-7.16-.22-2.82-3.25-3.9,2.17-4.12-2.39L672.35,48.6l-10,.22-3.25,2.39L650,47.52l-2.17-2.17-6.29,3-8.46-6.73-4.55,1.09-4.12-3-5,1.95-3.69-1.3-5.42,2.82-3.9-1.52-6.29,2.39-6.94-2.39H585.6l-5-3-2.82,1.73-2.17-2.17-4.77,1.52-2-1.3V32.77l-1.95.65-3,3.69-2.82-2-3.25.87-1.73-1.09L552,28.65l-4.78,4.56-3.68-1.52-1.74.65L539,30,531.6,31.9l-4.77-3L524,31.47l-1.52.22-6.86-3.26v2.39l-4.42,2.82h-4.77l1.74-4.34-4.12-5.64-3.24-.86,1.94,3.47-.22,3.9-3.25-3-9.76.65-2.6-.21V24.31l-5.64,1.09-.87,1.73-3.9-3V21.28h-2.39l-3.25,1.3V19.76l-2.17-.87v-3L462,13.69l3.47,3L462,19.33l-24.94,1.3-9.76,3.68-7.16-3.68-4.77,1.3v-1.3l-8.68,3.47-3.9,2.38V23.23h-8.89l-5.42-1.73-5.21.86-2.38,1.09-4.56-1.52-8.89-2.17-8.89,1.74-1.3-3.91-6.72,3.69-6.94,3.25-.87,1.95-4.12-2.17-5.42,1.31-26-2.82-40.77,7.8-5-2.82-5.85.44-13.88-1.3-26.24,1.51-5.86-1.95-14.09,5.86-9.33-2-6.29,1.73-3.25-1.73-10.41,2.82-2-2-8.68,5.64V33.42l-13.66,1.63-4.34-3.15s-6.07,4.13-6.94,4.34-8.24,1.95-8.24,1.95V32.56L115,35.05l-4.12-3.8-6.73,3.8-6.94-1.63-5,1.63-4.12-1.41-4.34,2.6-6.51-1.19V30.17l-2.82-.43-4.12,3.9-4.55-.22L64.25,36,58.4,38l-7.81,2.17L48,42.75l-.87,2.38L43,43.62l-5.42,2-5.64.65-3,.65-6.72-.44L.11,32.41,0,3.8,1024.21,0Z"/></g></g></svg>