<svg xmlns="http://www.w3.org/2000/svg" viewBox="0 0 1024 87.39"><g data-name="Layer 2"><path style="fill:#f7e7b0" d="m1024 49.08-12.11 10.56-5.26 2.28-3.12 4.37-4.34 1.15H977.48l-9.32-1.41-7.16 1.41-9.76-1.41-6.07 2.5-9.11-1.95-8.46 1.95-11.06-3.91-5.85 1.96-13.45-1.96h-9.11l-7.8-2.17-9.76 1.74-3.04-1.74-3.47-3.68-5.2-4.12-10.41-1.09-5.86-1.51-21.69 6.5-8.89.22-6.72-.22-8.03-2.6-16.69-.65-9.11 3.25-11.71-1.95-12.36-.87-8.68 2.39-12.58 4.77-6.07-1.09-12.58-4.77-10.19.65-6.07-1.95-14.32-2.17-8.02-2.82-15.4 1.52-10.84 5.64-13.01 1.74-6.73 6.28-6.72 4.78-8.02 9.54-6.29-.87-8.24-3.9-8.03-2.39-8.24-4.99-6.5 2.61-8.9 2.38h-5.85l-5.21-1.3-8.24 2.39-7.8-1.09h-11.51L512 78.29l-14.66-4.34-14.75 3.03-13.23-3.9-8.02 2.39-10.63.65-12.58.65-13.23 2.17-7.8-2.39-8.03.87-5.64-1.52-7.37 6.51-8.89.86-5.86 2.39H364.4l-4.99-1.52-7.37 1.52-7.38-1.52-6.94 1.52-8.46-3.9h-7.8l-12.58-1.96-11.71.87-13.01-2.17-17.79 3.91-15.61 4.98-8.89-3.9-8.68.87L223 78.94l-4.77-1.3-8.46 1.08-7.81-1.3-10.19.22-18.22-3.69-6.94 1.95-12.14-1.73-10.84 4.55-9.33-5.64-9.76 1.52-5.85 1.3-8.89-1.3-7.6 2.38-6.72-2.81-11.93.86-14.53-4.98-11.71 1.73-7.8-1.52-5.86 1.09-4.99-2.28-10.84 4.01h-6.07l-7.81-4.01L0 68.6l3.85-6.7.44-6.08L0 49.08V18.1l1012.12 6.09L1024 49.08z"/><path d="m0 43.26 25.81 8.13 6.07-3.9 17.35 8.24 38.17-6.07 15.6 6.07h29.5l20 8.68 19.95-6.08 40.77 11.28h11.28l5.64 1.74h9.11l14.31 1.73 6.94-4.55 8.63-1.53 1.09-2.82 10.63 5.42 16.26.65 4.55-3.68 13.67 3.25 8-3 7.16-.21 2.82-3.26 3.9 2.17 4.12-2.38 10.41 2.16 10 .22 3.26 2.36 9.11-3.69 2.16-2.19 6.29 3 8.44-6.67 4.56 1.09 4.12-3 5 1.95 3.68-1.3 5.43 2.82 3.9-1.52 6.31 2.35 6.94-2.39h7.59l5-3 2.79 1.67 2.16-2.17 4.77 1.52 2-1.3v-5.61l2 .65 3 3.69 2.82-2 3.26.87 1.67-1.04 4.12-6.29 4.77 4.56 3.69-1.52 1.74.65 2.81-2.39 7.38 2 4.77-3 2.82 2.6 1.52.22 6.86-3.25v2.38l4.41 2.82h4.77L515.93 46l4.12-5.64 3.24-.86-1.94 3.47.22 3.9 3.25-3 9.76.66 2.6-.22V41l5.64 1.08.87 1.73 3.9-3V38H550l3.25 1.3v-2.87l2.17-.87v-3l6.72-2.17-3.47 3 3.45 2.61 24.94 1.3 9.76 3.7 7.18-3.7 4.77 1.3v-1.3l8.67 3.47 3.91 2.38V39.9h8.89l5.42-1.73 5.21.86 2.38 1.09 4.56-1.52 8.89-2.17 8.89 1.74 1.3-3.91 6.7 3.74 6.94 3.25.87 1.95 4.12-2.2 5.42 1.3 26-2.82 40.77 7.8 5-2.81 5.86.43 13.88-1.3 26.24 1.52 5.86-2 14.1 5.88 9.35-1.94 6.29 1.73 3.25-1.73 10.41 2.82 2-2 8.68 5.64v-3.43l13.66 1.63 4.34-3.14s6.07 4.12 6.94 4.33 8.24 2 8.24 2v-5.68l7.37 2.49 4.12-3.8 6.72 3.8 6.94-1.63 5 1.63 4.04-1.41 4.34 2.6 6.51-1.19v-4.88l2.81-.43 4.13 3.9 4.55-.22 1.52 2.61 5.85 1.95 7.81 2.17 2.6 2.6.88 2.38 4.12-1.51 5.42 2 5.64.65 3 .65 6.72-.43 22.07-14V0H0z" style="fill:#fae083"/></g></svg>