<svg xmlns="http://www.w3.org/2000/svg" viewBox="0 0 1024 87.39"><defs><style>.cls-1{fill:#f7e7b0;}.cls-2{fill:#fae083;}</style></defs><g id="Layer_2" data-name="Layer 2"><g id="Layer_2-2" data-name="Layer 2"><polygon class="cls-1" points="0 38.31 12.11 27.76 17.37 25.47 20.49 21.11 24.83 19.95 30.9 19.95 46.52 19.95 55.84 21.36 63 19.95 72.76 21.36 78.83 18.87 87.94 20.82 96.4 18.87 107.46 22.77 113.31 20.82 126.76 22.77 135.87 22.77 143.68 24.94 153.43 23.2 156.47 24.94 159.94 28.63 165.15 32.75 175.55 33.83 181.41 35.35 203.1 28.84 211.99 28.63 218.71 28.84 226.74 31.45 243.43 32.1 252.54 28.84 264.25 30.8 276.61 31.66 285.29 29.28 297.87 24.51 303.94 25.59 316.52 30.36 326.71 29.71 332.78 31.66 347.1 33.83 355.12 36.65 370.52 35.13 381.36 29.49 394.37 27.76 401.1 21.47 407.82 16.7 415.84 7.16 422.13 8.02 430.37 11.93 438.4 14.31 446.64 19.3 453.14 16.7 462.04 14.31 467.89 14.31 473.1 15.61 481.34 13.23 489.14 14.31 500.65 14.31 512 9.11 526.66 13.45 541.41 10.41 554.64 14.31 562.66 11.93 573.29 11.28 585.87 10.63 599.1 8.46 606.9 10.84 614.93 9.98 620.57 11.49 627.94 4.99 636.83 4.12 642.69 1.74 659.6 1.74 664.59 3.25 671.96 1.74 679.34 3.25 686.28 1.74 694.74 5.64 702.54 5.64 715.12 7.59 726.83 6.72 739.84 8.89 757.63 4.99 773.24 0 782.13 3.9 790.81 3.04 801 8.46 805.77 9.76 814.23 8.68 822.04 9.98 832.23 9.76 850.45 13.45 857.39 11.49 869.53 13.23 880.37 8.68 889.7 14.31 899.46 12.79 905.31 11.49 914.21 12.79 921.79 10.41 928.52 13.23 940.45 12.36 954.98 17.35 966.69 15.61 974.49 17.13 980.35 16.05 985.34 18.32 996.18 14.31 1002.25 14.31 1010.06 18.32 1024 18.8 1020.15 25.5 1019.71 31.57 1024 38.31 1024 69.29 11.88 63.2 0 38.31"/><path class="cls-2" d="M1024,44.13,998.19,36l-6.07,3.9-17.35-8.24L936.6,37.73,921,31.66h-29.5l-20-8.67-19.95,6.07L810.82,17.78H799.54l-5.64-1.73h-9.11l-14.31-1.74-6.94,4.56-8.67,1.52-1.09,2.81-10.63-5.42-16.26-.65-4.55,3.69-13.67-3.25-8,3-7.16.22-2.82,3.25-3.9-2.17-4.12,2.39-10.41-2.17-10-.22L659,19.52,649.9,23.2l-2.17,2.17-6.29-3L633,29.06,628.43,28l-4.12,3-5-2-3.68,1.3-5.43-2.82-3.9,1.52L600,26.67l-6.94,2.39h-7.59l-5,3-2.82-1.74-2.16,2.17L570.75,31l-2,1.3V38l-1.95-.65-3-3.69-2.82,2-3.26-.87L556,35.78l-4.12,6.29-4.77-4.55L543.42,39l-1.74-.65-2.81,2.38-7.38-2-4.77,3-2.82-2.61L522.38,39l-6.86,3.25V39.9l-4.41-2.82h-4.77l1.73,4.34L504,47.06l-3.24.87,1.94-3.47-.22-3.91-3.25,3-9.76-.65-2.6.22v3.25l-5.64-1.08-.87-1.74-3.9,3v2.82H474l-3.25-1.31V51l-2.17.87v3L461.88,57l3.47-3-3.47-2.6-24.94-1.3-9.76-3.69L420,50.1l-4.77-1.3v1.3l-8.67-3.47-3.91-2.39v3.25h-8.89l-5.42,1.74-5.21-.87-2.38-1.08-4.56,1.52L367.32,51l-8.89-1.73-1.3,3.9-6.72-3.68-6.94-3.26-.87-1.95-4.12,2.17-5.42-1.3-26,2.82-40.77-7.81-5,2.82-5.86-.43-13.88,1.3L215.3,42.29l-5.86,2-14.09-5.85-9.33,2-6.29-1.74-3.25,1.74-10.41-2.82-1.95,1.95-8.68-5.64V37.3l-13.66-1.63-4.34,3.15s-6.07-4.12-6.94-4.34l-8.24-1.95v5.64l-7.37-2.5-4.12,3.8-6.72-3.8L97.11,37.3l-5-1.63L88,37.08l-4.34-2.6-6.51,1.19v4.88L74.34,41l-4.13-3.91-4.55.22-1.52-2.6-5.85-2-7.81-2.17L47.88,28,47,25.59l-4.12,1.52-5.42-1.95-5.64-.65-3-.65-6.72.43L0,38.31V87.39H1024Z"/></g></g></svg>