<svg xmlns="http://www.w3.org/2000/svg" viewBox="0 0 1024 87.39"><defs><style>.cls-1{fill:#f7e7b0;}.cls-2{fill:#fae083;}</style></defs><g id="Layer_2" data-name="Layer 2"><g id="Layer_2-2" data-name="Layer 2"><polygon class="cls-1" points="1024 49.08 1011.89 59.64 1006.63 61.92 1003.51 66.29 999.17 67.44 993.1 67.44 977.48 67.44 968.16 66.03 961 67.44 951.24 66.03 945.17 68.53 936.06 66.58 927.6 68.53 916.54 64.62 910.69 66.58 897.24 64.62 888.13 64.62 880.33 62.45 870.57 64.19 867.53 62.45 864.06 58.77 858.86 54.65 848.45 53.56 842.59 52.05 820.9 58.55 812.01 58.77 805.29 58.55 797.26 55.95 780.57 55.3 771.46 58.55 759.75 56.6 747.39 55.73 738.71 58.12 726.13 62.89 720.06 61.8 707.48 57.03 697.29 57.68 691.22 55.73 676.9 53.56 668.88 50.74 653.48 52.26 642.64 57.9 629.63 59.64 622.9 65.92 616.18 70.7 608.16 80.24 601.87 79.37 593.63 75.47 585.6 73.08 577.36 68.09 570.86 70.7 561.96 73.08 556.11 73.08 550.9 71.78 542.66 74.17 534.86 73.08 523.35 73.08 512 78.29 497.34 73.95 482.59 76.98 469.36 73.08 461.34 75.47 450.71 76.12 438.13 76.77 424.9 78.94 417.1 76.55 409.07 77.42 403.43 75.9 396.06 82.41 387.17 83.27 381.31 85.66 364.4 85.66 359.41 84.14 352.04 85.66 344.66 84.14 337.72 85.66 329.26 81.76 321.46 81.76 308.88 79.8 297.17 80.67 284.16 78.5 266.37 82.41 250.76 87.39 241.87 83.49 233.19 84.36 223 78.94 218.23 77.64 209.77 78.72 201.96 77.42 191.77 77.64 173.55 73.95 166.61 75.9 154.47 74.17 143.63 78.72 134.3 73.08 124.54 74.6 118.69 75.9 109.8 74.6 102.2 76.98 95.48 74.17 83.55 75.03 69.02 70.05 57.31 71.78 49.51 70.26 43.65 71.35 38.66 69.07 27.82 73.08 21.75 73.08 13.94 69.07 0 68.6 3.85 61.9 4.29 55.82 0 49.08 0 18.1 1012.12 24.19 1024 49.08"/><path class="cls-2" d="M0,43.26l25.81,8.13,6.07-3.9,17.35,8.24L87.4,49.66,103,55.73h29.5l20,8.68,19.95-6.08,40.77,11.28h11.28l5.64,1.74h9.11l14.31,1.73,6.94-4.55L269.13,67l1.09-2.82,10.63,5.42,16.26.65,4.55-3.68,13.67,3.25,8-3,7.16-.21,2.82-3.26,3.9,2.17,4.12-2.38,10.41,2.16,10,.22L365,67.88l9.11-3.69L376.27,62l6.29,3L391,58.33l4.56,1.09,4.12-3,5,1.95,3.68-1.3,5.43,2.82,3.9-1.52L424,60.72l6.94-2.39h7.59l5-3L446.32,57l2.16-2.17,4.77,1.52,2-1.3V49.44l2,.65,3,3.69,2.82-2,3.26.87L468,51.61l4.12-6.29,4.77,4.56,3.69-1.52,1.74.65,2.81-2.39,7.38,2,4.77-3,2.82,2.6,1.52.22,6.86-3.25v2.38l4.41,2.82h4.77L515.93,46l4.12-5.64,3.24-.86-1.94,3.47.22,3.9,3.25-3,9.76.66,2.6-.22V41l5.64,1.08.87,1.73,3.9-3V38H550l3.25,1.3V36.43l2.17-.87v-3l6.72-2.17-3.47,3L562.12,36l24.94,1.3L596.82,41,604,37.3l4.77,1.3V37.3l8.67,3.47,3.91,2.38V39.9h8.89l5.42-1.73,5.21.86,2.38,1.09,4.56-1.52,8.89-2.17,8.89,1.74,1.3-3.91L673.59,38l6.94,3.25.87,1.95L685.52,41l5.42,1.3,26-2.82,40.77,7.8,5-2.81,5.86.43,13.88-1.3,26.24,1.52,5.86-2L828.65,49,838,47.06l6.29,1.73,3.25-1.73,10.41,2.82,2-2,8.68,5.64V50.09l13.66,1.63,4.34-3.14s6.07,4.12,6.94,4.33,8.24,2,8.24,2V49.23l7.37,2.49,4.12-3.8,6.72,3.8,6.94-1.63,5,1.63L936,50.31l4.34,2.6,6.51-1.19V46.84l2.81-.43,4.13,3.9,4.55-.22,1.52,2.61,5.85,1.95,7.81,2.17,2.6,2.6L977,61.8l4.12-1.51,5.42,2,5.64.65,3,.65,6.72-.43,22.07-14V0H0Z"/></g></g></svg>